<svg style="height:auto;width:100%" version="1.1" viewBox="0 0 1277 648" xmlns="http://www.w3.org/2000/svg" xmlns:xlink="http://www.w3.org/1999/xlink">
 <defs>
  <linearGradient id="linearGradient9617" x1="60.84" x2="92.13" y1="16.94" y2="68.51" gradientUnits="userSpaceOnUse">
   <stop stop-color="#959595" offset="0"/>
   <stop stop-color="#f2f2f2" offset=".5093"/>
   <stop stop-color="#f1f1f1" offset=".5093"/>
   <stop stop-color="#949494" offset="1"/>
  </linearGradient>
 </defs>
 <path d="m76 606c-368.9-39.37 1436-20.44 1149 16.92-426 20.05-1379 38.14-1149-16.92z" fill="#606060"/>
 <g transform="matrix(3.204 0 0 3.063 125.3 4.165)">
  <clipPath id="SVGID_2_">
   <use width="100%" height="100%" xlink:href="#SVGID_1_"/>
  </clipPath>
  <g clip-path="url(#SVGID_2_)">
   <mask id="SVGID_23_" x="-13.797" y="0" width="348.547" height="153" maskUnits="userSpaceOnUse">
    <g filter="url(#Adobe_OpacityMaskFilter)">
     <polygon points="167.7 0 174.8 153 146.1 153 157.3 0" fill="url(#SVGID_24_)"/>
     <polygon points="124.4 0 99.22 153 70.52 153 114 0" fill="url(#SVGID_25_)"/>
     <polygon points="79.03 0 14.9 153 -13.8 153 68.62 0" fill="url(#SVGID_26_)"/>
     <polygon points="200.2 0 221.7 153 250.4 153 210.6 0" fill="url(#SVGID_27_)"/>
     <polygon points="245.6 0 306.1 153 334.8 153 256 0" fill="url(#SVGID_28_)"/>
    </g>
   </mask>
   <mask id="SVGID_29_" x="0.203" y="23" width="74.297" height="148" maskUnits="userSpaceOnUse">
    <g filter="url(#Adobe_OpacityMaskFilter_1_)">
     <polygon points="74.5 171 0.297 171 0 23" fill="url(#SVGID_30_)"/>
    </g>
   </mask>
   <mask id="SVGID_31_" x="250.5" y="23" width="74.5" height="148" maskUnits="userSpaceOnUse">
    <g filter="url(#Adobe_OpacityMaskFilter_2_)">
     <polygon points="250.5 171 324.7 171 325 23" fill="url(#SVGID_32_)"/>
    </g>
   </mask>
  </g>
 </g>
 <g transform="matrix(1.161 0 0 1.218 57.88 101.8)">
  <path d="m199.9 21.53v42.36h43.23v-42.36zm48.4 0 16.89 20.92-16.89 21.43h20.77l6.614-8.414 6.848 8.414h20.95l-17.41-21.55 16.36-20.81h-20.77l-6.093 7.79-6.384-7.79zm-247 9.48e-4v42.36h19.15v-15.69c5.164 0 7.601 4.434 8.414 15.69h19.85c-0.8704-8.13-3.714-15.12-8.355-20.3 3.191-2.161 4.932-5.459 4.932-9.382 0-6.311-4.816-12.68-15.73-12.68zm106 0v42.36h30.17c10.1 0 14.8-5.173 14.8-11.71 0-3.639-1.334-6.879-6.789-9.722 4.352-2.445 5.628-5.63 5.628-9.098 0-4.889-2.785-11.83-16.77-11.83zm50.84 0v42.36h35.92v-10.63h-16.77v-31.73zm-31.69 8.528h1.161c3.888 0 5.049 1.762 5.049 4.093 0 3.013-1.567 4.15-5.745 4.15h-0.4641zm-106 0.1699h1.161c3.597 0 4.526 2.388 4.526 4.208 0 2.729-1.682 3.979-5.164 3.979h-0.5222zm196.8 8.344h8.439v8.267h-8.439zm-90.86 6.837h1.334c4.004 0 5.338 1.989 5.338 4.776 0 3.184-1.683 4.378-6.093 4.378h-0.5794z" fill="#e2231a" stroke-width="1.856"/>
  <path d="m60.84 16.94-10.84 41.02 42.13 10.56 10.84-41.02zm12.59 20.75 8.224 2.06-2.117 8.008-8.224-2.061z" fill="url(#linearGradient9617)" stroke-width="1.862"/>
 </g>
 <g transform="translate(1457 705.2)">
  <path d="m481.4 472.4c0 0.14-103.6 0.26-231.3 0.26s-231.4-0.12-231.4-0.26 103.6-0.26 231.4-0.26 231.3 0.12 231.3 0.26z" fill="#263238"/>
 </g>
 <g transform="matrix(.9018 0 0 .9099 48.55 199.6)">
  <path d="m440.9 367.6v104.8h-149.5s-3.89-77.14 18.91-104.8z" fill="#263238"/>
  <path d="m331.3 472.4a0.84 0.84 0 0 1 0-0.28v-0.81c0-0.76 0.05-1.81 0.08-3.14 0.09-2.73 0.19-6.67 0.41-11.54 0.59-9.73 1.47-23.2 3.72-37.92s5.44-27.88 8.9-37a70.81 70.81 0 0 1 4.75-10.53 30 30 0 0 1 1.67-2.66c0.22-0.29 0.38-0.51 0.5-0.65a1.14 1.14 0 0 1 0.19-0.2 1 1 0 0 1-0.15 0.23l-0.45 0.68c-0.38 0.61-0.95 1.5-1.58 2.7a75.72 75.72 0 0 0-4.58 10.56c-3.36 9.14-6.48 22.28-8.73 37s-3.18 28.14-3.87 37.86c-0.24 4.83-0.44 8.76-0.58 11.52-0.07 1.33-0.13 2.38-0.17 3.14q0 0.49-0.06 0.81a1.18 1.18 0 0 1-0.05 0.23z" fill="#455a64"/>
  <path d="m431.6 377v89.3h-92.14s4.43-74.18 17.73-89.34z" fill="#e0e0e0"/>
  <path d="m300 408.7c0-0.14 6-0.26 13.45-0.26s13.46 0.12 13.46 0.26-6 0.27-13.46 0.27-13.45-0.12-13.45-0.27z" fill="#455a64"/>
  <path d="m303.7 403c0-0.15 5.41-0.26 12.08-0.26s12.08 0.11 12.08 0.26-5.41 0.26-12.08 0.26-12.08-0.11-12.08-0.26z" fill="#455a64"/>
  <path d="m296.3 443.1c-0.2471-7.773 3.568-17.58 12.15-18.87 8.814-0.4863 13.59 8.977 14.14 16.66 0.47 6.179-1.083 12.79-5.393 17.42-4.351 5.434-13.18 4.336-16.75-1.341-2.986-3.501-4.291-9.855-4.143-13.84-0.0608 7.99 4.693 18.96 14.13 18.25 7.696-1.41 11.19-9.775 11.61-16.84 0.2924-5.835-1.196-12.03-5.254-16.4-4.175-5.268-12.64-4.215-16.14 1.204-2.981 3.962-4.238 8.878-4.36 13.76z" fill="#e2231a"/>
  <path d="m142.2 275.5c-3.65-17.09-6.94-41.13-12.72-49.79-4.7-7-16.17-14.44-19.12-27.43-1.58-6.94-3.21-12.45-4.38-16.08a7.08 7.08 0 0 0-6.74-4.9h-33.5a6.29 6.29 0 0 0-6.29 6.7c0.49 7.74 1 20-0.49 24.63-2.21 6.95-5.81 19.72-4.43 25.79 0.55 2.4 9.41 28.78 14.47 44.27a119.4 119.4 0 0 1 5 22.73l5.56 45.6 79.85-1.75s-14.45-56.96-17.21-69.77zm-59.31-56.78c-0.49 0.37-1.17 0-1.65-0.4a27.08 27.08 0 0 1-8.28-10.76 26.53 26.53 0 0 1-1.45-8.13 32.36 32.36 0 0 1 0.14-8.46 10.76 10.76 0 0 1 4.31-7 3.38 3.38 0 0 1 3.33-0.5c1.15 0.62 1.45 2.1 1.63 3.39l1.68 19.33c0.18 3.66 0.5 8 0.61 11.35a1.41 1.41 0 0 1-0.32 1.18zm18.45-11.91a27.14 27.14 0 0 1-6.52 11.89c-0.42 0.45-1 0.94-1.57 0.64s-0.48-0.71-0.54-1.15c-0.4-3.38-0.74-7.66-1.11-11.31l-1.29-19.36c0-1.3 0.06-2.81 1.1-3.6a3.38 3.38 0 0 1 3.37 0 10.73 10.73 0 0 1 5.33 6.3 32.1 32.1 0 0 1 1.42 8.34 26.89 26.89 0 0 1-0.19 8.25z" fill="#455a64"/>
  <path d="m146.4 275.5c-3.64-17.09-6.94-41.13-12.72-49.79-4.7-7-16.16-14.44-19.12-27.43-1.58-6.94-3.2-12.45-4.38-16.08a7.06 7.06 0 0 0-6.73-4.9h-33.51a6.3 6.3 0 0 0-6.29 6.7c0.49 7.74 1 20-0.48 24.63-2.22 6.95-5.82 19.72-4.44 25.79 0.55 2.4 9.42 28.78 14.47 44.27a120.2 120.2 0 0 1 5 22.73l5.56 45.6 79.86-1.75s-14.49-56.96-17.22-69.77zm-59.31-56.78c-0.49 0.37-1.17 0-1.65-0.4a23.1 23.1 0 0 1-9.7-18.89 32.36 32.36 0 0 1 0.14-8.46 10.76 10.76 0 0 1 4.31-7 3.39 3.39 0 0 1 3.33-0.5c1.15 0.62 1.45 2.1 1.63 3.39l1.68 19.33c0.18 3.66 0.5 8 0.61 11.35a1.41 1.41 0 0 1-0.35 1.18zm18.45-11.91a27.14 27.14 0 0 1-6.54 11.89c-0.42 0.45-1 0.94-1.57 0.64a1.39 1.39 0 0 1-0.53-1.15c-0.41-3.38-0.74-7.66-1.12-11.31l-1.27-19.36c0-1.3 0.06-2.81 1.11-3.6a3.36 3.36 0 0 1 3.36 0 10.73 10.73 0 0 1 5.33 6.3 32.1 32.1 0 0 1 1.42 8.34 26.89 26.89 0 0 1-0.19 8.25z" fill="#263238"/>
  <path d="m138.4 254.2c0 0.15-16.15 0.27-36.06 0.27s-36.07-0.12-36.07-0.27 16.15-0.26 36.07-0.26 36.06 0.09 36.06 0.26z" fill="#455a64"/>
  <path d="m166 356.1s-16.76-67.56-19.49-80.37c-3.64-17.09-6.94-41.13-12.72-49.79-4.7-7-16.16-14.44-19.12-27.43-1.58-6.94-3.2-12.45-4.38-16.08a7.07 7.07 0 0 0-6.73-4.9" fill="none"/>
  <path d="m103.6 177.5h0.5a6.84 6.84 0 0 1 1.45 0.23 7.11 7.11 0 0 1 4.36 3.44c1.88 4.57 3.52 11.51 5.74 19.94a33.7 33.7 0 0 0 2.89 6.18 47.58 47.58 0 0 0 4.38 6c1.65 2 3.49 3.89 5.39 5.87a57.43 57.43 0 0 1 5.57 6.42 33.92 33.92 0 0 1 3.71 8.13c1 2.89 1.78 5.88 2.52 8.95 1.49 6.14 2.71 12.56 4 19.12s2.45 13 3.91 19.12 2.86 12.05 4.19 17.69c2.73 11.26 5.18 21.4 7.25 29.92l4.89 20.17c0.56 2.37 1 4.21 1.3 5.49l0.33 1.43c0.07 0.33 0.09 0.49 0.09 0.49l-0.14-0.47-0.38-1.42c-0.33-1.27-0.8-3.11-1.4-5.47-1.2-4.77-2.93-11.65-5-20.13s-4.59-18.65-7.36-29.9l-4.31-17.7c-1.47-6.13-2.67-12.56-3.92-19.13s-2.47-13-4-19.1c-0.73-3.06-1.53-6-2.49-8.91a33.24 33.24 0 0 0-3.64-8 56.62 56.62 0 0 0-5.49-6.37c-1.9-2-3.74-3.93-5.4-5.91a48.56 48.56 0 0 1-4.39-6.06 33.47 33.47 0 0 1-2.89-6.27c-0.67-2.11-1.08-4.15-1.55-6.07s-0.92-3.72-1.38-5.39-0.9-3.24-1.32-4.67a26.6 26.6 0 0 0-1.32-3.83 7 7 0 0 0-4.21-3.44 8.6 8.6 0 0 0-1.88-0.35z" fill="#455a64"/>
  <path d="m161.7 356.1s-17-67.56-19.69-80.37c-3.64-17.09-6.94-41.13-12.72-49.79-4.7-7-16.16-14.44-19.12-27.43-1.57-6.94-3.2-12.45-4.38-16.08a7.07 7.07 0 0 0-6.73-4.9" fill="none"/>
  <rect x="166" y="373.1" width="7.69" height="84.71" fill="#e0e0e0"/>
  <rect x="162.5" y="390.5" width="14.43" height="61.01" fill="#e0e0e0"/>
  <path d="m88.29 359.4s46.71 14.95 80.42 14.95 72.61-14.95 72.61-14.95h-155.2" fill="#e0e0e0"/>
  <path d="m78.94 338.9v15.43a6.15 6.15 0 0 0 6.15 6.15h153.3a6.15 6.15 0 0 0 6.15-6.15v-7.35a6.15 6.15 0 0 0-6.07-6.15l-159.5-1.93" fill="#263238"/>
  <path d="m96.17 453.2s30.73-29.17 74.27-28.53 73.13 28.53 73.13 28.53l-4.27 4.81s-34.71-19.88-71.42-18.28-68 18.28-68 18.28z" fill="#263238"/>
  <path d="m105.2 457.2c7.39 9.71-3.59 20.69-13.3 13.29-7.39-9.71 3.58-20.68 13.3-13.29z" fill="#455a64"/>
  <path d="m178.8 463.3a9.08 9.08 0 1 1-9.08-9.07 9.07 9.07 0 0 1 9.08 9.07z" fill="#455a64"/>
  <path d="m255 463.3a9.07 9.07 0 1 1-9.07-9.07 9.07 9.07 0 0 1 9.07 9.07z" fill="#455a64"/>
  <path d="m141.7 293.3 1 4.34h91.89a3.71 3.71 0 0 0 3.66-3.11 3.69 3.69 0 0 0-2.12-4c-5.83-2.67-21.89-8.48-50.56-8.14-40.65 0.47-43.87 6.87-43.87 6.87z" fill="#263238"/>
  <path d="m207.3 294c-0.18 1.4-15.37 53-15.37 53h-15.71l15.17-53z" fill="#263238"/>
  <path d="m236.2 297.6c0 0.14-20.67 0.26-46.17 0.26s-46.16-0.12-46.16-0.26 20.66-0.27 46.16-0.27 46.17 0.12 46.17 0.27z" fill="#455a64"/>
  <path d="m238.5 360.5-0.36 0.14-1.11 0.36-4.12 1.42c-3.57 1.25-8.79 2.91-15.29 4.78-3.27 0.87-6.83 1.91-10.73 2.74-2 0.42-3.94 1-6 1.32l-6.43 1.18a162.3 162.3 0 0 1-29 2c-2.58-0.06-5.14-0.09-7.65-0.33l-3.78-0.21-1.85-0.14-1.82-0.22-7.12-0.87-6.79-1.12c-2.21-0.34-4.35-0.8-6.42-1.22l-6-1.25c-3.86-0.93-7.48-1.75-10.76-2.59l-8.82-2.36c-2.59-0.72-4.8-1.39-6.62-1.92l-4.2-1.21-1.08-0.33-0.36-0.13a1.41 1.41 0 0 1 0.38 0.08l1.09 0.28 4.21 1.1 6.64 1.83 8.83 2.29c3.28 0.81 6.9 1.61 10.77 2.52l6 1.22c2.07 0.42 4.2 0.87 6.41 1.2l6.78 1.1 7.1 0.86 1.82 0.21 1.84 0.14 3.73 0.27c2.5 0.24 5 0.27 7.62 0.33a164.4 164.4 0 0 0 28.94-2l6.42-1.15c2.09-0.36 4.08-0.89 6-1.3 3.89-0.8 7.45-1.83 10.73-2.67 6.51-1.82 11.74-3.42 15.33-4.62l4.15-1.32 1.08-0.34a1.73 1.73 0 0 1 0.44-0.07z" fill="#263238"/>
  <path d="m176.9 390.5a48.25 48.25 0 0 1-7.21 0.27 48.25 48.25 0 0 1-7.21-0.27 50.87 50.87 0 0 1 7.21-0.26 50.87 50.87 0 0 1 7.21 0.26z" fill="#263238"/>
  <circle transform="rotate(-76.78 198 154.6)" cx="198" cy="154.6" r="11.28" fill="#455a64"/>
  <path d="m176.4 111.8c0.26-4.46 3.33-4.78 5.6-4a7.9 7.9 0 0 1 9.63 1.45 7 7 0 0 1 9.78 7.08 5.88 5.88 0 0 1 3.8 10.49 5.65 5.65 0 0 1-3.79 10.58l-25.57-20.78c-1.47-1.92 0.41-2.43 0.55-4.82z" fill="#263238"/>
  <path d="m202.1 138.2a24 24 0 0 0-20.82-25l-1.23-0.16c-13.37-1-21.66 9.85-22.25 23.24l-3.88 44.44-0.71 8.44 29.79 10.19 2-17.55s13-0.31 14.85-13c0.88-6.19 1.67-19 2.25-30.6z" fill="#ffbf9d"/>
  <path d="m185.1 181.8a31.23 31.23 0 0 1-16.11-7.08s2.73 9.69 15.61 10.21z" fill="#ff9a6c"/>
  <path d="m198 149.2a1.84 1.84 0 0 1-2 1.61 1.76 1.76 0 0 1-1.66-1.89 1.84 1.84 0 0 1 2-1.61 1.76 1.76 0 0 1 1.66 1.89z" fill="#263238"/>
  <path d="m198.6 144.8c-0.26 0.2-1.5-1-3.46-1.25s-3.53 0.54-3.71 0.27 0.2-0.52 0.88-0.89a5.05 5.05 0 0 1 3-0.51 4.85 4.85 0 0 1 2.72 1.29c0.55 0.54 0.7 0.99 0.57 1.09z" fill="#263238"/>
  <path d="m180.6 147a1.83 1.83 0 0 1-2 1.61 1.76 1.76 0 0 1-1.67-1.89 1.86 1.86 0 0 1 2-1.61 1.76 1.76 0 0 1 1.67 1.89z" fill="#263238"/>
  <path d="m179.9 142c-0.26 0.21-1.51-1-3.47-1.24s-3.52 0.54-3.7 0.27c-0.09-0.12 0.19-0.52 0.88-0.89a5 5 0 0 1 3-0.51 4.85 4.85 0 0 1 2.71 1.28c0.55 0.56 0.69 1.01 0.58 1.09z" fill="#263238"/>
  <path d="m184.4 157.4a12.33 12.33 0 0 1 3.26-0.16c0.5 0 1 0 1.12-0.36a2.56 2.56 0 0 0-0.14-1.52l-1-4c-1.34-5.69-2.25-10.35-2-10.4s1.51 4.52 2.85 10.22c0.32 1.4 0.63 2.74 0.92 4a3 3 0 0 1 0 2 1.3 1.3 0 0 1-0.92 0.63 3.6 3.6 0 0 1-0.87 0 13 13 0 0 1-3.22-0.41z" fill="#263238"/>
  <path d="m178.5 158c0.32 0 0 2.16 1.67 3.9s3.92 1.82 3.9 2.12c0 0.13-0.56 0.34-1.52 0.24a5.31 5.31 0 0 1-3.27-1.64 4.61 4.61 0 0 1-1.26-3.25c-0.01-0.92 0.34-1.37 0.48-1.37z" fill="#263238"/>
  <path d="m180.6 136.4c-0.3 0.48-1.93-0.2-4-0.44s-3.82 0-4-0.56c-0.06-0.26 0.34-0.67 1.12-1a6.22 6.22 0 0 1 3.23-0.42 5.89 5.89 0 0 1 2.9 1.17c0.62 0.52 0.88 1.02 0.75 1.25z" fill="#263238"/>
  <path d="m198.9 139.3c-0.37 0.43-1.7-0.1-3.34-0.2s-3 0.16-3.33-0.33c-0.13-0.23 0.11-0.67 0.74-1.07a4.85 4.85 0 0 1 5.37 0.43c0.56 0.49 0.7 0.96 0.56 1.17z" fill="#263238"/>
  <path d="m201.6 132.2s-2.31-8.43-5.92-10.8c-4.37-2.86-7 2-11.32 0.16s-8.4-4.55-13.4-1.73c-5.46 3.11-3.48 6.05-4.53 11.67-4.26 22.78-9.3 28.72-9.07 17.75 0-1.2-3.14-2.57-3-7.64 0.22-6.56 1-14.47 3.06-18.89 1.72-3.72 4.29-6.11 8.64-8.54 6.88-3.84 15.49-2.82 21.25-1.46s16.14 9.55 14.29 19.48z" fill="#263238"/>
  <path d="m158.2 149a3.49 3.49 0 0 0-3.3-3.82c-2.41-0.09-5.23 0.91-5.72 5.85-0.87 8.76 8.1 7.82 8.14 7.57s0.55-5.93 0.88-9.6z" fill="#ffbf9d"/>
  <path d="m155.8 155.1s-0.16 0.09-0.43 0.18a1.51 1.51 0 0 1-1.14-0.09c-0.89-0.43-1.53-2-1.41-3.56a4.88 4.88 0 0 1 0.64-2.14 1.79 1.79 0 0 1 1.26-1.06 0.78 0.78 0 0 1 0.86 0.51c0.09 0.26 0 0.43 0.07 0.45s0.2-0.13 0.16-0.5a1 1 0 0 0-0.29-0.58 1.17 1.17 0 0 0-0.82-0.31 2.16 2.16 0 0 0-1.73 1.2 5.36 5.36 0 0 0-0.77 2.39c-0.11 1.77 0.63 3.51 1.86 4a1.63 1.63 0 0 0 1.41-0.09c0.3-0.19 0.36-0.39 0.33-0.4z" fill="#ff9a6c"/>
  <path d="m160.6 132.1a8.43 8.43 0 0 0 3.47 2.19 2.86 2.86 0 0 0 3.42-1.58c0.18-0.6 0.13-1.32 0.59-1.74s1.4-0.2 2.12 0a5.62 5.62 0 0 0 6.3-3.23c0.52 1 2 1.2 3.1 0.7a12.72 12.72 0 0 0 2.71-2.23 3.6 3.6 0 0 1 3.18-1.1 8.75 8.75 0 0 0 1.85 0.67c1.15 0 1.89-1.22 2.21-2.34s0.63-2.42 1.68-2.91 2.1 0 3.13 0.32 2.43 0.23 2.83-0.77a2 2 0 0 0-0.18-1.63 5.69 5.69 0 0 0-6.38-3 7.72 7.72 0 0 0-13.87-3.33 7.84 7.84 0 0 0-12.79 1.2 5.68 5.68 0 0 0-7.42 7.36 5.38 5.38 0 0 0-3.5 3.87c-0.27 1.8 1.25 3.83 3.06 3.58a3.146 3.146 0 0 0 5 3.82" fill="#263238"/>
  <path d="m155.5 128a2.09 2.09 0 0 0 0.32 1.75 2.84 2.84 0 0 0 1.61 1.25 3 3 0 0 0 2.58-0.4l-0.36-0.1a8.45 8.45 0 0 0 1.46 2.4 4.94 4.94 0 0 0 1.46 1.2 3.91 3.91 0 0 0 4.43-0.72 5 5 0 0 0 0.95-1.72 1.68 1.68 0 0 0 0.16-0.7s-0.14 0.22-0.34 0.62a6 6 0 0 1-1 1.55 3.57 3.57 0 0 1-5.25-0.56 8.47 8.47 0 0 1-1.39-2.26l-0.12-0.27-0.25 0.17a2.7 2.7 0 0 1-2.19 0.4 2.67 2.67 0 0 1-1.47-1 4.34 4.34 0 0 1-0.6-1.61z" fill="#455a64"/>
  <path d="m234.2 420.4-8.87 26.71s24.17 18 23 23.09l-52.4-15.35 12.12-42.19z" fill="#263238"/>
  <g opacity=".3">
   <path d="m234.2 420.4-8.87 26.71s24.17 18 23 23.09l-52.4-15.35 12.12-42.19z"/>
  </g>
  <path d="m209.7 440a2.23 2.23 0 0 0-2.19 2 2.14 2.14 0 0 0 2 2.2 2.35 2.35 0 0 0 2.31-2.14 2.22 2.22 0 0 0-2.3-2.06" fill="#e0e0e0"/>
  <g opacity=".6">
   <path d="m195.9 454.8 1.38-4.2 49.74 16.28s2 1.7 1.29 3.27z" fill="#fff"/>
  </g>
  <path d="m226.2 447c-0.08 0.26-1.39 0-2.89 0.45s-2.49 1.33-2.7 1.16 0.61-1.53 2.44-2 3.28 0.21 3.15 0.39z" fill="#e0e0e0"/>
  <path d="m231 450.9c0 0.26-1.25 0.37-2.43 1.2s-1.77 1.9-2 1.81 0-1.58 1.51-2.58 3.02-0.68 2.92-0.43z" fill="#e0e0e0"/>
  <path d="m232.2 458.4c-0.25 0-0.23-1.4 0.84-2.61s2.43-1.41 2.47-1.17-0.91 0.78-1.77 1.79-1.28 2.04-1.54 1.99z" fill="#e0e0e0"/>
  <path d="m227.6 440.7c-0.18 0.2-1.25-0.5-2.72-0.82s-2.74-0.2-2.81-0.46 1.29-0.85 3-0.44 2.71 1.56 2.53 1.72z" fill="#e0e0e0"/>
  <path d="m242.5 427.2-1.11 28.13s28.22 10.57 28.52 15.79l-54.61-0.17-0.08-43.9z" fill="#263238"/>
  <path d="m224.5 453a2.24 2.24 0 0 0-1.55 2.54 2.14 2.14 0 0 0 2.51 1.56 2.34 2.34 0 0 0 1.62-2.7 2.22 2.22 0 0 0-2.78-1.33" fill="#e0e0e0"/>
  <g opacity=".6">
   <path d="m215.3 471 0.16-4.42 52.3 1.83s2.43 1.06 2.15 2.78z" fill="#fff"/>
  </g>
  <path d="m242.3 455.1c0 0.27-1.35 0.39-2.66 1.24s-2 2-2.26 1.86 0.15-1.64 1.76-2.65 3.22-0.69 3.16-0.45z" fill="#fff"/>
  <path d="m248 457.5c0.06 0.26-1.1 0.71-2 1.83s-1.17 2.32-1.44 2.31-0.43-1.52 0.73-2.9 2.71-1.49 2.71-1.24z" fill="#fff"/>
  <path d="m251.2 464.4c-0.24 0.05-0.61-1.28 0.08-2.74s1.94-2 2.05-1.81-0.66 1-1.21 2.21-0.66 2.31-0.92 2.34z" fill="#fff"/>
  <path d="m241.8 448.7c-0.11 0.25-1.34-0.13-2.84 0s-2.69 0.57-2.83 0.34 1-1.17 2.78-1.26 3.07 0.72 2.89 0.92z" fill="#fff"/>
  <path d="m176.2 287.4s64 14.85 72.15 26.18c6.87 9.58-12.5 115.4-12.5 115.4l-35.25-2.51 4.72-92.86-73.31-23.31 11.08-28.16z" fill="#455a64"/>
  <path d="m181.8 297.5s66.91 16.26 73.68 27.82c3.16 5.39 1.08 23.09-0.09 31.44-0.8 5.63-12.63 84.4-12.63 84.4h-28.93l0.64-89-69.53-14s-37.32 2.84-38.77-13.08l15.57-21.05 36.77-18.17z" fill="#455a64"/>
  <path d="m176.7 295.4 1 0.25 2.84 0.79 10.91 3c4.74 1.33 10.54 3 17.24 4.94s14.3 4.4 22.53 7.52q6.18 2.31 12.78 5.26l3.31 1.51a29.85 29.85 0 0 1 3.26 1.81 20.86 20.86 0 0 1 3 2.29 11 11 0 0 1 2.44 3c2.26 10.25 0.89 21.46-0.78 32.92-0.73 5.77-1.67 11.66-2.56 17.68s-1.82 12.17-2.75 18.43c-1.88 12.52-3.82 25.48-5.8 38.75-0.38 2.51-0.75 5-1.13 7.5v0.21h-29.4v-0.25c0.26-33.72 0.5-64.26 0.69-89l0.15 0.19-49.39-10-13.49-2.77-3.52-0.66-1.2-0.27 1.21 0.22 3.52 0.68 13.51 2.67 49.43 9.9h0.15v0.16c-0.16 24.71-0.36 55.24-0.57 89l-0.25-0.25h28.93l-0.24 0.21q0.56-3.74 1.12-7.5c2-13.27 3.93-26.23 5.81-38.75q1.41-9.39 2.77-18.43c0.89-6 1.83-11.91 2.57-17.67q0.59-4.32 1.15-8.54a74 74 0 0 0 0.73-8.32q0.15-4.12 0-8.13-0.08-2-0.24-4a9.75 9.75 0 0 0-0.77-3.73 10.69 10.69 0 0 0-2.34-2.93 21 21 0 0 0-3-2.25 32.68 32.68 0 0 0-3.21-1.79l-3.31-1.51q-6.57-3-12.74-5.29c-8.22-3.13-15.81-5.53-22.49-7.57s-12.48-3.66-17.21-5l-10.89-3.14-2.82-0.84z" fill="#263238"/>
  <path d="m186 194.8s8.34 3.39 13.09 14.93c3.34 8.11 21.89 33.72 21.89 33.72l49.34 10.95 1.68 15.74-78.92-0.65-11-34.92z" fill="#e2231a"/>
  <path d="m184 190.4 7.62 8.3-15.77 81 6.73 9.26-76.45 36.08s-5.83-33-2.91-55.29c2.91-22.12 10.46-47.14 18.81-66.55 3.48-8.07 13.85-15.89 22-19.29l11.14-3.08 28.3 15.78z" fill="#e2231a"/>
  <path d="m189 200.3a3.75 3.75 0 0 1-0.07 0.71q-0.12 0.78-0.3 2c-0.27 1.77-0.69 4.33-1.26 7.47-1.11 6.3-2.79 15-4.78 24.53s-3.91 18.19-5.32 24.42c-0.71 3.08-1.29 5.59-1.71 7.38l-0.48 2a3.79 3.79 0 0 1-0.21 0.69 4.62 4.62 0 0 1 0.11-0.72c0.1-0.5 0.23-1.18 0.4-2 0.37-1.8 0.9-4.32 1.55-7.41 1.33-6.3 3.16-14.92 5.17-24.45s3.73-18.21 4.93-24.49c0.59-3.1 1.07-5.63 1.41-7.44 0.16-0.84 0.29-1.51 0.39-2a4.3 4.3 0 0 1 0.17-0.69z" fill="#263238"/>
  <path d="m122 308.7a3 3 0 0 1 0.45-0.45l1.32-1.22c0.58-0.53 1.29-1.17 2.15-1.88s1.82-1.54 2.93-2.39c2.19-1.75 4.89-3.71 8-5.77s6.59-4.14 10.37-6.15 7.5-3.67 10.93-5.09 6.58-2.5 9.26-3.32c1.33-0.44 2.56-0.76 3.63-1.06s2-0.55 2.76-0.72l1.76-0.41a3.37 3.37 0 0 1 0.62-0.11 3 3 0 0 1-0.6 0.21l-1.73 0.49c-0.76 0.21-1.68 0.47-2.74 0.8s-2.27 0.67-3.59 1.13c-2.66 0.87-5.78 2-9.2 3.41s-7.1 3.13-10.87 5.11-7.25 4.09-10.35 6.09-5.79 4-8 5.67c-1.13 0.82-2.1 1.64-3 2.32s-1.61 1.3-2.2 1.81l-1.39 1.15a2.82 2.82 0 0 1-0.51 0.38z" fill="#263238"/>
  <path d="m160.1 280.8c0.06 0.12-7.14 4.17-16.09 9s-16.25 8.73-16.32 8.61 7.14-4.17 16.09-9 16.26-8.73 16.32-8.61z" fill="#263238"/>
  <g opacity=".3">
   <path d="m134 222.3c4.6 19.87 18.65 37.67 37.36 45.77a443.3 443.3 0 0 1-37.36-45.77z"/>
   <path d="m187.8 207.1c1.81 8.41 0.47 18.92-3.75 26.42l-1.09-2.19c1.49-6.31 3.63-17.53 4.81-24.23"/>
  </g>
  <path d="m269.3 255.2c0.43-0.64 6-7 7.45-7s3.19 1.7 3.19 1.7a5.54 5.54 0 0 1 3.19-0.43c1.27 0.43 7.23 5.53 7.23 7.45v3.19a8.4 8.4 0 0 1 0 2.55c-0.22 1.49-3.83 4-3.83 4h-20.41s-3.9-2.63-3.41-5.1 6.59-6.36 6.59-6.36z" fill="#ffbf9d"/>
  <path d="m280 249.9a8.68 8.68 0 0 1 1.27 0.72l3.37 2.13a10.59 10.59 0 0 1 1.12 0.76 3 3 0 0 1 0.82 1.28 6.08 6.08 0 0 1 0.19 1.57c0 0.53 0.05 1.07 0.08 1.62 0.11 2.24 0.23 4.68 0.35 7.24l0.06 1.16v0.2l-0.19 0.05-1.25 0.31h-0.06a2.64 2.64 0 0 1-1.6-0.6 4.42 4.42 0 0 1-1-1.23 10.56 10.56 0 0 1-1.07-2.75 24.71 24.71 0 0 1-0.71-4.9l0.11 0.15-3.56-1.41a8 8 0 0 1-1.28-0.57 7.57 7.57 0 0 1 1.34 0.4l3.62 1.26h0.11v0.12a25.68 25.68 0 0 0 0.78 4.81 10.73 10.73 0 0 0 1.05 2.61 2.77 2.77 0 0 0 2.23 1.59h-0.06l1.25-0.31-0.19 0.25c0-0.38 0-0.77-0.05-1.16-0.11-2.56-0.22-5-0.31-7.24 0-0.55 0-1.09-0.07-1.62a5.61 5.61 0 0 0-0.14-1.47 2.59 2.59 0 0 0-0.69-1.12c-0.31-0.28-0.71-0.5-1.05-0.75l-3.29-2.26a7.64 7.64 0 0 1-1.18-0.84z" fill="#ff9a6c"/>
  <path d="m266.2 265.9a6.58 6.58 0 0 1 1.37-0.18l3.72-0.3h0.06a41.86 41.86 0 0 0 4.2 0.76 23.58 23.58 0 0 0 2.45 0.2 2.72 2.72 0 0 0 2.24-0.64 2 2 0 0 0 0.36-1.25c0-0.46-0.07-0.93-0.09-1.43a1.75 1.75 0 0 0-0.55-1.05 4.61 4.61 0 0 0-1-0.76 7.76 7.76 0 0 0-4.38-0.77 3.44 3.44 0 0 1-2.89-1.16c-0.45-0.64-0.41-1.1-0.38-1.09a3.33 3.33 0 0 0 0.53 1 3.3 3.3 0 0 0 2.74 0.93 7.93 7.93 0 0 1 4.6 0.72 4.9 4.9 0 0 1 1.13 0.83 2.19 2.19 0 0 1 0.7 1.37c0 0.44 0.09 0.93 0.09 1.45a2.53 2.53 0 0 1-0.46 1.55 2.2 2.2 0 0 1-1.29 0.73 5.66 5.66 0 0 1-1.35 0.08 21.73 21.73 0 0 1-2.5-0.22 36.4 36.4 0 0 1-4.24-0.85h0.06l-3.73 0.14a6.28 6.28 0 0 1-1.39-0.06z" fill="#ff9a6c"/>
  <path d="m287 265.8a33.86 33.86 0 0 1 1.64-3.7 16.88 16.88 0 0 1 1.88-3.6 17.63 17.63 0 0 1-1.43 3.8 11.53 11.53 0 0 1-2.09 3.5z" fill="#ff9a6c"/>
  <path d="m133 220.8s36 49 41.6 49h52.55v-19.95l-39.74-9.37s-19.57-40.5-23.9-45.69-15.91-12.17-24.56-4.38-5.95 30.39-5.95 30.39z" fill="#e2231a"/>
  <path d="m227.1 251.8 8.61-0.69s0.19-3.19 2.07-4.32 1.69-3.57 2.82-3.38a4.87 4.87 0 0 0 1.88 0l7.14-6 6-3.94 4.7-0.94s2.82 0.75 0 3.38l-3 1.69-2.63 2.63 6-2.95a2 2 0 0 1 1.77 0 25.27 25.27 0 0 1 4.62 2.59 1.3 1.3 0 0 1 0 1.88l2.65 2.26s0.56 3-2.45 2.26l-2.44-0.57-3.19 3.2s10.9-2.26 11.65-1.88a2.14 2.14 0 0 1 0 3.57c-1.69 1.5-8.27 1.13-9.77 2.63s-11.45 10.58-13.89 11.15-22.5 5.46-22.5 5.46z" fill="#ffbf9d"/>
  <path d="m269.7 244a11 11 0 0 1-1.48-1.05c-0.45-0.33-1-0.72-1.6-1.13-0.3-0.21-0.62-0.42-1-0.62a2.21 2.21 0 0 0-1-0.42 6.23 6.23 0 0 0-2.1 0.88c-0.64 0.35-1.22 0.68-1.7 1a9 9 0 0 1-1.59 0.88 5.43 5.43 0 0 1 1.4-1.17c0.46-0.32 1-0.69 1.67-1.07 0.32-0.19 0.66-0.38 1-0.57a3 3 0 0 1 1.28-0.4 1.13 1.13 0 0 1 0.39 0.05l0.33 0.13c0.2 0.1 0.38 0.21 0.55 0.31 0.35 0.22 0.68 0.45 1 0.67 0.6 0.44 1.12 0.86 1.55 1.23 0.89 0.65 1.36 1.19 1.3 1.28z" fill="#ff9a6c"/>
  <path d="m243.3 242.7c0.08 0.12-0.82 0.89-1.85 1.89s-1.9 1.84-2 1.74a6.58 6.58 0 0 1 1.66-2.09 5.44 5.44 0 0 1 2.19-1.54z" fill="#ff9a6c"/>
  <path d="m163.5 194.8c6.291 9.184 10.87 19.4 16.01 29.24 2.723 5.425 5.408 10.87 8.066 16.33 0.735-8e-3 2.829 0.6383 4.086 0.882 11.9 2.798 23.81 5.582 35.71 8.388v20.35h-53.01c-6.544-3.457-10.68-10.19-15.58-15.62-8.949-10.91-17.54-22.11-25.82-33.53 10.1 13.46 20.3 26.87 31.36 39.56 3.414 4.566 7.945 10.16 14.16 9.16h48.51c-0.5817-0.08-0.0847-2.764-0.25-3.85v-15.81c-0.3044 0.3975-2.712-0.583-3.809-0.7049-11.92-2.861-24.04-5.62-35.84-8.545-7.313-14.78-14.28-29.76-22.56-44.04-0.3035-0.6218-0.8917-1.119-1.041-1.814z" fill="#263238"/>
  <path d="m158.2 191.6c0 0.08-1.23-0.41-3.25-0.86a23.89 23.89 0 0 0-3.58-0.54 27.31 27.31 0 0 0-4.42 0 27.92 27.92 0 0 0-4.35 0.79 26.57 26.57 0 0 0-3.42 1.21c-1.89 0.82-3 1.52-3 1.45s0.24-0.23 0.73-0.55a15.9 15.9 0 0 1 2.16-1.22 21.47 21.47 0 0 1 3.43-1.32 25.79 25.79 0 0 1 4.43-0.85 25.13 25.13 0 0 1 4.51 0 23.08 23.08 0 0 1 3.63 0.66 16 16 0 0 1 2.34 0.79 2.89 2.89 0 0 1 0.79 0.44z" fill="#263238"/>
  <path d="m180.1 249.6a18.1 18.1 0 0 1 6.59-8.27c0.1 0.11-1.72 1.66-3.53 3.95s-2.93 4.39-3.06 4.32z" fill="#263238"/>
  <path d="m178.9 243.4a7.86 7.86 0 0 1 3.41-2 8.09 8.09 0 0 1 3.91-0.6c0 0.15-1.73 0.34-3.75 1.07s-3.5 1.65-3.57 1.53z" fill="#263238"/>
  <path d="m155.4 141.4v0.92h3.25c2.84-28.58 18.18-30.46 17.84-30.71a4.06 4.06 0 0 1 1.27-3.38c-21.58 2.56-22.52 32.71-22.36 33.17z" fill="#455a64"/>
  <circle cx="154.4" cy="150.8" r="11.28" fill="#455a64"/>
  <path d="m160.6 150.5c-0.05 0 0-0.51-0.27-1.37a5.7 5.7 0 0 0-2.09-3 5.48 5.48 0 1 0 0 8.78 5.78 5.78 0 0 0 2.09-3c0.24-0.86 0.22-1.38 0.27-1.37s0 0.12 0 0.36a4.29 4.29 0 0 1-0.12 1.06 5.67 5.67 0 0 1-2.06 3.26 5.86 5.86 0 0 1-5.59 0.9 5.74 5.74 0 0 1-2.77-2.06 5.9 5.9 0 0 1 0-7.05 5.89 5.89 0 0 1 8.36-1.16 5.66 5.66 0 0 1 2.06 3.27 4.27 4.27 0 0 1 0.12 1.05c0.03 0.2 0.02 0.33 0 0.33z" fill="#263238"/>
  <path d="m90.1 293.3 1 4.34h91.9a3.71 3.71 0 0 0 3.66-3.11 3.69 3.69 0 0 0-2.12-4c-5.83-2.67-21.89-8.48-50.56-8.14-40.65 0.47-43.87 6.87-43.87 6.87z" fill="#263238"/>
  <path d="m155.7 294c-0.18 1.4-15.37 53-15.37 53h-15.71l15.17-53z" fill="#263238"/>
  <path d="m184.6 297.6c0 0.14-20.68 0.26-46.17 0.26s-46.16-0.12-46.16-0.26 20.66-0.27 46.16-0.27 46.17 0.12 46.17 0.27z" fill="#455a64"/>
  <path d="m357.1 204.1c-0.1 0.55 17.44 64.95 17.44 64.95l-28 0.09-0.13 2.93h33.63l-19.09-74.7z" fill="#e0e0e0"/>
  <path d="m357.1 204.1s0.07-0.15 0.23-0.44l0.7-1.29 2.82-5 0.12-0.2 0.06 0.23c3.23 12.54 10.42 40.44 19.23 74.66l0.09 0.32h-34.22v-0.27c0-1 0.09-2 0.13-2.93v-0.25h0.25l28-0.07-0.23 0.31c-5.12-19.06-9.49-35.29-12.57-46.78l-3.48-13.43c-0.38-1.55-0.68-2.75-0.88-3.58-0.1-0.4-0.16-0.73-0.2-0.94s-0.05-0.31-0.05-0.31c0.28 1 1.88 6.93 4.92 18.17 3.13 11.47 7.56 27.69 12.75 46.72l0.09 0.3h-0.32l-28 0.11 0.26-0.25c0 1-0.09 1.95-0.13 2.94l-0.26-0.28h33.63l-0.25 0.32c-8.69-34.28-15.75-62.2-18.95-74.76h0.18c-1.27 2.17-2.23 3.84-2.9 5l-0.75 1.27c-0.17 0.29-0.27 0.43-0.27 0.43z" fill="#263238"/>
  <rect transform="rotate(-72.67 360.3 187.7)" x="299.5" y="184.1" width="121.6" height="7.14" fill="#e0e0e0"/>
  <path d="m338.8 244.7 0.16-0.58c0.12-0.41 0.3-1 0.52-1.73 0.48-1.54 1.16-3.79 2.05-6.68 1.8-5.83 4.4-14.26 7.63-24.71l25.61-82.43 0.08-0.25 0.25 0.08 6.81 2.13 0.25 0.08-0.08 0.24c-16.93 54.27-31.37 100.3-36.39 116v0.08h-0.08l-5.14-1.65-1.25-0.41-0.4-0.14 0.44 0.12 1.27 0.38 5.13 1.55h-0.1c4.81-15.78 19.11-61.84 36-116.1l0.18 0.33-6.81-2.12 0.33-0.17c-10.12 32.32-19.24 61.32-25.76 82.19l-7.79 24.72c-0.93 2.91-1.64 5.17-2.14 6.72-0.24 0.75-0.43 1.33-0.56 1.75s-0.21 0.6-0.21 0.6z" fill="#263238"/>
  <rect x="244.1" y="266.7" width="72.08" height="5.34" fill="#e0e0e0"/>
  <path d="m316.2 272a2.81 2.81 0 0 1 0-0.36v-1c0-0.92 0-2.24-0.05-4l0.09 0.09c-11 0.1-39.13 0.17-72.08 0.17 0.11-0.12-0.27 0.26 0.25-0.26v5.36l-0.26-0.26 51.07 0.11 15.36 0.07h5.27a1.81 1.81 0 0 1 0.39 0h-5.53l-15.29 0.08-51.27 0.11h-0.26v-5.58c0.52-0.52 0.15-0.15 0.27-0.26 32.95 0 61.09 0.07 72.08 0.16h0.09v0.09c0 1.75 0 3.08-0.05 4v1c0 0.24-0.08 0.48-0.08 0.48z" fill="#263238"/>
  <path d="m291.3 272.3a14 14 0 0 1 0-5.37 14 14 0 0 1 0 5.37z" fill="#263238"/>
  <rect x="134.6" y="284.2" width="11.17" height="188.1" fill="#455a64"/>
  <path d="m145.7 472.3v-1-2.83-10.89c0-9.45 0-23.12-0.08-40.08 0-33.88-0.07-80.86-0.11-133.3l0.26 0.26h-11.23l0.26-0.26c-0.09 87.91-0.16 162.5-0.18 188.1l-0.08-0.09h11.16-11.29v-0.08c0-25.61-0.09-100.2-0.18-188.1v-0.06h11.76v0.26c0 52.5-0.09 99.55-0.11 133.5 0 16.93-0.06 30.59-0.08 40v10.82 2.8c0 0.65-0.1 0.96-0.1 0.96z" fill="#263238"/>
  <rect x="348.9" y="280.5" width="11.17" height="191.8" fill="#455a64"/>
  <path d="m360 472.3v-1-2.89-11.1c0-9.64 0-23.59-0.08-40.88 0-34.56-0.07-82.47-0.11-135.9l0.26 0.26h-11.21l0.27-0.26c-0.13 89.65-0.13 165.7-0.13 191.8l-0.09-0.09h11.17-11.25v-0.08c0-26.12-0.1-102.2-0.18-191.8v-0.27h11.7v0.27c-0.05 53.54-0.09 101.5-0.11 136.1 0 17.26-0.06 31.19-0.08 40.81v11 2.86c0 0.66-0.16 1.17-0.16 1.17z" fill="#263238"/>
  <rect x="54.24" y="272" width="351.7" height="11.72" fill="#455a64"/>
  <path d="m405.9 283.7c0-0.43 0-3.77-0.06-11.72l0.06 0.06-351.7 0.2 0.26-0.26v11.72l-0.26-0.26 249 0.1 75.11 0.08h25.71 1.82-27.39l-324.3 0.35h-0.24v-12.25h0.28l351.7 0.19h0.06v0.06 8.89c0 1.94-0.08 2.84-0.08 2.84z" fill="#263238"/>
  <path d="m226.6 283.4a31.78 31.78 0 0 1-0.26-5.69 31.68 31.68 0 0 1 0.26-5.69 30.61 30.61 0 0 1 0.26 5.69 30.7 30.7 0 0 1-0.26 5.69z" fill="#263238"/>
 </g>
 <g transform="matrix(1.289 0 0 1.35 427.7 -76.75)">
  <rect x="44.89" y="110.3" width="471.8" height="320.8" fill="#263238"/>
  <rect x="44.89" y="383.8" width="471.8" height="47.32" fill="#dbdbdb"/>
  <rect x="188.8" y="488.9" width="183.9" height="15.36" fill="#c7c7c7"/>
  <polygon transform="translate(-94.24 46)" points="441.2 413.9 441.3 414.8 445 442.9 305 442.9 308.5 416.2 308.7 415 309 412.5 309.2 411.2 309.5 408.7 309.6 408.3 309.7 407.5 310 405 310.2 403.7 312.7 385.1 437.3 385.1 439.6 402.6 439.8 403.5 440.2 406.4 440.3 407.2 440.4 408.3 440.7 410.2 440.8 411" fill="#dbdbdb"/>
  <path d="m288.4 404.2a7.82 7.82 0 1 1-7.82-7.81 7.82 7.82 0 0 1 7.82 7.81z" fill="#37474f"/>
  <polygon transform="translate(-94.24 46)" points="440.4 408.3 310.2 403.7 312.7 385.1 437.3 385.1" fill="#c7c7c7"/>
  <path d="m4.74 69.35h555.7v292.1h-555.7z" fill="#e6f0f4" stroke="#1b2428" stroke-width="9.167"/>
  <path d="m9.173 132.7 0.1474 224.2 208-224.1z" fill="#adc3ad"/>
  <path d="m556 132.7-281.5-0.1147 281.5 224.4z" fill="#adc3ad"/>
  <path d="m9.173 132.7 0.08342-35.44 14.29-3.775 13.58 16.79 13.58-9.383 52.38 2.962 34.92-4.814 13.97 7.776 72.56-7.776 79.16 2.222 42.29-5.554h56.26l23.28 4.814 39.91-4.943 43.43 14.7 36.69-17.31 10.36 2.16 0.0415 37.57z" fill="#4b3d3d"/>
  <g transform="matrix(.3525 0 0 .381 94.08 92.95)">
   <path d="m785 158.1v53.54l18.6-7.916-0.93-50.79z" fill="#6c4a31"/>
   <path d="m785 211.7-11.59-8.684 1.606-41.18 9.984-3.677z" fill="#583c28"/>
   <path d="m762.7 145.1 88.03-26.32v18.35l-88.01 29.48z" fill="#376441"/>
   <path d="m762.7 145.1 4.594-7.527 77.84-22.83 5.59 4.043z" fill="#437e4c"/>
   <path d="m762.7 145.1-35.6-35.34 1.315 18.04 34.3 38.81z" fill="#28462c"/>
   <path d="m727.1 109.8 9.207-0.9329 30.99 28.74-4.594 7.527z" fill="#437e4c"/>
   <path d="m766.9 114.5 0.4126 23.15 74.73-22.35-0.2325-18.69z" fill="#376441"/>
   <path d="m766.9 114.5-31.89-24.57 1.315 18.97 30.99 28.74z" fill="#28462c"/>
   <path d="m735 89.9h8.878l27.13 20.2 64.87-15.94 5.929 2.419-74.91 17.89z" fill="#437e4c"/>
   <path d="m770.7 85.47 0.3488 24.63 62.48-15.89-0.6394-19.95z" fill="#376441"/>
   <path d="m742.7 70.07 1.231 19.82 27.13 20.2-0.3488-24.63z" fill="#28462c"/>
   <path d="m742.7 70.07 9.533-0.6596 22.32 12.09 51.85-9.455 6.51 2.199-62.19 11.21z" fill="#437e4c"/>
   <path d="m774.5 81.51-0.465-25.29 50.22-4.178-0.2325 19.9z" fill="#376441"/>
   <path d="m774.5 81.51-22.32-12.09-0.93-21.66 22.79 8.466z" fill="#28462c"/>
   <path d="m751.3 47.76 9.533 0.1099 16.39 5.827 41.5-3.628 5.58 1.979-50.22 4.178z" fill="#437e4c"/>
   <path d="m777.2 53.69 0.2325-25.07 35.11-0.5497-0.1909 22.55z" fill="#376441"/>
   <path d="m777.4 28.63-17.09-3.078 0.465 22.32 16.39 5.827z" fill="#28462c"/>
   <path d="m760.3 25.55 10.23-0.2199 9.881 1.869 26.65-0.3023 5.435 1.182-35.11 0.5497z" fill="#437e4c"/>
   <path d="m783.8 3.173-0.1163-14.07 11.33 1.264 0.5812 13.69z" fill="#31593a"/>
   <path d="m783.8 3.173-0.1163-14.07-4.248 1.212-0.7614 13.06z" fill="#2d4f31"/>
   <path d="m780.4 27.2 0.1163-25.18 22.79 1.869 0.5812 22.98z" fill="#376441"/>
   <path d="m770.6 25.33 9.881 1.869 0.1163-25.18-10.11 0.3298z" fill="#28462c"/>
  </g>
  <path d="m217.3 132.8 57.12-0.1758 281.5 224.4-546.6-0.044z" fill="#2d2525"/>
  <g transform="matrix(.22 0 0 .2188 185.7 74.09)">
   <path d="m377.1 206.9-6.474 26.17 2.111 46.12 11.54-49.8z" fill="#668963"/>
   <path d="m279.4 218.2 4.486-10.4 83.29-1.801 10.55 10.6z" fill="#8a440f"/>
   <path d="m298.4 204.8-0.7037-39.19c0.0233-3.559 0.7102-9.99 9.852-12.31 2.448-0.4835 37.37-0.8622 40.18-0.2122 2.37 0.105 9.885 7.741 9.782 11.11l-0.1066 36.62c-0.5778 4.663-4.996 10.61-8.057 11.91-6.012 2.569-12.33 4.1-20.13 4.103-13.24-0.226-26.25-0.7637-30.82-12.03z" fill="#80c17c"/>
   <path d="m408.4 296.4 2.431-6.788-37.16 1.698c-0.3198-4.822-0.9925-10.28-1.183 2.798l-0.9279 4.276z" fill="#61825f"/>
   <path d="m384.3 229.4-11.54 49.8 0.9852 12.17 14.64-57.44z" fill="#82a481"/>
   <path d="m276.6 281 5.739 15.13 1.431-6.231c-1.395-26.78-1.739-60.42-4.185-80.33l-2.149 12.42z" fill="#668963"/>
   <path d="m282.4 297.6 0.2815 22.57 6.474 47.68 36.17-1.344 1.054-63.49-40.96-1.364c-1.723-0.1978-2.208-2.751-3.019-4.048z" fill="#b5550f"/>
   <path d="m279.4 218.2 98.33-1.601-5.434 84.07c-0.3285 1.264-0.804 2.222-4.625 2.535-28.02 0.6837-56.04 0.0143-84.06 6e-3 -2.743-0.454-2.202-7.738-2.216-13.38z" fill="#a15016"/>
   <path d="m329.2 303.2 0.3805 76.25 40.21-1.201-2.098-75.07z" fill="#b5550f"/>
   <path d="m329.6 379.5-4.18-14.61 1.002-59.87 2.797-1.77z" fill="#91440c"/>
   <path d="m239.8 207c-2.941 0.1191-5.102 2.268-5.523 6.253l-5.474 65.43c0.1242 3.389 1.569 3.46 2.986 3.602l44.78-1.201c2.433-0.4169 2.829-2.455 2.787-4.402l0.199-67.03c-0.8983-1.613-1.98-3.028-4.578-2.801z" fill="#b1d9af"/>
   <path d="m226.7 292.8c0.9952 2.201 10.15 13.81 10.15 13.81l43.59-1.601-4.379-13.81z" fill="#5b7a59"/>
   <path d="m228.4 282.4-1.692 10.4 49.36-1.601 2.389-10.3z" fill="#70946d"/>
   <path d="m377.1 206.9c-0.0603-1.35 1.501-1.88 3.519-1.839h35.19c2.254-0.0959 2.946 1.064 3.941 1.981l11.4 22.92-4.504 4.527-38.28-0.5659-4.082-4.527z" fill="#b1d9af"/>
   <path d="m388.3 233.9-14.64 57.44 37.16-1.698 15.76-55.18z" fill="#70946d"/>
   <path d="m431.1 230-20.27 59.71 15.76-55.18z" fill="#82a481"/>
   <path d="m314.5 168.8 4.152 1.556c1.629 0.6076 3.218 1.416 4.715 2.688 0.5674 0.3869 0.8894 0.897 1.196 1.415l1.763-0.9561c1.041-0.3269 1.413 0.5443 0.6298 1.451l-1.97 1.415c-0.4705 0.6632-0.4751 1.704-0.4222 2.759-2.322 2.856-5.646 4.077-9.008 5.235-1.292-0.1402-1.308-1.243 0-1.486 4.22-0.6122 6.098-2.692 6.826-3.82-1.18-0.7795-2.068-1.643-2.322-2.688-0.1817-0.9874-0.0735-1.829 0-2.688-1.337-1.321-3.082-2.641-6.263-3.962-0.743-0.7601-0.2714-0.9567 0.7037-0.9196z"/>
   <path d="m330.9 173.1c-0.7762-0.4618-1.316 0.5259-0.9852 0.9196 0.6326 0.6428 1.08 1.265 2.322 1.769-0.3605 1.248-0.2962 2.431 0.2815 3.537 1.579 1.734 4.014 3.552 7.952 4.74 1.276 0.208 1.052-1.06-0.0633-1.327-2.76-0.5012-5.468-2.843-6.121-3.908 1.214-0.4176 2.044-1.046 2.446-2.005 0.3235-1.113 0.1616-1.95 0.4187-3.513 2.045-1.959 4.09-2.982 6.134-4.032 0.7671-0.0934 0.6963-1.547-0.563-0.9904-2.531 0.9336-4.991 2.298-7.389 4.032-0.9122 0.7449-1.688 1.399-2.463 2.052-1.047-0.3068-1.339-0.8411-1.97-1.273z"/>
   <path d="m316.6 200.1c1.925-2.942 3.842-5.889 10.34-6.438 5.228 0.0847 10.36 0.2958 13.02 3.891 1.608 2.374 1.984 5.636-1.9 6.579-2.872 0.0227-3.77-1.707-4.715-1.839-2.568-0.1821-5.16-0.1849-7.794 0.0993-1.582 0.2429-3.352 1.252-4.802 2.023-4.21-0.2249-4.763-2.976-4.152-4.315z"/>
   <path d="m314.7 201.9c0.0592 1.209-0.3063 2.263 0.7037 3.82 1.11 0.681 2.048 1.427 3.87 1.839 0.9593-0.4352 0.3354-0.9333-0.387-1.556-0.9645-0.448-1.464-0.8961-2.076-1.344-1.258-0.7016-1.264-2.09-1.548-3.325-0.3746 7e-4 -0.6536 0.0975-0.563 0.5659z"/>
   <path d="m338.9 205.8c1.361-0.6614 2.26-1.787 3.241-2.829 0.7242-0.6458 1.373 0.0411 0.5587 1.273l-3.403 2.992c-0.5548 0.3462-1.662-0.707-0.3974-1.436z"/>
   <path d="m280.5 305 1.858-8.876-3.848-15.23-2.389 10.3z" fill="#61825f"/>
  </g>
  <g transform="matrix(.4129 0 0 .4301 9.436 81.65)">
   <path d="m400.2 132.6v38.61l11.06-8.458 0.1595-33.88z" fill="#6c4a31"/>
   <path d="m400.2 171.3-7.647-5.911 0.0583-30.8 7.589-1.902z" fill="#583c28"/>
   <path d="m386.1 123.3 55.89-18.98v13.23l-55.88 21.26z" fill="#376441"/>
   <path d="m386.1 123.3 2.917-5.428 49.42-16.47 3.549 2.915z" fill="#437e4c"/>
   <path d="m386.1 123.3-22.61-25.48 0.835 13.01 21.78 27.99z" fill="#28462c"/>
   <path d="m363.5 97.79 5.845-0.6727 19.68 20.73-2.917 5.428z" fill="#437e4c"/>
   <path d="m388.7 101.2 0.262 16.69 47.45-16.12-0.1476-13.48z" fill="#376441"/>
   <path d="m388.7 101.2-20.25-17.72 0.8351 13.68 19.68 20.73z" fill="#28462c"/>
   <path d="m368.5 83.44h5.637l17.23 14.56 41.19-11.5 3.764 1.744-47.56 12.9z" fill="#437e4c"/>
   <path d="m391.1 80.24 0.2214 17.76 39.67-11.46-0.4059-14.39z" fill="#376441"/>
   <path d="m373.3 69.14 0.7818 14.3 17.23 14.56-0.2214-17.76z" fill="#28462c"/>
   <path d="m373.3 69.14 6.052-0.4757 14.17 8.721 32.92-6.818 4.133 1.586-39.49 8.087z" fill="#437e4c"/>
   <path d="m393.6 77.39-0.2952-18.23 31.89-3.013-0.1476 14.35z" fill="#376441"/>
   <path d="m393.6 77.39-14.17-8.721-0.5905-15.62 14.47 6.105z" fill="#28462c"/>
   <path d="m378.8 53.05 6.052 0.07928 10.41 4.202 26.35-2.616 3.543 1.427-31.89 3.013z" fill="#437e4c"/>
   <path d="m395.3 57.33 0.1476-18.08 22.29-0.3964-0.1212 16.26z" fill="#376441"/>
   <path d="m395.4 39.25-10.85-2.22 0.2952 16.09 10.41 4.202z" fill="#28462c"/>
   <path d="m384.6 37.03 6.495-0.1586 6.274 1.348 16.92-0.218 3.451 0.8523-22.29 0.3964z" fill="#437e4c"/>
   <path d="m399.5 20.9-0.0738-10.15 7.196 0.9117 0.369 9.871z" fill="#31593a"/>
   <path d="m399.5 20.9-0.0738-10.15-2.697 0.8739-0.4834 9.417z" fill="#2d4f31"/>
   <path d="m397.3 38.22 0.0738-18.16 14.47 1.348 0.369 16.57z" fill="#376441"/>
   <path d="m391.1 36.87 6.274 1.348 0.0738-18.16-6.421 0.2378z" fill="#28462c"/>
  </g>
  <g transform="matrix(.2843 0 0 .2834 115.7 75.86)">
   <path d="m377.1 206.9-6.474 26.17 2.111 46.12 11.54-49.8z" fill="#668963"/>
   <path d="m279.4 218.2 4.486-10.4 83.29-1.801 10.55 10.6z" fill="#8a440f"/>
   <path d="m298.4 204.8-0.7037-39.19c0.0233-3.559 0.7102-9.99 9.852-12.31 2.448-0.4835 37.37-0.8622 40.18-0.2122 2.37 0.105 9.885 7.741 9.782 11.11l-0.1066 36.62c-0.5778 4.663-4.996 10.61-8.057 11.91-6.012 2.569-12.33 4.1-20.13 4.103-13.24-0.226-26.25-0.7637-30.82-12.03z" fill="#80c17c"/>
   <path d="m408.4 296.4 2.431-6.788-37.16 1.698c-0.3198-4.822-0.9925-10.28-1.183 2.798l-0.9279 4.276z" fill="#61825f"/>
   <path d="m384.3 229.4-11.54 49.8 0.9852 12.17 14.64-57.44z" fill="#82a481"/>
   <path d="m276.6 281 5.739 15.13 1.431-6.231c-1.395-26.78-1.739-60.42-4.185-80.33l-2.149 12.42z" fill="#668963"/>
   <path d="m282.4 297.6 0.2815 22.57 6.474 47.68 36.17-1.344 1.054-63.49-40.96-1.364c-1.723-0.1978-2.208-2.751-3.019-4.048z" fill="#b5550f"/>
   <path d="m279.4 218.2 98.33-1.601-5.434 84.07c-0.3285 1.264-0.804 2.222-4.625 2.535-28.02 0.6837-56.04 0.0143-84.06 6e-3 -2.743-0.454-2.202-7.738-2.216-13.38z" fill="#a15016"/>
   <path d="m329.2 303.2 0.3805 76.25 40.21-1.201-2.098-75.07z" fill="#b5550f"/>
   <path d="m329.6 379.5-4.18-14.61 1.002-59.87 2.797-1.77z" fill="#91440c"/>
   <path d="m239.8 207c-2.941 0.1191-5.102 2.268-5.523 6.253l-5.474 65.43c0.1242 3.389 1.569 3.46 2.986 3.602l44.78-1.201c2.433-0.4169 2.829-2.455 2.787-4.402l0.199-67.03c-0.8983-1.613-1.98-3.028-4.578-2.801z" fill="#b1d9af"/>
   <path d="m226.7 292.8c0.9952 2.201 10.15 13.81 10.15 13.81l43.59-1.601-4.379-13.81z" fill="#5b7a59"/>
   <path d="m228.4 282.4-1.692 10.4 49.36-1.601 2.389-10.3z" fill="#70946d"/>
   <path d="m377.1 206.9c-0.0603-1.35 1.501-1.88 3.519-1.839h35.19c2.254-0.0959 2.946 1.064 3.941 1.981l11.4 22.92-4.504 4.527-38.28-0.5659-4.082-4.527z" fill="#b1d9af"/>
   <path d="m388.3 233.9-14.64 57.44 37.16-1.698 15.76-55.18z" fill="#70946d"/>
   <path d="m431.1 230-20.27 59.71 15.76-55.18z" fill="#82a481"/>
   <path d="m314.5 168.8 4.152 1.556c1.629 0.6076 3.218 1.416 4.715 2.688 0.5674 0.3869 0.8894 0.897 1.196 1.415l1.763-0.9561c1.041-0.3269 1.413 0.5443 0.6298 1.451l-1.97 1.415c-0.4705 0.6632-0.4751 1.704-0.4222 2.759-2.322 2.856-5.646 4.077-9.008 5.235-1.292-0.1402-1.308-1.243 0-1.486 4.22-0.6122 6.098-2.692 6.826-3.82-1.18-0.7795-2.068-1.643-2.322-2.688-0.1817-0.9874-0.0735-1.829 0-2.688-1.337-1.321-3.082-2.641-6.263-3.962-0.743-0.7601-0.2714-0.9567 0.7037-0.9196z"/>
   <path d="m330.9 173.1c-0.7762-0.4618-1.316 0.5259-0.9852 0.9196 0.6326 0.6428 1.08 1.265 2.322 1.769-0.3605 1.248-0.2962 2.431 0.2815 3.537 1.579 1.734 4.014 3.552 7.952 4.74 1.276 0.208 1.052-1.06-0.0633-1.327-2.76-0.5012-5.468-2.843-6.121-3.908 1.214-0.4176 2.044-1.046 2.446-2.005 0.3235-1.113 0.1616-1.95 0.4187-3.513 2.045-1.959 4.09-2.982 6.134-4.032 0.7671-0.0934 0.6963-1.547-0.563-0.9904-2.531 0.9336-4.991 2.298-7.389 4.032-0.9122 0.7449-1.688 1.399-2.463 2.052-1.047-0.3068-1.339-0.8411-1.97-1.273z"/>
   <path d="m316.6 200.1c1.925-2.942 3.842-5.889 10.34-6.438 5.228 0.0847 10.36 0.2958 13.02 3.891 1.608 2.374 1.984 5.636-1.9 6.579-2.872 0.0227-3.77-1.707-4.715-1.839-2.568-0.1821-5.16-0.1849-7.794 0.0993-1.582 0.2429-3.352 1.252-4.802 2.023-4.21-0.2249-4.763-2.976-4.152-4.315z"/>
   <path d="m314.7 201.9c0.0592 1.209-0.3063 2.263 0.7037 3.82 1.11 0.681 2.048 1.427 3.87 1.839 0.9593-0.4352 0.3354-0.9333-0.387-1.556-0.9645-0.448-1.464-0.8961-2.076-1.344-1.258-0.7016-1.264-2.09-1.548-3.325-0.3746 7e-4 -0.6536 0.0975-0.563 0.5659z"/>
   <path d="m338.9 205.8c1.361-0.6614 2.26-1.787 3.241-2.829 0.7242-0.6458 1.373 0.0411 0.5587 1.273l-3.403 2.992c-0.5548 0.3462-1.662-0.707-0.3974-1.436z"/>
   <path d="m280.5 305 1.858-8.876-3.848-15.23-2.389 10.3z" fill="#61825f"/>
  </g>
  <g transform="matrix(.2843 0 0 .2769 144.8 79.43)">
   <path d="m377.1 206.9-6.474 26.17 2.111 46.12 11.54-49.8z" fill="#668963"/>
   <path d="m279.4 218.2 4.486-10.4 83.29-1.801 10.55 10.6z" fill="#8a440f"/>
   <path d="m298.4 204.8-0.7037-39.19c0.0233-3.559 0.7102-9.99 9.852-12.31 2.448-0.4835 37.37-0.8622 40.18-0.2122 2.37 0.105 9.885 7.741 9.782 11.11l-0.1066 36.62c-0.5778 4.663-4.996 10.61-8.057 11.91-6.012 2.569-12.33 4.1-20.13 4.103-13.24-0.226-26.25-0.7637-30.82-12.03z" fill="#80c17c"/>
   <path d="m408.4 296.4 2.431-6.788-37.16 1.698c-0.3198-4.822-0.9925-10.28-1.183 2.798l-0.9279 4.276z" fill="#61825f"/>
   <path d="m384.3 229.4-11.54 49.8 0.9852 12.17 14.64-57.44z" fill="#82a481"/>
   <path d="m276.6 281 5.739 15.13 1.431-6.231c-1.395-26.78-1.739-60.42-4.185-80.33l-2.149 12.42z" fill="#668963"/>
   <path d="m282.4 297.6 0.2815 22.57 6.474 47.68 36.17-1.344 1.054-63.49-40.96-1.364c-1.723-0.1978-2.208-2.751-3.019-4.048z" fill="#b5550f"/>
   <path d="m279.4 218.2 98.33-1.601-5.434 84.07c-0.3285 1.264-0.804 2.222-4.625 2.535-28.02 0.6837-56.04 0.0143-84.06 6e-3 -2.743-0.454-2.202-7.738-2.216-13.38z" fill="#a15016"/>
   <path d="m329.2 303.2 0.3805 76.25 40.21-1.201-2.098-75.07z" fill="#b5550f"/>
   <path d="m329.6 379.5-4.18-14.61 1.002-59.87 2.797-1.77z" fill="#91440c"/>
   <path d="m239.8 207c-2.941 0.1191-5.102 2.268-5.523 6.253l-5.474 65.43c0.1242 3.389 1.569 3.46 2.986 3.602l44.78-1.201c2.433-0.4169 2.829-2.455 2.787-4.402l0.199-67.03c-0.8983-1.613-1.98-3.028-4.578-2.801z" fill="#b1d9af"/>
   <path d="m226.7 292.8c0.9952 2.201 10.15 13.81 10.15 13.81l43.59-1.601-4.379-13.81z" fill="#5b7a59"/>
   <path d="m228.4 282.4-1.692 10.4 49.36-1.601 2.389-10.3z" fill="#70946d"/>
   <path d="m377.1 206.9c-0.0603-1.35 1.501-1.88 3.519-1.839h35.19c2.254-0.0959 2.946 1.064 3.941 1.981l11.4 22.92-4.504 4.527-38.28-0.5659-4.082-4.527z" fill="#b1d9af"/>
   <path d="m388.3 233.9-14.64 57.44 37.16-1.698 15.76-55.18z" fill="#70946d"/>
   <path d="m431.1 230-20.27 59.71 15.76-55.18z" fill="#82a481"/>
   <path d="m314.5 168.8 4.152 1.556c1.629 0.6076 3.218 1.416 4.715 2.688 0.5674 0.3869 0.8894 0.897 1.196 1.415l1.763-0.9561c1.041-0.3269 1.413 0.5443 0.6298 1.451l-1.97 1.415c-0.4705 0.6632-0.4751 1.704-0.4222 2.759-2.322 2.856-5.646 4.077-9.008 5.235-1.292-0.1402-1.308-1.243 0-1.486 4.22-0.6122 6.098-2.692 6.826-3.82-1.18-0.7795-2.068-1.643-2.322-2.688-0.1817-0.9874-0.0735-1.829 0-2.688-1.337-1.321-3.082-2.641-6.263-3.962-0.743-0.7601-0.2714-0.9567 0.7037-0.9196z"/>
   <path d="m330.9 173.1c-0.7762-0.4618-1.316 0.5259-0.9852 0.9196 0.6326 0.6428 1.08 1.265 2.322 1.769-0.3605 1.248-0.2962 2.431 0.2815 3.537 1.579 1.734 4.014 3.552 7.952 4.74 1.276 0.208 1.052-1.06-0.0633-1.327-2.76-0.5012-5.468-2.843-6.121-3.908 1.214-0.4176 2.044-1.046 2.446-2.005 0.3235-1.113 0.1616-1.95 0.4187-3.513 2.045-1.959 4.09-2.982 6.134-4.032 0.7671-0.0934 0.6963-1.547-0.563-0.9904-2.531 0.9336-4.991 2.298-7.389 4.032-0.9122 0.7449-1.688 1.399-2.463 2.052-1.047-0.3068-1.339-0.8411-1.97-1.273z"/>
   <path d="m316.6 200.1c1.925-2.942 3.842-5.889 10.34-6.438 5.228 0.0847 10.36 0.2958 13.02 3.891 1.608 2.374 1.984 5.636-1.9 6.579-2.872 0.0227-3.77-1.707-4.715-1.839-2.568-0.1821-5.16-0.1849-7.794 0.0993-1.582 0.2429-3.352 1.252-4.802 2.023-4.21-0.2249-4.763-2.976-4.152-4.315z"/>
   <path d="m314.7 201.9c0.0592 1.209-0.3063 2.263 0.7037 3.82 1.11 0.681 2.048 1.427 3.87 1.839 0.9593-0.4352 0.3354-0.9333-0.387-1.556-0.9645-0.448-1.464-0.8961-2.076-1.344-1.258-0.7016-1.264-2.09-1.548-3.325-0.3746 7e-4 -0.6536 0.0975-0.563 0.5659z"/>
   <path d="m338.9 205.8c1.361-0.6614 2.26-1.787 3.241-2.829 0.7242-0.6458 1.373 0.0411 0.5587 1.273l-3.403 2.992c-0.5548 0.3462-1.662-0.707-0.3974-1.436z"/>
   <path d="m280.5 305 1.858-8.876-3.848-15.23-2.389 10.3z" fill="#61825f"/>
  </g>
  <g transform="matrix(.3346 0 0 .3496 183.1 64.98)">
   <path d="m377.1 206.9-6.474 26.17 2.111 46.12 11.54-49.8z" fill="#668963"/>
   <path d="m279.4 218.2 4.486-10.4 83.29-1.801 10.55 10.6z" fill="#8a440f"/>
   <path d="m298.4 204.8-0.7037-39.19c0.0233-3.559 0.7102-9.99 9.852-12.31 2.448-0.4835 37.37-0.8622 40.18-0.2122 2.37 0.105 9.885 7.741 9.782 11.11l-0.1066 36.62c-0.5778 4.663-4.996 10.61-8.057 11.91-6.012 2.569-12.33 4.1-20.13 4.103-13.24-0.226-26.25-0.7637-30.82-12.03z" fill="#80c17c"/>
   <path d="m408.4 296.4 2.431-6.788-37.16 1.698c-0.3198-4.822-0.9925-10.28-1.183 2.798l-0.9279 4.276z" fill="#61825f"/>
   <path d="m384.3 229.4-11.54 49.8 0.9852 12.17 14.64-57.44z" fill="#82a481"/>
   <path d="m276.6 281 5.739 15.13 1.431-6.231c-1.395-26.78-1.739-60.42-4.185-80.33l-2.149 12.42z" fill="#668963"/>
   <path d="m282.4 297.6 0.2815 22.57 6.474 47.68 36.17-1.344 1.054-63.49-40.96-1.364c-1.723-0.1978-2.208-2.751-3.019-4.048z" fill="#b5550f"/>
   <path d="m279.4 218.2 98.33-1.601-5.434 84.07c-0.3285 1.264-0.804 2.222-4.625 2.535-28.02 0.6837-56.04 0.0143-84.06 6e-3 -2.743-0.454-2.202-7.738-2.216-13.38z" fill="#a15016"/>
   <path d="m329.2 303.2 0.3805 76.25 40.21-1.201-2.098-75.07z" fill="#b5550f"/>
   <path d="m329.6 379.5-4.18-14.61 1.002-59.87 2.797-1.77z" fill="#91440c"/>
   <path d="m239.8 207c-2.941 0.1191-5.102 2.268-5.523 6.253l-5.474 65.43c0.1242 3.389 1.569 3.46 2.986 3.602l44.78-1.201c2.433-0.4169 2.829-2.455 2.787-4.402l0.199-67.03c-0.8983-1.613-1.98-3.028-4.578-2.801z" fill="#b1d9af"/>
   <path d="m226.7 292.8c0.9952 2.201 10.15 13.81 10.15 13.81l43.59-1.601-4.379-13.81z" fill="#5b7a59"/>
   <path d="m228.4 282.4-1.692 10.4 49.36-1.601 2.389-10.3z" fill="#70946d"/>
   <path d="m377.1 206.9c-0.0603-1.35 1.501-1.88 3.519-1.839h35.19c2.254-0.0959 2.946 1.064 3.941 1.981l11.4 22.92-4.504 4.527-38.28-0.5659-4.082-4.527z" fill="#b1d9af"/>
   <path d="m388.3 233.9-14.64 57.44 37.16-1.698 15.76-55.18z" fill="#70946d"/>
   <path d="m431.1 230-20.27 59.71 15.76-55.18z" fill="#82a481"/>
   <path d="m314.5 168.8 4.152 1.556c1.629 0.6076 3.218 1.416 4.715 2.688 0.5674 0.3869 0.8894 0.897 1.196 1.415l1.763-0.9561c1.041-0.3269 1.413 0.5443 0.6298 1.451l-1.97 1.415c-0.4705 0.6632-0.4751 1.704-0.4222 2.759-2.322 2.856-5.646 4.077-9.008 5.235-1.292-0.1402-1.308-1.243 0-1.486 4.22-0.6122 6.098-2.692 6.826-3.82-1.18-0.7795-2.068-1.643-2.322-2.688-0.1817-0.9874-0.0735-1.829 0-2.688-1.337-1.321-3.082-2.641-6.263-3.962-0.743-0.7601-0.2714-0.9567 0.7037-0.9196z"/>
   <path d="m330.9 173.1c-0.7762-0.4618-1.316 0.5259-0.9852 0.9196 0.6326 0.6428 1.08 1.265 2.322 1.769-0.3605 1.248-0.2962 2.431 0.2815 3.537 1.579 1.734 4.014 3.552 7.952 4.74 1.276 0.208 1.052-1.06-0.0633-1.327-2.76-0.5012-5.468-2.843-6.121-3.908 1.214-0.4176 2.044-1.046 2.446-2.005 0.3235-1.113 0.1616-1.95 0.4187-3.513 2.045-1.959 4.09-2.982 6.134-4.032 0.7671-0.0934 0.6963-1.547-0.563-0.9904-2.531 0.9336-4.991 2.298-7.389 4.032-0.9122 0.7449-1.688 1.399-2.463 2.052-1.047-0.3068-1.339-0.8411-1.97-1.273z"/>
   <path d="m316.6 200.1c1.925-2.942 3.842-5.889 10.34-6.438 5.228 0.0847 10.36 0.2958 13.02 3.891 1.608 2.374 1.984 5.636-1.9 6.579-2.872 0.0227-3.77-1.707-4.715-1.839-2.568-0.1821-5.16-0.1849-7.794 0.0993-1.582 0.2429-3.352 1.252-4.802 2.023-4.21-0.2249-4.763-2.976-4.152-4.315z"/>
   <path d="m314.7 201.9c0.0592 1.209-0.3063 2.263 0.7037 3.82 1.11 0.681 2.048 1.427 3.87 1.839 0.9593-0.4352 0.3354-0.9333-0.387-1.556-0.9645-0.448-1.464-0.8961-2.076-1.344-1.258-0.7016-1.264-2.09-1.548-3.325-0.3746 7e-4 -0.6536 0.0975-0.563 0.5659z"/>
   <path d="m338.9 205.8c1.361-0.6614 2.26-1.787 3.241-2.829 0.7242-0.6458 1.373 0.0411 0.5587 1.273l-3.403 2.992c-0.5548 0.3462-1.662-0.707-0.3974-1.436z"/>
   <path d="m280.5 305 1.858-8.876-3.848-15.23-2.389 10.3z" fill="#61825f"/>
  </g>
  <path d="m282.5 172.5-2.993 12.39 0.9758 21.83 5.335-23.57z" fill="#668963"/>
  <path d="m237.3 177.9 2.073-4.923 38.5-0.8521 4.876 5.018z" fill="#8a440f"/>
  <path d="m250.8 147.7c0.3662 0.8335 3.736 5.229 3.736 5.229l16.04-0.6062-1.612-5.229z" fill="#5b7a59"/>
  <path d="m246.1 171.5-0.3253-18.54c0.0109-1.684 0.3283-4.727 4.554-5.825 1.131-0.2288 17.27-0.408 18.57-0.1004 1.096 0.0497 4.569 3.663 4.521 5.255l-0.0493 17.33c-0.2671 2.206-2.309 5.022-3.724 5.637-2.779 1.215-5.7 1.94-9.303 1.942-6.122-0.1069-12.13-0.3614-14.25-5.691z" fill="#80c17c"/>
  <g transform="matrix(.7114 0 0 .6948 -159.8 86.2)">
   <path d="m768.8 322.3c1.389-1.444-2.733 1.331-3.326 3.441l-0.6493 10.21c0.5339 6.521 1.714 13.04 4.383 19.56 2.149 4.803 3.103 9.397 8.684 14.8 2.743 2.422 6.221 5.275 10.88 6.294 5.066 1.303 10.56-0.2611 13.42-2.751 3.922-3.415 6.283-6.483 6.873-10.35 1.027-5.807 0.8874-11.82 0.0812-17.95l-0.2435-3.402-32.71 3.402z" fill="#6fa196"/>
   <path d="m832.3 311.2c-0.3737 5.417-0.4942 11.01-2.106 15.56-7.243 5.803-14.18 11.67-22.44 17.26-0.976 1.283-1.447 2.566-1.779 3.849-1.367 2.948-3.009 5.321-5.452 6.014-7.078 3.387-13.65 2.259-20.32 1.985-7.002-2.621-7.427-8.306-8.838-13.53-1.644-6.816-2.162-13.44-2.525-20.03 5.669-7.446 15.11-7.417 22.68-11.11z" fill="#34342e"/>
   <path d="m856.7 305s-8.531-26.31 3.769-25.85c12.3 0.4674 19.3 0.2268 19.3 0.2268l10.24 22.57c3.811 10.84 7.618 25.06 9.739 43.89 3.397 11.21 5.874 21.14 11.69 35.72l11.36 24.5-39.93 13.95z" fill="#34342e"/>
   <path d="m824.1 173.1 1.954 6.251c4.79 4.54 10.15 11.82 20.06 10.27 4.741-0.3823 8.925-2.217 14.51-15.03l-3.128-6.059c-5.828 4.09-16.33 5.921-33.4 4.571z" fill="#bd9e4d"/>
   <path d="m823.6 170.2c14.13 0.119 23.5-0.9147 33.87-1.705-5.637 5.652-29.04 5.234-33.4 4.571z" fill="#fff"/>
   <path d="m826 179.3c9.262 11.03 26.83 15.56 33.46-2.402l7.805 24.3 2.181 29.83c-1.862 19.1-3.483 38.57-5.911 56.77-2.668 5.556-5.185 14.5-6.887 17.2-9.187 3.197-16.79 4.395-24.68 4.872 0.7629-24.29 2.066-48.42 0.8034-73.31-0.8821-19.09-4.192-38.17-6.769-57.26z" fill="#1da8d6" style="mix-blend-mode:normal"/>
   <path d="m787.2 150.4c-6.269 10.35-13.13 17.26-23.89 21.06-10.25 4.598-21.79 7.378-30.42 14.24-3.036 2.826-2.799 5.653-3.236 8.479l4.905 35.89c1.767-2.288 10.42-15.46 41.67-20.77l15.24 101.9h40.78c2.078-33.01 2.869-66.02 0.648-99.03-0.2474-18.19-4.87-29.96-9.311-41.99-6.017 1.437-29.86-16.11-36.38-19.77z" fill="#464874"/>
   <path d="m823.6 170.2c-9.254 1.127-38.91-15.36-38.85-21.71-0.175-13.9-1.036-28.21-0.0589-42.12l8.738-0.0848 6.473-11.79-0.9709-16.28c11-2.1 22.01-4.48 33.01-0.6783l12.3 7.461 17.48-5.766 10.68 0.3392c0.8293 27.02 0.1208 55.32-0.9709 77.33-0.9766 4.046-1.862 8.796-10.19 10.99-12.45 0.9171-24.6 2.607-37.64 2.295z" fill="#bd9e4d"/>
   <path d="m793.1 113.5-0.6473-6.02c-1.356 1.892-2.168 3.88-5.987 5.342-5.31-0.7304-6.061-3.372-7.201-5.85-3.114 1.289-5.163 0.0627-6.553-2.713-0.5975-6.016-9e-3 -11.7 1.682-17.08l4.119-11.75c0.3335-5.12 1.577-10.38 4.92-15.95l8.467-8.274c5.043-2.477 9.625-6.159 15.45-6.595 1.55-3.48 2.912-6.992 9.497-9.593 6.881-3.693 13.68-7.717 21.4-7.914l7.094 1.799c3.633-3.872 7.865-6.175 12.36-7.794 5.718-0.8873 6.809 0.8774 6.98 3.118-0.3814 3.158-0.7628 6.031-1.144 9.593 1.146 2.852 2.776 5.299 6.064 6.355 2.507 1.439 6.695 2.878 11.79 4.317l21.4-2.398c-5.294 7.659-9.386 19.52-15.9 22.9l-7.895 1.319c0.0539 4.415 0.8981 9.107-2.746 12.23 4.07 8.082 4.623 10.98 1.736 25.51l-4.711 18.73-0.863-43.21c-15.18 1.16-6.713-2.645-20.99 5.557-6.102 2.918-12.88-3.751-19.46-7.592-10.82-1.276-21.88-0.586-33.01 0.6783 6.055 7.567-0.4093 22.46-5.825 35.27z" fill="#334473"/>
   <ellipse cx="840.3" cy="93.59" rx="2.913" ry="8.903" fill="#010002"/>
   <ellipse cx="856.7" cy="94.25" rx="2.309" ry="8.171" fill="#010002"/>
   <path d="m857.7 154.8-22.31-21.58 4.09-2.668 12.33-2.578 9.182-0.3897v13.97l3.604 11.93-0.0858 3.058z" fill="#76201f"/>
   <path d="m835.4 133.2 5.835 0.5396 1.487-1.019 9.897 3.897-4.176 9.952-13.5 2.638-6.865 1.679z" fill="#211613"/>
   <path d="m838.5 130.2 6.534-6.214 11.12-3.476 3.034 1.017 1.82 6.035z" fill="#fff"/>
   <path d="m825.2 162.8-1.058-2.098c1.595-5.711 3.506-11.36 5.864-16.91 2.056-6.18 4.551-12.22 10.07-17.3 3.687-3.041 7.886-5.617 13.84-6.595 4.293-0.3438 8.475-0.4784 12.01 0.5995l-0.3433 1.319c-3.462-0.6596-7.179-0.6991-11.1-0.2398-4.477 1.182-8.925 2.42-12.36 5.636-3.954 3.339-7.442 7.791-9.726 15.11-2.751 7.007-5.065 13.79-7.208 20.47z" fill="#10030a"/>
   <path d="m858.1 121.2 2.174 5.336c-7.547 0.4802-14.7 1.272-21.8 3.657l-1.888 2.098c7.86-2.723 15.53-4.132 25.74-4.317-1.058-3.426-1.949-5.271-2.86-7.314z" fill="#10030a"/>
   <path d="m828.3 152.2 8.295-2.878 17.51-3.414 5.027 0.5366-1.43 8.394-11.53-1.619c-7.134 0.1135-12.44 3.504-18.62 5.336l-1.552-0.0457z" fill="#fff"/>
   <path d="m825.7 160.7c6.891-3.839 16.5-6.89 18.57-7.036 3.51-0.2495 6.703 0.3863 9.897 1.019 3.096 1.047 6.132 2.727 9.325 2.758 3.343 0.2526 2.563-1.721 2.517-3.297-1.804-5.164-4.753-13.24-4.748-14.21 0.0156-4.072-0.0883-8.145 0.4343-12.22l-1.638 0.0212c-0.2527 3.621-0.3259 7.305-0.1214 11.09 0.3824 2.579 0.75 5.137 2.71 9.92 0.7791 1.874 1.324 4.665 1.355 5.278 0.0247 0.4793 0.5145 2.35-1.719 1.823l-9.628-2.84c-4.128-0.6433-8.08-0.6422-11.81 0.1272-5.16 1.064-10.01 3.259-14.89 5.342z" fill="#10030a"/>
   <path d="m857.7 154.8c1.267-2.257 1.951-4.881 2.46-7.614 0.1175-2.733-2.349-2.15-3.833-2.218-9.401 1.359-15.26 2.062-27.17 5.336l-0.8582 1.859 12.87-3.597c4.3-0.5889 8.555-1.441 12.81-2.278 1.82 0.0115 3.701-0.0417 4.634 0.8993 0.2398 0.7055-0.4641 4.643-1.659 7.195z" fill="#10030a"/>
   <path d="m841 137.9c0.4579 0.6112 0.8893 1.256 0.9726 2.338 0.3528 1.659 1.177 3.198 2.574 4.826 1.205 1.415 2.243 2.986 5.263 2.728 3.303-0.7584 5.588-1.877 6.007-3.657 1.142-3.848-1.076-6.386-3.118-8.993-2.099-2.098-3.97-4.455-8.724-3.537-1.078 0.429-1.235 0.789-1.259 1.139 1.109 1.248 2.4 2.419 3.89 3.507 0.1571 0.1724-0.0694 0.481-0.3432 0.2398-1.319-1.375-2.677-2.65-4.148-3.627-1.378 0.0208-1.88-0.2067-4.348 0.2398-1.655 0.2994-2.478 2.282-2.288 2.428 0.0578 1.537 0.4659 3.331 2.088 3.208 0.9833-0.0751 1.872-0.952 3.433-0.8394z" fill="#a52823"/>
   <path d="m734.6 230.1 3.776 19.43 20.6 43.65 1.144-15.11 9.154-12.47 13.27-11.51 26.09-11.75-19.91-18.47-6.064-15.47c-9.113 0.9064-18.09 0.9727-27.35 2.758-4.906 0.8019-14.06 6.917-19.45 12.47-1.607 1.655-1.602 4.71-1.259 6.475z" fill="#b3965a"/>
   <path d="m758.9 293.2c2.507 2.908 7.555 4.928 13.27 6.715l35.7-31.9 0.6865-25.66c-16.57 6.676-29.03 10.46-39.36 23.26-3.231 4.004-5.982 8.272-9.154 12.47-1.985 4.897-2.056 9.733-1.144 15.11z" fill="#d8bd76"/>
   <path d="m806.7 266.7 27.92 6.543c-0.2024 6.515-0.7729 14.64-2.235 21.16-4.24 3.883-8.859 7.298-15.45 8.274l-11.79-8.514-1.373-17.99z" fill="#a9966f"/>
   <path d="m818.4 296.1-2.288 38.85c-0.8923 2.458-3.159 4.252-8.009 4.796-12.08 0.2635-22.97-1.431-30.21-9.113-4.188-3.085-6.642-7.148-6.865-12.47-0.456-12.54-0.5131-23.41-0.6865-34.77 2.362 6.573 8.438 11.07 15.33 15.11 21.16 6.748 27.05 2.051 32.72-2.398z" fill="#d4ba70"/>
   <path d="m806.7 266.7 0.5149 22.18-14.3 4.557-11.9-13.31z" fill="#cfb362"/>
   <path d="m818.4 296.1c-6.792 9.026-24.86 5.337-32.72 2.398-8.868-4.781-19.51-12.99-13.04-23.74 4.732-6.189 9.68-12.31 21.28-16.31 8.254-2.976 16.08-3.807 23.11-0.7195 5.525 2.762 10.65 4.033 17.62 12.23 2.331 2.679-0.7242 5.671-3.661 5.036l-24.31-8.274-17.79 15.23c9.535 4.876 31.52 9.379 29.52 14.15z" fill="#e8dba0"/>
   <path d="m934.4 279.6c-3.415 2.99-6.788 6.054-10.83 7.945-13.89-5.074-13.9-11.94-12.73-19.68 4.927-4.252 9.263-9.228 15.99-13.2 4.62-2.732 9.182-3.479 13.99-3.735 4.383-0.2338 9.225 2.859 9.225 2.859l-13.25 21.88c-5.811-2.568-2.372 2.018-2.383 3.936z" fill="#e8dba0"/>
   <path d="m939.1 276.8-6.899-1.361-1.136-14.37 25.36 2.947z" fill="#dcc17a"/>
   <path d="m933 279.4c-5.578-3.733-9.651-7.766-7.724-18.47 1.444-4.598 11.37-9.602 17.22-9.382 10.96 1.582 14.42 7.363 18.13 12.51 2.402 5.815 6.16 11.41 0.6886 18.52-2.949 4.141-4.81 3.341-4.443-1.021l-0.4591-17.56-22.73-2.406 1.306 17.47c-0.3478 0.4617-0.6482 0.9758-1.995 0.336z" fill="#ab8c4f"/>
   <path d="m939.1 276.8 17.33-12.79 1.176 21.29c-4.725 2.347-11.01 6.365-18.42 8.165z" fill="#ccb15e"/>
   <path d="m889.4 216.1 26.4 38.73c7.777-4.135 16.9-5.949 26.31-7.499-5.42-11.06-17.64-22.11-26.46-33.17l-5.357-11.65z" fill="#b3965a"/>
   <path d="m915.8 254.9-13.77 10.34c-10.46-7.245-15.07-20.61-22.61-30.91 1.671-7.617 4.033-14.58 9.986-18.16 9.15 12.73 17.9 25.66 26.4 38.73z" fill="#bfa862"/>
   <path d="m902 265.2 11.87-0.4288 9.079-7.364 19.61-6.733-0.487-3.317c-9.416 1.481-18.6 3.331-26.31 7.499z" fill="#d8bd76"/>
   <path d="m910.3 202.5c-5.015-16.15-7.488-31.66-25.25-38.13-4.614-1.844-9.58-2.766-14.81-3.007-1.189 3.704-6.617 6.187-8.979 6.507l-3.762 0.5895c3.429 15.31 8.661 29.57 9.641 46.31-0.4107 9.086-0.6811 18.15-2.869 27.55-1.377 13.95-3.306 30.31-0.6887 45.47 2.173-2.634 3.902-4.795 8.608-6.736 1.741-0.5935 4.816-0.7457 7.575-1.684-4.056-11.66-2.783-23.27-3.119-34.32 0.8949-5.814 3.342-10.19 4.261-16.08 4.916-12.92 18.01-19.02 29.39-26.46z" fill="#464874"/>
   <path d="m856.7 305c5.024 19.51 10.45 37.13 15.1 57.42 4.173 18.23 7.623 39.09 11.07 57.58-4.308-0.6741-7.524-0.6116-15.66-4.062-1.724-22.37-3.875-44.83-8.844-64.42l-13.81-43.79z" fill="#3c3d39"/>
   <path d="m866.8 412.5 1.9 23.08c2.204 1.983 22.63 9.952 42.23 12.91 12.58-1.5 30.55-13.48 28.9-16.34-2.68-4.638-6.613-6.173-23.44 0.2019z" fill="#537e75"/>
   <path d="m884.4 419.5 27.82 18.36s8.47-6.952 12.86-8.335c0 0 10.36-3.529 14.73-0.7801l-17.02-22.64c-15.48 5.029-25.21 8.769-38.39 13.4z" fill="#6fa196"/>
   <path d="m940.3 430.3c0 2.858 2.152 4.232-12.18 12.15-18.21 10.05-17.7 0.2348-15.76-4.835 1.019-2.651 8.723-6.672 12.35-8.067 11.49-4.423 15.59-2.106 15.59 0.752z" fill="#8ab4ab" stroke-linecap="round" stroke-linejoin="round" stroke-width=".6647"/>
  </g>
  <path d="m297 214.9 1.124-3.212-17.18 0.8034c-0.1478-2.282-0.4588-4.866-0.5469 1.324l-0.4289 2.024z" fill="#61825f"/>
  <path d="m285.8 183.2-5.335 23.57 0.4554 5.758 6.766-27.18z" fill="#82a481"/>
  <path d="m236 207.6 2.653 7.161 0.6616-2.948c-0.6448-12.67-0.804-28.59-1.934-38.01l-0.9933 5.878z" fill="#668963"/>
  <path d="m238.7 215.4 0.1301 10.68 2.993 22.56 16.72-0.636 0.487-30.04-18.93-0.6455c-0.7962-0.0937-1.021-1.302-1.396-1.916z" fill="#b5550f"/>
  <path d="m237.3 177.9 45.45-0.7574-2.512 39.78c-0.1518 0.5981-0.3716 1.052-2.138 1.2-12.95 0.3235-25.9 6e-3 -38.86 3e-3 -1.268-0.2148-1.018-3.661-1.024-6.331z" fill="#a15016"/>
  <path d="m260.3 218.1 0.1759 36.08 18.58-0.5681-0.9698-35.52z" fill="#b5550f"/>
  <path d="m260.5 254.2-1.932-6.912 0.4634-28.33 1.293-0.8374z" fill="#91440c"/>
  <path d="m219 172.6c-1.359 0.0563-2.358 1.073-2.553 2.959l-2.53 30.96c0.0575 1.604 0.7253 1.637 1.38 1.704l20.7-0.5681c1.124-0.1973 1.308-1.162 1.288-2.083l0.0919-31.72c-0.4152-0.7634-0.9152-1.433-2.116-1.326z" fill="#b1d9af"/>
  <path d="m213 213.2c0.46 1.041 4.692 6.533 4.692 6.533l20.15-0.7574-2.024-6.533z" fill="#5b7a59"/>
  <path d="m213.8 208.3-0.782 4.923 22.82-0.7574 1.104-4.876z" fill="#70946d"/>
  <path d="m282.5 172.5c-0.0281-0.639 0.6938-0.8894 1.626-0.8703h16.26c1.042-0.0454 1.362 0.5035 1.822 0.9373l5.27 10.85-2.082 2.142-17.7-0.2678-1.887-2.142z" fill="#b1d9af"/>
  <path d="m287.7 185.3-6.766 27.18 17.18-0.8034 7.286-26.11z" fill="#70946d"/>
  <path d="m307.5 183.4-9.368 28.25 7.286-26.11z" fill="#82a481"/>
  <path d="m253.6 154.5 1.919 0.7364c0.753 0.2875 1.488 0.67 2.179 1.272 0.2622 0.1831 0.4111 0.4245 0.553 0.6695l0.8148-0.4524c0.4814-0.1547 0.6531 0.2576 0.2911 0.6867l-0.9108 0.6695c-0.2175 0.3138-0.2196 0.8063-0.1952 1.306-1.073 1.352-2.61 1.929-4.164 2.477-0.5972-0.0663-0.6048-0.5884 0-0.703 1.951-0.2897 2.819-1.274 3.155-1.808-0.5454-0.3688-0.956-0.7773-1.073-1.272-0.084-0.4672-0.034-0.8655 0-1.272-0.618-0.6249-1.425-1.25-2.895-1.875-0.3434-0.3597-0.1254-0.4527 0.3253-0.4352z"/>
  <path d="m261.1 156.6c-0.3587-0.2185-0.6083 0.2488-0.4554 0.4352 0.2924 0.3042 0.4994 0.5984 1.073 0.8368-0.1666 0.5903-0.1369 1.15 0.1301 1.674 0.7298 0.8204 1.856 1.681 3.676 2.243 0.5897 0.0985 0.4862-0.5014-0.0292-0.6279-1.276-0.2371-2.527-1.345-2.829-1.849 0.5612-0.1976 0.945-0.4948 1.131-0.9488 0.1495-0.5266 0.0747-0.9226 0.1935-1.662 0.9452-0.9269 1.89-1.411 2.836-1.908 0.3546-0.0443 0.3219-0.732-0.2602-0.4686-1.17 0.4418-2.307 1.088-3.416 1.908-0.4216 0.3525-0.7804 0.6619-1.138 0.9708-0.4839-0.1452-0.6191-0.398-0.9108-0.6026z"/>
  <path d="m254.5 169.3c0.8897-1.392 1.776-2.786 4.782-3.046 2.417 0.04 4.79 0.14 6.018 1.841 0.7432 1.123 0.9171 2.667-0.8783 3.113-1.327 0.0107-1.743-0.8077-2.179-0.8703-1.187-0.0861-2.385-0.0876-3.603 0.0469-0.7311 0.1149-1.549 0.5925-2.22 0.9572-1.946-0.1064-2.202-1.408-1.919-2.042z"/>
  <path d="m253.7 170.2c0.0275 0.5722-0.1416 1.071 0.3253 1.808 0.5131 0.3223 0.9468 0.6751 1.789 0.8703 0.4434-0.2059 0.1551-0.4416-0.1789-0.7364-0.4458-0.212-0.6765-0.424-0.9596-0.636-0.5814-0.332-0.5841-0.9888-0.7156-1.573-0.1732 3.3e-4 -0.3021 0.0462-0.2602 0.2678z"/>
  <path d="m264.9 172c0.6289-0.313 1.044-0.8454 1.498-1.339 0.3347-0.3056 0.6346 0.0194 0.2582 0.6022l-1.573 1.416c-0.2564 0.1638-0.7683-0.3346-0.1837-0.6793z"/>
  <path d="m237.8 219 0.8586-4.2-1.779-7.209-1.104 4.876z" fill="#61825f"/>
  <g transform="matrix(.3703 0 0 .4116 29.28 53.2)">
   <path d="m103.8 374.1v90.32l27.07-19.63 0.5193-79.4z" fill="#6c4a31"/>
   <path d="m103.8 464.4-17.23-20.17-0.7261-65.43 17.95-4.725z" fill="#583c28"/>
   <path d="m69.02 352.2 137.5-44.4v30.95l-137.4 49.73z" fill="#376441"/>
   <path d="m69.02 352.2 7.174-12.7 121.6-38.52 8.728 6.819z" fill="#437e4c"/>
   <path d="m69.02 352.2-55.59-59.61 2.054 30.42 53.56 65.47z" fill="#28462c"/>
   <path d="m13.43 292.6 14.38-1.574 48.39 48.49-7.174 12.7z" fill="#437e4c"/>
   <path d="m75.55 300.4 0.6442 39.04 116.7-37.7-0.363-31.53z" fill="#376441"/>
   <path d="m75.55 300.4-49.8-41.44 2.054 32 48.39 48.49z" fill="#28462c"/>
   <path d="m25.75 259h13.86l42.37 34.07 101.3-26.89 9.258 4.08-117 30.18z" fill="#437e4c"/>
   <path d="m81.44 251.5 0.5446 41.54 97.57-26.8-0.9984-33.66z" fill="#376441"/>
   <path d="m37.69 225.6 1.923 33.44 42.37 34.07-0.5446-41.54z" fill="#28462c"/>
   <path d="m37.69 225.6 14.88-1.113 34.85 20.4 80.96-15.95 10.17 3.709-97.11 18.92z" fill="#437e4c"/>
   <path d="m87.43 244.9-0.7261-42.66 78.42-7.047-0.363 33.57z" fill="#376441"/>
   <path d="m87.43 244.9-34.85-20.4-1.452-36.54 35.58 14.28z" fill="#28462c"/>
   <path d="m51.12 187.9 14.88 0.1855 25.59 9.829 64.8-6.12 8.713 3.338-78.42 7.047z" fill="#437e4c"/>
   <path d="m91.6 197.9 0.363-42.28 54.82-0.9273-0.2981 38.04z" fill="#376441"/>
   <path d="m91.97 155.6-26.68-5.193 0.7261 37.65 25.59 9.829z" fill="#28462c"/>
   <path d="m65.28 150.5 15.97-0.3709 15.43 3.153 41.61-0.51 8.486 1.994-54.82 0.9273z" fill="#437e4c"/>
   <path d="m102 112.7-0.1815-23.74 17.7 2.133 0.9076 23.09z" fill="#31593a"/>
   <path d="m102 112.7-0.1815-23.74-6.634 2.044-1.189 22.03z" fill="#2d4f31"/>
   <path d="m253 274.3c-4.86-8.411-25.13-10.38-15.69-25.33l4.682 6.224c-1.817 7.343 1.612 9.984 4.256 17.33z" fill="#2d4f31"/>
   <path d="m274.1 280.2c2.207-7.628 5.025-13.68 5.255-25.63l11.29 2.133c2.578 7.088-1.71 21.08-4.32 29.56z" fill="#31593a"/>
   <path d="m262.1 274c1.979-7.3-0.6298-9.16-0.4232-20.6 4.309-1.097 7.633-30.6 7.7-37.35 8.992 4.616 14.22 49.27-0.4096 61.37z" fill="#3a6b46"/>
   <path d="m274.1 280.2c4.86-8.411 6.337-14.86-3.109-29.81l-4.682 6.224c1.817 7.343-1.612 9.984-4.256 17.33z" fill="#2d4f31"/>
   <path d="m254.4 270.4c2.207-7.628-0.7023-9.572-0.4719-21.52 4.805-1.147 7.269-5.218 7.343-12.28 2.578 7.088 3.397 28.9 0.787 37.37z" fill="#31593a"/>
   <path d="m254.4 270.4c4.86-8.411 7.313-12.97-2.133-27.92-2.603 1.098-6.983 0.5315-4.682 6.224 1.817 7.343 2.134 9.984-0.51 17.33z" fill="#2d4f31"/>
   <path d="m253 274.3c-3.76-8.157-5.869-15.2 2.838-24.11l-11.29 2.133c-2.578 7.088-2.079 14.17 0.5314 22.65z" fill="#31593a"/>
   <path d="m254.7 288c-4.86-8.411-16.38-17.59-6.936-32.54l4.682 6.224c-1.817 7.343 1.612 9.984 4.256 17.33z" fill="#2d4f31"/>
   <path d="m262.6 287.3c-3.76-8.157-5.869-15.2 2.838-24.11l-11.29 2.133c-2.578 7.088-2.079 14.17 0.5314 22.65z" fill="#31593a"/>
   <path d="m266 285.4c-4.86-8.411-11.08-7.267-1.638-22.22l4.682 6.224c-1.817 7.343-1.1 9.83 1.544 17.17z" fill="#2d4f31"/>
   <path d="m270.6 286.6c-3.76-8.157 2.757-6.737 11.46-15.64l-11.29 2.133c-2.578 7.088-10.71 5.706-8.095 14.18z" fill="#31593a"/>
   <path d="m6.276 589.9c-11.71-16.2-60.57-20-37.81-48.81l11.28 11.99c-4.38 14.15 3.885 19.23 10.26 33.38z" fill="#2d4f31"/>
   <path d="m57.16 601.3c5.319-14.7 12.11-26.36 12.66-49.39l27.2 4.109c6.212 13.66-4.12 40.61-10.41 56.94z" fill="#31593a"/>
   <path d="m28.13 589.2c4.77-14.06-1.518-17.65-1.02-39.68 10.38-2.114 18.4-58.95 18.55-71.96 21.67 8.893 34.26 94.93-0.9871 118.2z" fill="#3a6b46"/>
   <path d="m57.16 601.3c11.71-16.2 15.27-28.63-7.492-57.44l-11.28 11.99c4.38 14.15-3.885 19.23-10.26 33.38z" fill="#2d4f31"/>
   <path d="m9.676 582.3c5.319-14.7-1.692-18.44-1.137-41.47 11.58-2.209 17.52-10.05 17.7-23.65 6.212 13.66 8.187 55.67 1.897 72.01z" fill="#31593a"/>
   <path d="m9.676 582.3c11.71-16.2 17.62-24.98-5.141-53.79-6.272 2.116-16.83 1.024-11.28 11.99 4.38 14.15 5.141 19.23-1.229 33.38z" fill="#2d4f31"/>
   <path d="m6.276 589.9c-9.061-15.72-14.14-29.29 6.838-46.45l-27.2 4.109c-6.211 13.66-5.01 27.3 1.281 43.64z" fill="#31593a"/>
   <path d="m10.45 616.1c-11.71-16.2-39.48-33.88-16.71-62.69l11.28 11.99c-4.38 14.15 3.885 19.23 10.26 33.38z" fill="#2d4f31"/>
   <path d="m29.53 614.8c-9.061-15.72-14.14-29.29 6.838-46.45l-27.2 4.109c-6.211 13.66-5.01 27.3 1.281 43.64z" fill="#31593a"/>
   <path d="m37.55 611.3c-11.71-16.2-26.71-14-3.948-42.81l11.28 11.99c-4.38 14.15-2.65 18.94 3.721 33.09z" fill="#2d4f31"/>
   <path d="m48.61 613.6c-9.061-15.72 6.644-12.98 27.63-30.14l-27.2 4.109c-6.211 13.66-25.8 10.99-19.51 27.32z" fill="#31593a"/>
   <path d="m96.68 153.2 0.1815-42.47 35.58 3.153 0.9076 38.76z" fill="#376441"/>
   <path d="m81.26 150.1 15.43 3.153 0.1815-42.47-15.79 0.5564z" fill="#28462c"/>
   <path d="m1274 311.3c-7.896-9.658-40.83-11.92-25.49-29.09l7.606 7.147c-2.952 8.432 2.619 11.46 6.914 19.9z" fill="#2d4f31"/>
   <path d="m1308 318c3.586-8.759 8.163-15.71 8.538-29.43l18.33 2.449c4.187 8.139-2.778 24.21-7.018 33.94z" fill="#31593a"/>
   <path d="m1289 310.8c3.215-8.382-1.023-10.52-0.6875-23.65 7-1.26 12.4-35.13 12.51-42.89 14.61 5.3 23.1 56.58-0.6654 70.47z" fill="#3a6b46"/>
   <path d="m1308 318c7.896-9.658 10.29-17.07-5.051-34.23l-7.606 7.147c2.952 8.432-2.619 11.46-6.914 19.9z" fill="#2d4f31"/>
   <path d="m1276 306.7c3.586-8.759-1.141-10.99-0.7666-24.71 7.806-1.317 11.81-5.992 11.93-14.1 4.187 8.139 5.519 33.18 1.278 42.92z" fill="#31593a"/>
   <path d="m1276 306.7c7.896-9.658 11.88-14.89-3.466-32.06-4.228 1.261-11.34 0.6103-7.606 7.147 2.952 8.432 3.466 11.46-0.8285 19.9z" fill="#2d4f31"/>
   <path d="m1274 311.3c-6.108-9.367-9.535-17.46 4.61-27.68l-18.33 2.449c-4.187 8.139-3.377 16.27 0.8633 26.01z" fill="#31593a"/>
   <path d="m1277 326.9c-7.896-9.658-26.61-20.19-11.27-37.36l7.606 7.147c-2.952 8.432 2.619 11.46 6.914 19.9z" fill="#2d4f31"/>
   <path d="m1290 326.1c-6.108-9.367-9.535-17.46 4.61-27.68l-18.33 2.449c-4.187 8.139-3.377 16.27 0.8633 26.01z" fill="#31593a"/>
   <path d="m1295 324c-7.896-9.658-18.01-8.345-2.661-25.51l7.606 7.147c-2.952 8.432-1.786 11.29 2.508 19.72z" fill="#2d4f31"/>
   <path d="m1303 325.4c-6.108-9.367 4.479-7.736 18.62-17.96l-18.33 2.449c-4.187 8.139-17.39 6.553-13.15 16.29z" fill="#31593a"/>
  </g>
 </g>
 <g transform="matrix(1.115 0 0 1.143 1058 136.2)">
  <path d="m134.7 324.5c-13 17.54-26.46 37.9-29.75 59.9 0 0.34 0.49 0.45 0.57 0.12a129 129 0 0 1 5.73-17.62c8.51-2.34 16.87-4.27 21.34-12.72 4.56-8.69 4-20 3.12-29.48-0.06-0.51-0.75-0.54-1.01-0.2z" fill="#437e4c"/>
  <path d="m111.3 366.8c5.82-13.06 13.29-26.17 22.79-36.91 0.06-0.07 0.16 0 0.1 0.1-6.21 7.65-10.94 16-15.55 24.45 4.29-4.35 9-8.25 13-12.87 0.08-0.09 0.21 0 0.13 0.13-4 4.84-8.44 10.1-13.69 13.69q-2.11 3.9-4.28 7.81c0.36-0.2 0.72-0.37 1.08-0.55a0.06 0.06 0 0 1 0.06 0.1c-0.4 0.2-0.8 0.41-1.21 0.59-0.68 1.23-1.36 2.47-2.06 3.7-0.11 0.27-0.49 0.01-0.37-0.24z" fill="#263238"/>
  <path d="m115.7 362.2a76.89 76.89 0 0 0 10-6.64c0.08-0.07 0.2 0.05 0.12 0.12a52.19 52.19 0 0 1-9.92 6.76c-0.22 0.09-0.36-0.15-0.2-0.24z" fill="#263238"/>
  <path d="m103.4 381.1c0 0.27 0.48 0.27 0.47 0 0.07-7.24 0-14.52 0.12-21.8 1.85-3.74 5.84-5.82 8.61-8.82a38.78 38.78 0 0 0 5.16-7.19 51.76 51.76 0 0 0 6-20c0.76-7.75-2.18-33.32-5.44-32.43-1.7 0.46-7.18 13.12-8.63 17.31a120.2 120.2 0 0 0-5.16 21.23c-2.65 17.04-2.43 34.56-1.13 51.7z" fill="#437e4c"/>
  <path d="m103.4 349.9c0.4-9.17 2.46-18.42 4.39-27.31 2.09-9.58 4.52-18.6 9.45-27.14a0.14 0.14 0 0 1 0.24 0.14 100.6 100.6 0 0 0-7.58 20.83c0.33-0.52 0.73-1 1.07-1.49 0.14-0.19 0.45 0 0.32 0.18a13 13 0 0 1-1.54 2.18h-0.06c-1.7 6.84-2.92 13.85-4 20.83l0.23-0.27c0-0.06 0.14 0 0.11 0.08-0.13 0.24-0.28 0.47-0.42 0.7-0.52 3.54-1 7.08-1.5 10.59 6.31-5.4 11.71-11.76 14.75-19.59h0.06c-3 8.13-7.68 15.36-14.91 20.29-0.13 0.94-0.26 1.89-0.4 2.83 0 0.2-0.34 0.14-0.34-0.05 0-0.83 0-1.67 0.08-2.51a0.19 0.19 0 0 1 0.05-0.29z" fill="#263238"/>
  <path d="m106.3 336.6c4.82-7.2 9.33-14.2 12.86-22.15 0-0.09 0.19 0 0.16 0.06-3 7.91-7.14 15.92-12.78 22.27-0.11 0.13-0.34-0.04-0.24-0.18z" fill="#263238"/>
  <path d="m112.7 312.7c2-3.54 4.11-7 6-10.59 0-0.1 0.19 0 0.15 0.09a55.28 55.28 0 0 1-5.83 10.68c-0.14 0.14-0.43 0.02-0.32-0.18z" fill="#263238"/>
  <path d="m112 314.2a0.03 0-90 0 0 0 0.06z" fill="#263238"/>
  <path d="m98.5 360.2a73.68 73.68 0 0 1-1.69 14.28c0.08 0.51 0.15 1 0.23 1.56a68.24 68.24 0 0 0 2.55-15.91 0.48 0.48 0 0 0 0-0.49 105.5 105.5 0 0 0-1.59-21.58c-2.23-13.31-7.13-26.05-16.42-36.05a0.67 0.67 0 0 0-1 0.21c-3.74 9.53-2.44 20.9 0.76 30.4a55.3 55.3 0 0 0 7.33 14.39c3.19 4.51 7.25 8.3 9.83 13.19z" fill="#437e4c"/>
  <path d="m82.68 306.4c8.8 14.28 14.92 31.22 15.67 48.09 0 0.3-0.49 0.38-0.53 0.07-0.21-1.52-0.44-3-0.68-4.51-3.64-3.49-7.38-7.17-10-11.52 0-0.08 0.06-0.17 0.12-0.1a121.2 121.2 0 0 0 9.74 10.53q-0.94-5.59-2.26-11c-0.24-0.27-0.47-0.55-0.7-0.82s0.1-0.44 0.26-0.26l0.22 0.23a126.3 126.3 0 0 0-4.61-14.61c-2.24-2.67-4.74-5-6.37-8.2a0.07 0.07 0 1 1 0.11-0.07c1.32 1.85 2.59 3.7 4.07 5.41 0.6 0.68 1.25 1.31 1.86 2a112.7 112.7 0 0 0-7.2-15 0.2 0.2 0 0 1 0.3-0.24z" fill="#263238"/>
  <path d="m84.46 324.1c2.84 3.83 6.08 7.48 8.73 11.44 0.07 0.11-0.09 0.23-0.19 0.14-3.39-3.19-6.27-7.54-8.73-11.47-0.08-0.12 0.1-0.17 0.19-0.11z" fill="#263238"/>
  <path d="m93.59 336.4 0.12 0.12c0.08 0.09 0 0.22-0.13 0.13l-0.12-0.12c-0.09-0.08 0.04-0.21 0.13-0.13z" fill="#263238"/>
  <path d="m68.89 333.9a43.8 43.8 0 0 0 9.29 21.78 23.09 23.09 0 0 0 7.53 5.88c3.26 1.61 6.67 3.47 10.05 4.8a66 66 0 0 1 3.56 12.64c0.11-0.37 0.21-0.75 0.32-1.12-2.16-18.61-14.2-34.51-29.6-44.72a0.75 0.75 0 0 0-1.15 0.74z" fill="#437e4c"/>
  <path d="m74.21 339.4c-0.11-0.09 0-0.29 0.16-0.2a63 63 0 0 1 19.63 24.18c0.11 0.26-0.24 0.48-0.38 0.23-0.72-1.26-1.45-2.48-2.19-3.68-3.52-0.66-6.85-3.13-9.45-5.48-0.08-0.06 0-0.17 0.1-0.1a21.21 21.21 0 0 0 4.45 3.12 47.54 47.54 0 0 0 4.47 1.77c-1.3-2.07-2.66-4.05-4.07-6a41.17 41.17 0 0 1-10.57-5.94c-0.1-0.07 0-0.24 0.1-0.17a107.8 107.8 0 0 0 9.82 5.25 88.14 88.14 0 0 0-6.93-8.09c-1.2-0.63-2.41-1.26-3.57-1.93-0.09-0.06 0-0.22 0.08-0.19a13.07 13.07 0 0 1 2.73 1.35c-1.42-1.38-2.85-2.76-4.38-4.12z" fill="#263238"/>
  <path d="m74.54 345.8a4 4 0 0 1 0.59 0.42c0.06 0.05 0 0.12-0.07 0.1a4.71 4.71 0 0 1-0.62-0.35c-0.11-0.07-0.01-0.24 0.1-0.17z" fill="#263238"/>
  <polygon points="120.3 380.9 123.7 419.3 81.48 419.3 84.88 380.9 85.63 372.4 119.5 372.4" fill="#455a64"/>
  <polygon points="119.5 372.4 120.3 380.9 84.88 380.9 85.63 372.4" fill="#263238"/>
  <rect x="83.61" y="366.5" width="37.93" height="8.39" fill="#455a64"/>
 </g>
 <rect x="26.5" y="76" width="23" height="21.5" rx="0" ry="0" fill="#ececec"/>
 <rect x="94" y="18.75" width="23" height="21.5" rx="0" ry="0" fill="#ececec"/>
 <rect x="203.2" y="44.05" width="23" height="21.5" rx="0" ry="0" fill="#ececec"/>
 <rect x="119.5" y="90.75" width="13.5" height="12" rx="0" ry="0" fill="#ececec"/>
 <rect x="220.7" y="110.8" width="13.5" height="12" rx="0" ry="0" fill="#ececec"/>
 <rect x="300.9" y="84.05" width="13.5" height="12" rx="0" ry="0" fill="#ececec"/>
 <rect x="96.25" y="201" width="13.5" height="12" rx="0" ry="0" fill="#ececec"/>
 <rect x="189.2" y="215.5" width="13.5" height="12" rx="0" ry="0" fill="#ececec"/>
 <rect x="272.8" y="197" width="13.5" height="12" rx="0" ry="0" fill="#ececec"/>
 <rect x="326.8" y="225" width="13.5" height="12" rx="0" ry="0" fill="#ececec"/>
 <rect x="340.5" y="30.12" width="23" height="21.5" rx="0" ry="0" fill="#ececec"/>
 <rect x="399.5" y="83.25" width="23" height="21.5" rx="0" ry="0" fill="#ececec"/>
 <rect x="267" y="256.8" width="23" height="21.5" rx="0" ry="0" fill="#ececec"/>
 <rect x="381" y="204.8" width="23" height="21.5" rx="0" ry="0" fill="#ececec"/>
 <rect x="118" y="244.2" width="23" height="21.5" rx="0" ry="0" fill="#ececec"/>
 <rect x="20" y="198.2" width="23" height="21.5" rx="0" ry="0" fill="#ececec"/>
</svg>
