<svg width="200" height="200" version="1.1" viewBox="1 0 33 42" xmlns="http://www.w3.org/2000/svg">
 <g transform="matrix(.2023 0 0 .2026 -2.658 -.5408)">
  <path d="m101.8 21.07c-48.36 0-87.62 39.06-87.62 87.3 0 48.24 39.16 87.4 87.62 87.4 48.36 0 87.62-39.06 87.62-87.4-0.1022-48.24-39.26-87.3-87.62-87.3zm-62.06 103.6c-1.738 0-3.17-1.428-3.17-3.162 0-1.734 1.431-3.162 3.17-3.162 1.738 0 3.17 1.428 3.17 3.162 0.1022 1.734-1.329 3.162-3.17 3.162zm129.1-50.28c-2.863 0-5.215-2.346-5.215-5.201 0-2.856 2.352-5.201 5.215-5.201 2.863 0 5.215 2.346 5.215 5.201 0 2.856-2.352 5.201-5.215 5.201z" fill="#d03f27" stroke-width="1.021"/>
  <path d="m158.6 35.59a7.9 7.9 0 0 1-7.9 7.9 7.9 7.9 0 0 1-7.9-7.9 7.9 7.9 0 0 1 7.9-7.9 7.9 7.9 0 0 1 7.9 7.9z" fill="#e56250"/>
  <path d="m15.09 175.8a7.9 7.9 0 0 1-7.9 7.9 7.9 7.9 0 0 1-7.9-7.9 7.9 7.9 0 0 1 7.9-7.9 7.9 7.9 0 0 1 7.9 7.9z" fill="#e56250"/>
  <path d="m24.89 192.6a4.9 4.9 0 0 1-4.9 4.9 4.9 4.9 0 0 1-4.9-4.9 4.9 4.9 0 0 1 4.9-4.9 4.9 4.9 0 0 1 4.9 4.9z" fill="#ab2817"/>
  <path d="m11.49 160.1a2.1 2.1 0 0 1-2.1 2.1 2.1 2.1 0 0 1-2.1-2.1 2.1 2.1 0 0 1 2.1-2.1 2.1 2.1 0 0 1 2.1 2.1z" fill="#e56250"/>
  <path d="m172.6 186.6a4.7 4.7 0 0 1-4.7 4.7 4.7 4.7 0 0 1-4.7-4.7 4.7 4.7 0 0 1 4.7-4.7 4.7 4.7 0 0 1 4.7 4.7z" fill="#e56250"/>
  <path d="m199.3 56.69a5.3 5.3 0 0 1-5.3 5.3 5.3 5.3 0 0 1-5.3-5.3 5.3 5.3 0 0 1 5.3-5.3 5.3 5.3 0 0 1 5.3 5.3z" fill="#ab2817"/>
  <path d="m63.79 12.79a4.3 4.3 0 0 1-4.3 4.3 4.3 4.3 0 0 1-4.3-4.3 4.3 4.3 0 0 1 4.3-4.3 4.3 4.3 0 0 1 4.3 4.3z" fill="#e56250"/>
  <circle cx="31.59" cy="149.7" r=".4" fill="#333134"/>
  <rect x="114.6" y="120.7" width="3.9" height="3.9" fill="#c2c1c1"/>
  <g transform="translate(-.7134 -2.612)">
   <path d="m113.7 156.7c0 2.9-11.1 6.3-24.7 6.3s-24.7-3.4-24.7-6.3 11.1-4.1 24.7-4.1 24.7 1.2 24.7 4.1z" fill="#232321"/>
   <ellipse cx="89" cy="156.7" rx="24.7" ry="5.2" fill="#333134"/>
   <rect x="84.2" y="129.7" width="9.6" height="25.3" fill="#232321"/>
   <path d="m16.1 141.6 2.1 0.8 1.7-0.7s-0.8-0.9-0.9-0.9c-0.2 0-2.9 0.8-2.9 0.8z" fill="#111110"/>
   <path d="m161.9 59.5 0.8 2.1-0.2 1.1s-1.1 0-1.1-0.1 0.5-3.1 0.5-3.1z" fill="#111110"/>
   <rect x="16.1" y="59.5" width="145.7" height="82.1" fill="#232321"/>
   <rect x="18.2" y="61.6" width="144.5" height="80.8" fill="#333134"/>
   <rect x="25.2" y="65.5" width="130.5" height="72.9" fill="#d9eef6"/>
   <g fill="#d03f27">
    <path d="m33.4 117.5v15.2h7.1v-5.4s3.4-0.1 3.4 5.4h6.9s0-4.9-2.9-7c0 0-0.3-0.5 1.1-1.1 1.5-0.6 3.3-6.1-2.6-7.1z"/>
    <path d="m74.7 117.5v15.2h12.1s3.7-0.7 3.8-3-1.5-3.5-2.4-3.8-0.4-1.5 0.8-1.7 2.4-3.4 0.4-5.2-4.8-1.7-4.8-1.7h-9.9z"/>
    <polygon points="93.5 117.5 99.7 117.5 99.7 128.7 106.5 128.7 106.5 132.7 93.5 132.7"/>
    <rect x="109.4" y="117.5" width="15.4" height="15.2"/>
    <path d="m127.6 117.5h7.9s2 6.3 4.7 0h7.4l-6.3 7.6 6.3 7.6h-7.6s-1.9-4.4-4.3 0h-8.1l6.3-7.6z"/>
    <rect x="55.1" y="117.5" width="15.4" height="15.2"/>
   </g>
   <rect transform="matrix(.2839 -.9588 .9588 .2839 -25.63 152.1)" x="74.6" y="78.8" width="28.8" height="28.8" fill="#d03f27"/>
   <rect transform="matrix(.2839 -.9588 .9588 .2839 -25.63 152.1)" x="86.2" y="90.4" width="5.6" height="5.6" fill="#d9eef6"/>
   <rect x="60.8" y="123.3" width="3.9" height="3.9" fill="#c2c1c1"/>
   <polygon points="66.1 138.6 139.2 65.5 115.3 65.5 42.2 138.6" enable-background="new    " fill="#e5e9ea" opacity=".38"/>
   <rect x="123.7" y="125.1" width="75.5" height="45.9" fill="#333134"/>
   <rect x="125.2" y="126.4" width="72.4" height="43.3" fill="#d9eef6"/>
   <g fill="#d03f27">
    <path d="m128.2 143.6v9h4.2v-3.2s2-0.1 2 3.2h4s0-2.9-1.7-4.1c0 0-0.2-0.3 0.7-0.7s2-3.6-1.5-4.2z"/>
    <path d="m152.6 143.6v9h7.1s2.2-0.4 2.2-1.8c0.1-1.4-0.9-2.1-1.4-2.2-0.5-0.2-0.2-0.9 0.5-1s1.4-2 0.3-3c-1.2-1-2.9-1-2.9-1z"/>
    <polygon points="163.7 143.6 167.3 143.6 167.3 150.2 171.3 150.2 171.3 152.5 163.7 152.5"/>
    <rect x="173" y="143.6" width="9" height="9"/>
    <path d="m183.7 143.6h4.7s1.2 3.7 2.8 0h4.3l-3.7 4.5 3.7 4.5h-4.5s-1.1-2.6-2.5 0h-4.8l3.7-4.5z"/>
    <rect x="141" y="143.6" width="9" height="9"/>
   </g>
   <rect transform="matrix(.2839 -.9588 .9588 .2839 -28 286.1)" x="173.6" y="157.9" width="7.8" height="7.8" fill="#d03f27"/>
   <rect transform="matrix(.2839 -.9588 .9588 .2839 -28.04 286.1)" x="176.8" y="161.1" width="1.5" height="1.5" fill="#c2c1c1"/>
   <rect transform="matrix(.2839 -.9588 .9588 .2839 -24.57 235.7)" x="141.6" y="130.4" width="7.8" height="7.8" fill="#d03f27"/>
   <rect transform="matrix(.2839 -.9588 .9588 .2839 -24.49 235.7)" x="144.8" y="133.5" width="1.5" height="1.5" fill="#c2c1c1"/>
   <path d="m165.2 126.4-40 40v3.3h7.7s43.8-43.3 43.3-43.3h-11z" enable-background="new    " fill="#e5e9ea" opacity=".38"/>
   <polygon points="137.9 169.7 181.2 126.4 179.3 126.4 136 169.7" enable-background="new    " fill="#e5e9ea" opacity=".38"/>
   <rect x="31.3" y="150.2" width="19.5" height="32.2" fill="#333134"/>
   <rect x="32.1" y="151.7" width="17.8" height="29.8" fill="#d9eef6"/>
   <rect transform="matrix(.2839 -.9588 .9588 .2839 -130.1 158.4)" x="35.9" y="161.2" width="10.2" height="10.2" fill="#d03f27"/>
   <rect transform="matrix(.2839 -.9588 .9588 .2839 -130.1 158.4)" x="40" y="165.3" width="2" height="2" fill="#c2c1c1"/>
   <polygon points="32.1 178.2 49.9 160.4 49.9 157.2 32.1 175" enable-background="new    " fill="#e5e9ea" opacity=".38"/>
  </g>
 </g>
</svg>
