<svg version="1.1" viewBox="0 0 300.6 165" xmlns="http://www.w3.org/2000/svg">
 <defs>
  <linearGradient id="linearGradient9617" x1="60.84" x2="92.13" y1="16.94" y2="68.51" gradientUnits="userSpaceOnUse">
   <stop stop-color="#959595" offset="0"/>
   <stop stop-color="#f2f2f2" offset=".5093"/>
   <stop stop-color="#f1f1f1" offset=".5093"/>
   <stop stop-color="#949494" offset="1"/>
  </linearGradient>
 </defs>
 <style type="text/css">.custom-controls {
height: 64px;
fill: #fff;
}

.control-icon {
opacity: 0;
animation: icon-fade-in-out 4s ease-in-out infinite;
animation-fill-mode: forwards;
}

.stop {
animation-delay: .3s;
}

.play {
animation-delay: .5s;
}

.gamepad {
animation-delay: .7s;
padding: 0 0 0 20px;
}

@keyframes icon-fade-in-out {
0% {
opacity: 0;
}

10% {
opacity: 1;
}

80% {
opacity: 1;
}

90% {
opacity: 0;
}

100% {
opacity: 0;
}
}</style>
 <g transform="matrix(.03782 0 0 .03786 -.1798 -.1598)" clip-rule="evenodd" fill-rule="evenodd" image-rendering="optimizeQuality" shape-rendering="geometricPrecision">
  <polygon class="fil0" transform="matrix(.9989 0 0 .9917 21.47 6.601)" points="-6.29 -0.28 -13.51 4382 7930 4391 7937 8.68" fill="#453e43"/>
  <path d="m3780 1960c-510 162.7-2266-14.68-2878 149.9-650.7 175 851.1 498.3 148.4 632.5-496.6 94.83-837.4 274.2-918.7 492.5-159.2 426.8 409.8 864 1399 1043 616.8 111.7 1336 111.1 1959 7.283 478.4-79.72 895-210.2 1372-293.3 5578 381.9 2433-3023-1081-2032z" opacity=".094" stroke-width="12.39"/>
  <g transform="matrix(10.62 0 0 10.42 3694 -505.2)">
   <g transform="matrix(.157 0 0 .1721 147.2 -358.9)">
    <path d="m1421 3414h-1067c-54.52 0-98.73-43.65-98.73-97.5v-246.6c0-53.84 44.2-97.5 98.73-97.5h1067c54.52 0 98.73 43.65 98.73 97.5v246.6c0.011 53.85-44.19 97.5-98.72 97.5z" fill="#584151" stroke-width="1.078"/>
    <rect x="303.6" y="3193" width="1167" height="117.4" fill="#e2e2e2" stroke-width="1.078"/>
    <g transform="matrix(1.085 0 0 1.072 -634.4 2518)" fill="#32c95c">
     <rect x="865.3" y="629.6" width="804.9" height="109.6"/>
     <rect class="control-icon stop" x="1683" y="629.6" width="37.38" height="109.6" opacity="0"/>
     <rect class="control-icon stop" x="1736" y="629.6" width="37.38" height="109.6" opacity="0"/>
     <rect class="control-icon play" x="1791" y="629.6" width="37.38" height="109.6" opacity="0"/>
    </g>
    <g transform="matrix(2.471 0 0 2.496 -1035 2389)" fill="#fff" aria-label="ЗАГРУЗКА">
     <path d="m673.4 289.6c0.1004 3.633-2.007 7.176-5.278 8.78-4.611 2.486-10.04 2.504-15.13 2.127-3.111-0.3121-6.19-1.001-9.121-2.095v-7.875c1.326-0.1843 2.284 1.022 3.48 1.406 2.999 1.37 6.25 2.488 9.598 2.173 2.526-0.1317 5.562-0.7813 6.762-3.272 0.7113-1.965 0.3618-4.816-1.833-5.667-2.746-0.9557-5.7-0.5506-8.555-0.6401h-2.632v-6.234c2.849-0.0511 5.708 0.1264 8.547-0.145 1.741-0.1186 3.73-1.164 3.812-3.115 0.3252-1.438-0.5199-2.947-1.94-3.375-4.291-1.493-9.019-0.4568-13.04 1.361-0.9925 0.3986-1.903 1.198-3.027 1.032v-7.336c6.476-2.22 13.59-3.079 20.31-1.504 3.121 0.7566 6.418 2.835 6.988 6.235 0.6902 3.303-1.093 6.777-4.027 8.364-0.7009 0.774-2.515 0.5483-2.783 1.436 3.144 0.4832 6.366 2.284 7.453 5.43 0.3195 0.9347 0.4203 1.93 0.4219 2.914z"/>
     <path d="m712.7 300h-9.305l-2.414-7.055h-12.94l-2.414 7.055h-9.07l12.89-34.9h10.36zm-13.9-13.45-4.289-12.52-4.289 12.52z"/>
     <path d="m742.9 271.8h-16.17v28.15h-9v-34.9h25.17z"/>
     <path d="m777.1 276.1c0.0234 3.756-1.621 7.609-4.798 9.749-2.913 2.298-6.713 2.888-10.32 2.767h-4.685v11.37h-9v-34.9c5.534 0.0259 11.07-0.0548 16.6 0.0464 4.071 0.1648 8.593 1.559 10.79 5.263 1.039 1.707 1.423 3.728 1.416 5.707zm-9.305 0.2109c0.0991-2.289-1.869-4.147-4.037-4.465-2.133-0.3512-4.308-0.2145-6.463-0.2461v10.45c2.688-0.0691 5.522 0.2965 8.034-0.8525 1.83-0.8844 2.529-2.978 2.466-4.89z"/>
     <path d="m814.2 265.1c-4.383 9.592-8.707 19.21-13.13 28.79-1.626 3.404-4.999 5.99-8.821 6.228-3.021 0.2579-6.06 0.0211-9.082-0.1157v-7.617c1.573 0.1049 3.135 0.5359 4.734 0.4453 1.844-0.0761 4.05-0.0261 5.432-1.44 0.1136-0.5805-0.5478-1.167-0.7543-1.75-4.442-8.179-8.884-16.36-13.33-24.54h9.773c2.891 5.516 5.781 11.03 8.672 16.55 2.383-5.516 4.766-11.03 7.148-16.55 3.117-2e-5 6.234-3e-5 9.352-5e-5z"/>
     <path d="m845.7 289.6c0.1004 3.633-2.007 7.176-5.278 8.78-4.611 2.486-10.04 2.504-15.13 2.127-3.111-0.3121-6.19-1.001-9.121-2.095v-7.875c1.326-0.1843 2.284 1.022 3.48 1.406 2.999 1.37 6.25 2.488 9.598 2.173 2.526-0.1317 5.562-0.7813 6.762-3.272 0.7113-1.965 0.3618-4.816-1.833-5.667-2.746-0.9557-5.7-0.5506-8.555-0.6401h-2.632v-6.234c2.849-0.0511 5.708 0.1264 8.547-0.145 1.741-0.1186 3.73-1.164 3.812-3.115 0.3252-1.438-0.5199-2.947-1.94-3.375-4.291-1.493-9.019-0.4568-13.04 1.361-0.9925 0.3986-1.903 1.198-3.027 1.032v-7.336c6.476-2.22 13.59-3.079 20.31-1.504 3.121 0.7566 6.418 2.835 6.988 6.235 0.6902 3.303-1.093 6.777-4.027 8.364-0.7009 0.774-2.515 0.5483-2.783 1.436 3.144 0.4832 6.366 2.284 7.453 5.43 0.3195 0.9347 0.4203 1.93 0.4219 2.914z"/>
     <path d="m885.3 300h-11.04c-3.438-4.695-6.875-9.391-10.31-14.09h-2.203v14.09h-9v-34.9h9v14.23c1.676 0.0577 3.362-0.6005 4.343-2.005 2.896-3.514 3.935-8.498 7.914-11.1 2.832-1.58 6.177-1.144 9.282-1.124v7.57c-1.998 0.0886-4.367-0.4347-5.869 1.254-2.25 2.455-2.866 6.207-5.78 8.074 4.555 6 9.109 12 13.66 18z"/>
     <path d="m922.1 300h-9.305l-2.414-7.055h-12.94l-2.414 7.055h-9.07l12.89-34.9h10.36zm-13.9-13.45-4.289-12.52-4.289 12.52z"/>
    </g>
    <g transform="matrix(5.691 0 0 5.346 -3439 2180)">
     <rect x="68.63" y="419.3" width="612.7" height="22.32" fill="#c7c7c7"/>
     <rect x="122.9" y="82.07" width="504.1" height="337.2" fill="#dbdbdb"/>
     <rect x="126.6" y="86.18" width="496.8" height="329" fill="#263238"/>
     <rect x="148.6" y="107.3" width="452.8" height="286.7" fill="#668b8b"/>
     <path d="m149 244 12.75-9.052 24.85 7.112 9.154-6.789 36.61-1.94 5.231 5.819 9.808-1.94 67.51-2.029 9.967-6.376 32.69 4.526 22.23-7.759 11.44 8.405 21.49-12.29 8.322 10.06 55.48-16.92 30.98 10.97 40.69-15.09 10.17 12.34 26.35-16.92 16.64 5.943 0.166 45.9-453 1.195z" fill="#836c52"/>
     <path d="m217.6 257.9 383.9 0.1347-0.1064 136z" fill="#9eb394"/>
    </g>
    <g transform="matrix(6.607 0 0 5.852 -3503 2326)">
     <path d="m134.7 324.5c-13 17.54-26.46 37.9-29.75 59.9 0 0.34 0.49 0.45 0.57 0.12a129 129 0 0 1 5.73-17.62c8.51-2.34 16.87-4.27 21.34-12.72 4.56-8.69 4-20 3.12-29.48-0.06-0.51-0.75-0.54-1.01-0.2z" fill="#66983c"/>
     <path d="m111.3 366.8c5.82-13.06 13.29-26.17 22.79-36.91 0.06-0.07 0.16 0 0.1 0.1-6.21 7.65-10.94 16-15.55 24.45 4.29-4.35 9-8.25 13-12.87 0.08-0.09 0.21 0 0.13 0.13-4 4.84-8.44 10.1-13.69 13.69q-2.11 3.9-4.28 7.81c0.36-0.2 0.72-0.37 1.08-0.55a0.06 0.06 0 0 1 0.06 0.1c-0.4 0.2-0.8 0.41-1.21 0.59-0.68 1.23-1.36 2.47-2.06 3.7-0.11 0.27-0.49 0.01-0.37-0.24z" fill="#263238"/>
     <path d="m115.7 362.2a76.89 76.89 0 0 0 10-6.64c0.08-0.07 0.2 0.05 0.12 0.12a52.19 52.19 0 0 1-9.92 6.76c-0.22 0.09-0.36-0.15-0.2-0.24z" fill="#263238"/>
     <path d="m103.4 381.1c0 0.27 0.48 0.27 0.47 0 0.07-7.24 0-14.52 0.12-21.8 1.85-3.74 5.84-5.82 8.61-8.82a38.78 38.78 0 0 0 5.16-7.19 51.76 51.76 0 0 0 6-20c0.76-7.75-2.18-33.32-5.44-32.43-1.7 0.46-7.18 13.12-8.63 17.31a120.2 120.2 0 0 0-5.16 21.23c-2.65 17.04-2.43 34.56-1.13 51.7z" fill="#66983c"/>
     <path d="m103.4 349.9c0.4-9.17 2.46-18.42 4.39-27.31 2.09-9.58 4.52-18.6 9.45-27.14a0.14 0.14 0 0 1 0.24 0.14 100.6 100.6 0 0 0-7.58 20.83c0.33-0.52 0.73-1 1.07-1.49 0.14-0.19 0.45 0 0.32 0.18a13 13 0 0 1-1.54 2.18h-0.06c-1.7 6.84-2.92 13.85-4 20.83l0.23-0.27c0-0.06 0.14 0 0.11 0.08-0.13 0.24-0.28 0.47-0.42 0.7-0.52 3.54-1 7.08-1.5 10.59 6.31-5.4 11.71-11.76 14.75-19.59h0.06c-3 8.13-7.68 15.36-14.91 20.29-0.13 0.94-0.26 1.89-0.4 2.83 0 0.2-0.34 0.14-0.34-0.05 0-0.83 0-1.67 0.08-2.51a0.19 0.19 0 0 1 0.05-0.29z" fill="#263238"/>
     <path d="m106.3 336.6c4.82-7.2 9.33-14.2 12.86-22.15 0-0.09 0.19 0 0.16 0.06-3 7.91-7.14 15.92-12.78 22.27-0.11 0.13-0.34-0.04-0.24-0.18z" fill="#263238"/>
     <path d="m112.7 312.7c2-3.54 4.11-7 6-10.59 0-0.1 0.19 0 0.15 0.09a55.28 55.28 0 0 1-5.83 10.68c-0.14 0.14-0.43 0.02-0.32-0.18z" fill="#263238"/>
     <path d="m112 314.2a0.03 0-90 0 0 0 0.06z" fill="#263238"/>
     <path d="m98.5 360.2a73.68 73.68 0 0 1-1.69 14.28c0.08 0.51 0.15 1 0.23 1.56a68.24 68.24 0 0 0 2.55-15.91 0.48 0.48 0 0 0 0-0.49 105.5 105.5 0 0 0-1.59-21.58c-2.23-13.31-7.13-26.05-16.42-36.05a0.67 0.67 0 0 0-1 0.21c-3.74 9.53-2.44 20.9 0.76 30.4a55.3 55.3 0 0 0 7.33 14.39c3.19 4.51 7.25 8.3 9.83 13.19z" fill="#66983c"/>
     <path d="m82.68 306.4c8.8 14.28 14.92 31.22 15.67 48.09 0 0.3-0.49 0.38-0.53 0.07-0.21-1.52-0.44-3-0.68-4.51-3.64-3.49-7.38-7.17-10-11.52 0-0.08 0.06-0.17 0.12-0.1a121.2 121.2 0 0 0 9.74 10.53q-0.94-5.59-2.26-11c-0.24-0.27-0.47-0.55-0.7-0.82s0.1-0.44 0.26-0.26l0.22 0.23a126.3 126.3 0 0 0-4.61-14.61c-2.24-2.67-4.74-5-6.37-8.2a0.07 0.07 0 1 1 0.11-0.07c1.32 1.85 2.59 3.7 4.07 5.41 0.6 0.68 1.25 1.31 1.86 2a112.7 112.7 0 0 0-7.2-15 0.2 0.2 0 0 1 0.3-0.24z" fill="#263238"/>
     <path d="m84.46 324.1c2.84 3.83 6.08 7.48 8.73 11.44 0.07 0.11-0.09 0.23-0.19 0.14-3.39-3.19-6.27-7.54-8.73-11.47-0.08-0.12 0.1-0.17 0.19-0.11z" fill="#263238"/>
     <path d="m93.59 336.4 0.12 0.12c0.08 0.09 0 0.22-0.13 0.13l-0.12-0.12c-0.09-0.08 0.04-0.21 0.13-0.13z" fill="#263238"/>
     <path d="m68.89 333.9a43.8 43.8 0 0 0 9.29 21.78 23.09 23.09 0 0 0 7.53 5.88c3.26 1.61 6.67 3.47 10.05 4.8a66 66 0 0 1 3.56 12.64c0.11-0.37 0.21-0.75 0.32-1.12-2.16-18.61-14.2-34.51-29.6-44.72a0.75 0.75 0 0 0-1.15 0.74z" fill="#66983c"/>
     <path d="m74.21 339.4c-0.11-0.09 0-0.29 0.16-0.2a63 63 0 0 1 19.63 24.18c0.11 0.26-0.24 0.48-0.38 0.23-0.72-1.26-1.45-2.48-2.19-3.68-3.52-0.66-6.85-3.13-9.45-5.48-0.08-0.06 0-0.17 0.1-0.1a21.21 21.21 0 0 0 4.45 3.12 47.54 47.54 0 0 0 4.47 1.77c-1.3-2.07-2.66-4.05-4.07-6a41.17 41.17 0 0 1-10.57-5.94c-0.1-0.07 0-0.24 0.1-0.17a107.8 107.8 0 0 0 9.82 5.25 88.14 88.14 0 0 0-6.93-8.09c-1.2-0.63-2.41-1.26-3.57-1.93-0.09-0.06 0-0.22 0.08-0.19a13.07 13.07 0 0 1 2.73 1.35c-1.42-1.38-2.85-2.76-4.38-4.12z" fill="#263238"/>
     <path d="m74.54 345.8a4 4 0 0 1 0.59 0.42c0.06 0.05 0 0.12-0.07 0.1a4.71 4.71 0 0 1-0.62-0.35c-0.11-0.07-0.01-0.24 0.1-0.17z" fill="#263238"/>
     <polygon points="120.3 380.9 123.7 419.3 81.48 419.3 84.88 380.9 85.63 372.4 119.5 372.4" fill="#455a64"/>
     <polygon points="119.5 372.4 120.3 380.9 84.88 380.9 85.63 372.4" fill="#263238"/>
     <rect x="83.61" y="366.5" width="37.93" height="8.39" fill="#455a64"/>
    </g>
    <g transform="matrix(6.059 0 0 5.897 -2658 2180)">
     <path d="m675.3 436.6c-0.72-2.66-43.7-66.07-46.79-67.41-0.35-0.17-21.75 13.44-21.75 13.44-0.91 1.09-39.7-9.25-39.7-9.25l-2.87 47.3 71.53 2.21s9.36 6.18 17.94 11.27c5.28 3.15 10 5.81 11.32 6.24 3.56 1.11 11.03-1.17 10.32-3.8z" fill="#ad6359"/>
     <path d="m665 440.4c-1.36-0.42-6-3.09-11.32-6.24-8.58-5.08-17.94-11.27-17.94-11.27l-15.92-0.49-22.82-41.47c5.41 1.25 9.46 2 9.75 1.69 0 0 21.4-13.6 21.75-13.42 3.09 1.33 46.06 64.74 46.79 67.39s-6.76 4.92-10.29 3.81z" fill="#fff"/>
     <path d="m675.7 436.6c-0.77-2.72-44-66.11-47.13-67.48-1.2-0.53-11.62 5.18-21.83 13.41l27.89 40.83s26.86 16.08 30.5 17.21 11.34-1.25 10.57-3.97z" fill="#e2231a"/>
     <path d="m672.6 437.5c-7.5-10.45-36.76-53.3-43.38-64.19 0-0.09 0-0.13 0.07 0 7.66 10.19 36.57 53.28 43.49 64.12 0.14 0.18-0.02 0.29-0.18 0.07z" fill="#263238"/>
     <path d="m660.1 438.1a10.29 10.29 0 0 1-1.73-8.12 10 10 0 0 1 4-6.24c0.07 0 0.15 0.07 0.09 0.13a11.93 11.93 0 0 0-2.23 14.13 0.08201 0.08201 0 0 1-0.13 0.1z" fill="#263238"/>
     <path d="m638 426c-3-4.22-4.81-10.17-3.13-15.18 0.06-0.2 0.34-0.1 0.36 0.07a70.66 70.66 0 0 0 3.35 14.82 0.33 0.33 0 0 1-0.58 0.29z" fill="#263238"/>
     <path d="m641.5 428.4c-3-4.22-4.82-10.17-3.14-15.18 0.07-0.2 0.34-0.1 0.36 0.07a71.15 71.15 0 0 0 3.35 14.82 0.32 0.32 0 0 1-0.57 0.29z" fill="#263238"/>
     <path d="m645 430.8c-3-4.21-4.82-10.17-3.14-15.18 0.06-0.19 0.34-0.1 0.36 0.07a71 71 0 0 0 3.35 14.82 0.32 0.32 0 0 1-0.57 0.29z" fill="#263238"/>
     <path d="m648.5 433.2c-2.95-4.21-4.81-10.17-3.13-15.18 0.06-0.19 0.33-0.1 0.36 0.07a71.22 71.22 0 0 0 3.34 14.86 0.32 0.32 0 0 1-0.57 0.25z" fill="#263238"/>
     <path d="m620.9 382.9c-3.23-4.78 4.19-9.82 7.43-5s-4.18 9.79-7.43 5z" fill="#263238"/>
     <path d="m635.8 433.8c1.4-4.32 0.88-9.08 0.91-13.54a0.64 0.64 0 0 0-0.87-0.53 0.14 0.14 0 0 0-0.21-0.05 27.07 27.07 0 0 0-8.24 11.28c-1 2.59-0.85 6.49 2.4 7.42 3.08 0.89 5.19-2.07 6.01-4.58zm-3.39 2.59c-4.92 2.73-4.21-3.86-3.43-5.74a29.1 29.1 0 0 1 1.81-3.51c1.38-2.36 3.07-4.49 4.67-6.69-0.15 2.19-0.11 4.37-0.18 6.56-0.08 2.61-0.16 7.88-2.87 9.38z" fill="#263238"/>
     <path d="m622.6 406.4c-2.55 2.22-1 5.8 1 7.75a27 27 0 0 0 12.24 6.72 0.14 0.14 0 0 0 0.18-0.13 0.63 0.63 0 0 0 0.55-0.85c-1.91-4-3.46-8.56-6.55-11.88-1.84-1.93-5.01-3.72-7.42-1.61zm9.78 8c1 2 1.88 3.95 2.94 5.87a81.38 81.38 0 0 1-7.06-4.09 27.9 27.9 0 0 1-3.12-2.41c-1.5-1.37-4.94-7.05 0.67-6.66 3.09 0.2 5.39 4.9 6.57 7.27z" fill="#263238"/>
     <path d="m578.8 363.1s-60.45-26.77-87.25-26.13c-31.9 0.78-56.21 39-16.76 65.77 34.88 23.69 143.8 20.55 143.8 20.55l-26-45.41s-30.24-11.29-69.68-12l55.15 10.48z" fill="#37474f"/>
     <path d="m577.8 372.3c-4.73-1.14-9.54-1.88-14.33-2.68s-9.69-1.52-14.55-2.19a291.6 291.6 0 0 0-29.22-2.58c-0.91 0-1.83 0-2.75-0.06a5.76 5.76 0 0 0-0.59-0.18c-0.46-0.14-0.92-0.28-1.39-0.39-0.87-0.22-1.75-0.39-2.63-0.58-1.84-0.37-3.68-0.67-5.5-1.11-0.11 0-0.16 0.14-0.05 0.17 1.83 0.51 3.61 1.14 5.44 1.64l1.59 0.42c-3.59 0-7.18 0.09-10.77 0.23-0.12 0-0.13 0.18 0 0.18 4.87 0 9.77 0.19 14.64 0.52s9.66 0.7 14.47 1.23c9.74 1.07 19.46 2.45 29.13 4 5.43 0.86 10.87 1.82 16.34 2.34 0.52 0.03 0.7-0.83 0.17-0.96z" fill="#263238"/>
     <path d="m607.6 421.4c-1.6-2.89-2.93-6-4.38-8.92l-4.36-8.92c-2.91-5.93-13.43-25.91-14.49-27.32-0.07-0.09-0.22 0-0.19 0.1 0.46 1.53 7 14.73 8.49 17.68 3 5.89 6.2 11.69 9.33 17.51 0.9 1.67 1.83 3.31 2.74 5s1.88 3.29 2.71 5c0.05 0.05 0.21-0.03 0.15-0.13z" fill="#263238"/>
     <path d="m465.8 439.1c0.75-2.65 44.32-65.64 47.43-66.95 0.35-0.17 21.62 13.64 21.62 13.64 0.9 1.1 39.79-8.87 39.79-8.87l2.42 47.32-71.55 1.53s-9.42 6.09-18.05 11.09c-5.31 3.1-10 5.72-11.38 6.13-3.57 1.05-11.05-1.26-10.28-3.89z" fill="#ad6359"/>
     <path d="m476.1 443c1.36-0.41 6.07-3 11.37-6.13 8.63-5 18-11.1 18-11.1l15.93-0.34 23.19-41.25c-5.43 1.2-9.48 2-9.77 1.6 0 0-21.26-13.81-21.62-13.63-3.11 1.31-46.68 64.3-47.43 66.94s6.79 4.91 10.33 3.91z" fill="#fff"/>
     <path d="m465.4 439.2c0.79-2.71 44.58-65.68 47.77-67 1.2-0.52 11.57 5.29 21.7 13.62l-28.27 40.56s-27 15.82-30.67 16.92-11.33-1.38-10.53-4.1z" fill="#e2231a"/>
     <path d="m468.6 440c7.6-10.37 37.27-52.94 44-63.77 0.05-0.09 0-0.13-0.07-0.05-7.76 10.12-37.08 52.93-44.1 63.7-0.15 0.23 0.01 0.34 0.17 0.12z" fill="#263238"/>
     <path d="m481 440.8a10.32 10.32 0 0 0 1.81-8.11 10 10 0 0 0-4-6.28c-0.07 0-0.15 0.07-0.09 0.13a11.93 11.93 0 0 1 2.14 14.16c-0.01 0.09 0.14 0.18 0.14 0.1z" fill="#263238"/>
     <path d="m503.2 428.9c3-4.18 4.92-10.12 3.29-15.14-0.07-0.2-0.34-0.11-0.37 0.06a70.64 70.64 0 0 1-3.49 14.8 0.32 0.32 0 0 0 0.57 0.28z" fill="#263238"/>
     <path d="m499.7 431.3c3-4.18 4.91-10.12 3.28-15.15-0.07-0.19-0.34-0.1-0.36 0.07a71.05 71.05 0 0 1-3.5 14.79 0.33 0.33 0 0 0 0.58 0.29z" fill="#263238"/>
     <path d="m496.2 433.6c3-4.19 4.91-10.12 3.28-15.15-0.07-0.19-0.34-0.1-0.36 0.07a71.05 71.05 0 0 1-3.5 14.79 0.33 0.33 0 0 0 0.58 0.29z" fill="#263238"/>
     <path d="m492.6 436c3-4.19 4.91-10.12 3.28-15.15-0.07-0.2-0.34-0.1-0.36 0.07a71.82 71.82 0 0 1-3.49 14.79 0.32 0.32 0 0 0 0.57 0.29z" fill="#263238"/>
     <path d="m520.7 385.9c3.29-4.75-4.09-9.86-7.38-5.1s4.1 9.86 7.38 5.1z" fill="#263238"/>
     <path d="m511.4 441.3c3.26-0.91 3.4-4.81 2.48-7.4a27.12 27.12 0 0 0-8.13-11.36 0.15 0.15 0 0 0-0.22 0.05 0.63 0.63 0 0 0-0.87 0.52c0 4.46-0.57 9.22 0.79 13.55 0.79 2.52 2.87 5.5 5.95 4.64zm-5.35-11.43c-0.05-2.19 0-4.37-0.12-6.56 1.58 2.22 3.25 4.36 4.61 6.74a29 29 0 0 1 1.77 3.52c0.76 1.89 1.41 8.49-3.48 5.72-2.72-1.54-2.78-6.81-2.78-9.42z" fill="#263238"/>
     <path d="m511.4 411c-3.12 3.28-4.72 7.81-6.67 11.81a0.63 0.63 0 0 0 0.55 0.85c0 0.09 0.06 0.16 0.17 0.14a26.93 26.93 0 0 0 12.3-6.61c2-1.92 3.57-5.49 1-7.74s-5.53-0.45-7.35 1.55zm4.18-0.88c5.61-0.34 2.12 5.3 0.61 6.66a29.31 29.31 0 0 1-3.15 2.39 81.26 81.26 0 0 1-7.1 4c1.08-1.9 2-3.89 3-5.83 1.2-2.34 3.54-7.08 6.64-7.27z" fill="#263238"/>
     <path d="m576.2 362.3s60.26-19.4 92.66-16.16c31.75 3.17 45.5 42.64 15 64.76-33.25 24.13-160.4 18.34-160.4 18.34l26.19-49.06s43-11 82.48-11.35l-55.24 9.94z" fill="#37474f"/>
     <path d="m547.9 383.3a1.84 1.84 0 0 0 0-0.25v-0.2c0-0.16 0.07-0.32 0.1-0.47a9.53 9.53 0 0 1 0.29-0.95c0.11-0.32 0.23-0.62 0.36-0.93a7.45 7.45 0 0 1 0.49-0.87h0.07 0.14c4.74-1.09 37-7.12 41.8-7.87s9.7-1.43 14.56-2.05a292 292 0 0 1 29.25-2.3h2.75c0.19-0.07 0.39-0.11 0.59-0.17 0.46-0.13 0.93-0.27 1.39-0.38 0.88-0.21 1.76-0.37 2.64-0.55 1.84-0.36 3.68-0.63 5.51-1.06 0.11 0 0.16 0.15 0.05 0.18-1.83 0.48-3.63 1.1-5.46 1.58l-1.59 0.41c3.59 0 7.18 0.16 10.77 0.33 0.11 0 0.12 0.18 0 0.18-4.88-0.08-9.78 0.09-14.65 0.38s-9.66 0.6-14.48 1.09c-9.75 1-19.48 2.27-29.17 3.7-5.44 0.81-38.32 7.05-43.8 7.51h-0.07a3 3 0 0 1-0.13 0.39c-0.14 0.3-0.28 0.6-0.43 0.9s-0.29 0.57-0.45 0.85c-0.09 0.13-0.17 0.27-0.25 0.41a1.37 1.37 0 0 0-0.13 0.2 1.28 1.28 0 0 0-0.14 0.21c0.12-0.08-0.07-0.16-0.01-0.27z" fill="#263238"/>
     <path d="m533.6 425.9c1.63-2.87 3-5.92 4.47-8.87s3-5.93 4.45-8.89c3-5.9 13.67-25.78 14.75-27.18 0.06-0.09 0.22 0 0.18 0.1-0.47 1.53-7.12 14.67-8.66 17.6-3.07 5.87-6.31 11.63-9.5 17.43-0.91 1.65-1.86 3.29-2.78 4.94s-1.91 3.27-2.76 4.95a0.09 0.09 0 1 1-0.15-0.08z" fill="#263238"/>
     <path d="m581.4 289.5c-2.2 23.61-9.42 52.54-13.47 57.61-5.13 6.43-42.66 22-44.57 22.44-4.74 1.12-19-32.19-14-33.61 7.65-2.17 35.77-7.49 37.23-9.46s11.46-18.73 21.48-37.41c6.93-12.91 14.7-14.22 13.33 0.43z" fill="#ad6359"/>
     <path d="m527 367.2c-0.54 0.36-8.12 5.54-12.95 7.67-3.61 1.58-14.11 5.88-16.25 2.08-1.47-2.58 4.41-5.84 8.52-8.23 2.16-1.26 4.66-4 3.79-5.41-1.52-2.42-7.07 0.95-10.65 3.72-6.92 5.36-15.85 14.54-20.94 11.35-1.92-1.21-0.26-4.1 2.33-7.06-4.37 3.63-9.13 6.77-11.32 5.51-1.25-0.71-1.47-1.9-1-3.34-1.41 0.68-2.73 0.76-3.76-0.08-1.77-1.42-1.33-3.91 0-6.6a1.85 1.85 0 0 1-1.53-0.73c-3.95-4.57 10.57-21.15 16.07-23.25 16.2-6.22 33.92-7.83 33.92-7.83 7.31 4.37 13.77 32.18 13.77 32.2z" fill="#ad6359"/>
     <path d="m500.4 355.1a28.76 28.76 0 0 0-10.58 5.79c-3.87 3.37-6.24 7-9.36 10.79-0.08 0.1 0.07 0.23 0.15 0.13 1.49-1.79 7.73-8.63 9.36-10.21a27.26 27.26 0 0 1 10.46-6.43s0.02-0.08-0.03-0.07z" fill="#263238"/>
     <path d="m496.3 348.4a68.35 68.35 0 0 0-12.38 6.23c-4.16 2.88-7.16 7.05-10.12 11.08q-2.67 3.63-5.17 7.38c-0.07 0.1 0.08 0.23 0.15 0.13q4.5-6.24 9.35-12.19a36.08 36.08 0 0 1 10.87-9.03c2.38-1.3 4.87-2.41 7.34-3.51 0.03-0.03 0-0.11-0.04-0.09z" fill="#263238"/>
     <path d="m490.8 342.8c-4.15 1.45-7.78 2.7-11.26 5.49-4.6 3.7-8.75 9.45-10.2 11.49-1.61 2.25-3.14 4.55-4.63 6.88-0.06 0.09 0.1 0.2 0.16 0.11a143.2 143.2 0 0 1 11.31-14.65 28.58 28.58 0 0 1 6.65-5.71 51.87 51.87 0 0 1 8-3.58s-0.01-0.03-0.03-0.03z" fill="#263238"/>
     <path d="m515.8 333.2 17 36.31s31.22-13.53 36.22-20.75 11.59-41.61 12.67-58-7-14.93-13-3.87-21.31 38-22.27 38.63-30.62 7.68-30.62 7.68z" fill="#e2231a"/>
     <path d="m533.7 352.3c-2-4.28-4.13-8.54-6-12.89-1.07-2.48-2.16-4.94-3.21-7.43 0-0.09 0.12-0.17 0.17-0.08 2.22 4.21 4.44 8.44 6.47 12.75s4.08 8.56 6 12.88q1.67 3.67 3.12 7.45c0 0.05-0.06 0.09-0.09 0.05-2.33-4.14-4.4-8.43-6.46-12.73z" fill="#263238"/>
     <path d="m548.4 362.1 1.37-0.7c2.57-1.32 5.19-2.72 7.64-4.13l0.93-0.54c0.49-0.28 1-0.57 1.45-0.86 0.25-0.14 0.48-0.29 0.71-0.43l0.26-0.16 0.73-0.46c1-0.61 1.88-1.21 2.72-1.81l0.59-0.42a23.15 23.15 0 0 0 3.64-3.16l0.29-0.35c0.1-0.12 0.18-0.24 0.26-0.34 5.07-7.18 11.59-41.61 12.67-58v-0.69c0.06-1.24 0-2.77 0-4.42-0.61-8-4.55-8.8-8.73-4.69-8.3 26.41-20.56 69.88-24.53 81.16z" opacity=".1"/>
     <path d="m558.3 364.9 78.11-1.22c-0.21-1.58-15.19-47-25.19-63.36-12.82-21-18.52-22.18-21.93-23.05-4.36-1.11-11.8 0.37-13.5 1.38-1.94 1.14-7.29 13-8.81 21.47-3 17-9.12 63.91-8.68 64.78z" fill="#66983c"/>
     <path d="m558.3 364.9 78.11-1.22c-0.21-1.58-15.19-47-25.19-63.36-12.82-21-18.52-22.18-21.93-23.05-4.36-1.11-11.8 0.37-13.5 1.38-1.94 1.14-7.29 13-8.81 21.47-3 17-9.12 63.91-8.68 64.78z" fill="#e2231a"/>
     <path d="m635.4 360.2-76.87 1.27c0.05-0.42 0.09-0.87 0.15-1.36l76.31-1.26c0.13 0.48 0.28 0.93 0.41 1.35zm-3.28-9.81-72.45 1.2c-0.06 0.46-0.11 0.92-0.16 1.36l73.08-1.21c-0.16-0.44-0.31-0.89-0.47-1.35zm-3-8.45-68.4 1.13c0 0.46-0.11 0.91-0.17 1.36l69-1.14zm-3.13-8.45-64.15 1.06-0.15 1.4 64.84-1.07zm-3.28-8.45-59.7 1c-0.07 0.45-0.13 0.91-0.19 1.36l60.43-1zm-3.48-8.45-55 0.91c-0.07 0.45-0.13 0.91-0.19 1.37l55.78-0.92c-0.17-0.46-0.37-0.91-0.56-1.36zm-3.82-8.43-49.92 0.82c-0.07 0.45-0.14 0.9-0.21 1.37l50.78-0.84c-0.18-0.46-0.4-0.91-0.62-1.35zm-4.21-7.92-0.32-0.51-44 0.73c-0.08 0.43-0.16 0.89-0.24 1.36l45-0.74c-0.08-0.29-0.24-0.57-0.41-0.84zm-5.84-8.92-36.2 0.6c-0.16 0.45-0.31 0.9-0.45 1.36l37.59-0.62c-0.31-0.46-0.6-0.91-0.91-1.34zm-6.79-8.37-25.87 0.43c-0.22 0.44-0.43 0.89-0.66 1.37l27.78-0.46c-0.43-0.5-0.83-0.95-1.25-1.34z" opacity=".1"/>
     <path d="m600 282.1c15.74 9.12 59.26 48.64 52.77 60.22s-60.94 15.16-77.29 12.66c-4.86-0.74 3.25-32.13 8.06-34.26 4-1.78 28.2 1.5 28.45 0.09 0.27-1.59-6.2-10.77-16.91-27.68-12.36-19.48-2.03-15.06 4.92-11.03z" fill="#ad6359"/>
     <path d="m559.9 318.6c-10.77 1.7-13.27 3.78-23.11 0.39-6.46-2.23-10.66 0.94-5.79 6.12 8 8.46 22.31 9.19 27.36 8z" fill="#ad6359"/>
     <path d="m590.3 320.2s-13.56-2.92-25.2-2.25c-8.06 0.47-25.47 3.43-36.5 24.84-2.61 5.08-2.74 14.17 4.55 7.42 5.17-4.79 7-9.39 10.52-11.62 0 0 1.21 11.58 6.4 14a105.2 105.2 0 0 0 14 5.36 22 22 0 0 0 1.23-2.53s5.07 1.8 12.62-1.3z" fill="#ad6359"/>
     <path d="m557.5 319.7c-3 3-9.32 9.34-12.66 16.35-3.7 7.79-8.74 23.79-3 26.46 4.23 2 6.69-4 6.69-4s-0.69 7.05 3.53 8c3.84 0.86 5.47-3.85 5.47-3.85s0.31 4.35 4.17 4.46c4.64 0.13 3.21-9 8-12.94 1.15-0.87-12.2-34.48-12.2-34.48z" fill="#ad6359"/>
     <path d="m553.7 338.6c-2.38 3.25-5.9 12-5.25 19.8 0 0.18 0.15 0.26 0.17 0.1a84.71 84.71 0 0 1 5.16-19.86s-0.05-0.07-0.08-0.04z" fill="#263238"/>
     <path d="m561.5 342.5c-1.77 3-5 12.22-4.07 20.08 0 0.17 0.17 0.25 0.18 0.08a90.94 90.94 0 0 1 4-20.13s-0.09-0.07-0.11-0.03z" fill="#263238"/>
     <path d="m543.7 338.6c-3.07 2-4.76 4.33-7 7.16a48.29 48.29 0 0 1-3.5 4.06c-1.15 1.16-2.83 2.89-4.64 2.17a2.88 2.88 0 0 1-1.45-2.56 14 14 0 0 1 0.68-4.39c0-0.05-0.07-0.09-0.09 0a20 20 0 0 0-1 4 4.64 4.64 0 0 0 0.5 2.72c1 1.71 3.31 1.29 4.71 0.31a16 16 0 0 0 2.26-2.09c0.67-0.72 1.31-1.46 1.93-2.23 1.27-1.56 2.46-3.2 3.71-4.78a45.59 45.59 0 0 1 4-4.26 0.07778 0.07778 0 0 0-0.11-0.11z" fill="#263238"/>
     <path d="m540.2 352.5a109.4 109.4 0 0 1 3.55-13.92c0-0.06-0.06-0.1-0.09-0.05-1.87 3.28-4.08 11.17-4.42 13.58s-0.64 5.4 0.06 7.73c1.07 3.52 3.6 3.48 4.52 3.39a4.78 4.78 0 0 0 2.84-1.4 9.55 9.55 0 0 0 1.94-3.37c0-0.06-0.06-0.11-0.09-0.05-0.8 1.76-2.41 3.74-4.39 4.07a3.32 3.32 0 0 1-2.53-0.52 4.35 4.35 0 0 1-1.43-2.66 20.43 20.43 0 0 1 0.04-6.8z" fill="#263238"/>
     <path d="m590.3 320.2-5.89 39.18s68-5 70.13-17.76-35.75-48.66-50.72-57.87c-17.35-10.72-17.49-5.25-10.71 6.87 7.1 12.68 18.81 30.58 18.81 30.58z" fill="#e2231a"/>
     <path d="m634.1 324.5a77.77 77.77 0 0 0-10.94-2.63 74.77 74.77 0 0 0-11.08-1c-2.12-0.05-4.23 0-6.35 0a0.05 0.05 0 0 0 0 0.1 99.08 99.08 0 0 1 11.15 0.86q5.5 0.69 11 1.58c2.06 0.34 4.12 0.77 6.17 1.18a0.08 0.08 0 0 0 0.05-0.09z" fill="#263238"/>
     <path d="m590.5 320.1c0.35 0 19.5 0.46 20.15 0.55-0.15-0.24-6.08-8.55-7-9.76l-0.26-0.37c-0.5-0.51-1-1-1.48-1.54l-1.84-2c0.64 0.65 1.29 1.3 1.92 2 0.3 0.3 0.58 0.62 0.87 0.93q-0.9-1.3-1.77-2.61c-0.94-1.4-1.83-2.82-2.71-4.24a0.04301 0 144.5 0 0 0.07-0.05c1.74 2.42 3.56 4.79 5.31 7.2s8.35 11.26 8.32 11.27-21.23-1-21.65-1a0.1932 0.1932 0 0 1 0.07-0.38z" fill="#263238"/>
     <path d="m596.1 342.8c0.63-4.36 1.23-8.73 2-13.07 0.45-2.47 0.89-4.94 1.36-7.4 0-0.1 0.18-0.08 0.17 0-0.46 4.4-0.93 8.82-1.6 13.21s-1.28 8.73-2 13.08c-0.4 2.48-0.88 4.93-1.44 7.38a0.045 0 0 0 0-0.09 0c0.34-4.42 0.96-8.8 1.6-13.2z" fill="#263238"/>
     <path d="m583.8 360.2c0.32-1.25 0.66-3 1-4.25 0.1-0.32 0.33-0.33 0.27 0-0.19 1.1-0.27 2.3-0.45 3.43 0.94-0.1 1.89-0.21 2.84-0.29l3.29-0.29q3.22-0.3 6.44-0.66 6.52-0.72 13-1.74a253.7 253.7 0 0 0 25.83-5.24c2.37-0.63 4.73-1.3 7.07-2s4.93-1.59 6.82-2.43c0.06 0 0.11 0.07 0 0.1a40.07 40.07 0 0 1-5.79 2.61q-3.14 1.13-6.34 2.06c-4.24 1.24-8.55 2.25-12.88 3.14q-12.89 2.64-26 4.21-3.66 0.44-7.32 0.79c-1.24 0.12-2.47 0.24-3.71 0.33s-4.12 0.44-4.07 0.23z" fill="#263238"/>
     <path d="m577.7 294.4c4.56 0 10.37-8.43 12-14.49 0.11-0.41-1.39-4.14-3-8.75-1-2.81-2-5.95-2.69-8.89-0.15-0.6-17.33 9-17.33 9a47.91 47.91 0 0 1 4.52 10.84 6.06 6.06 0 0 1 0.17 1.23v0.21c0.2 2.34 1.92 10.87 6.33 10.85z" fill="#ad6359"/>
     <path d="m582.9 262.6c0.36 5.18 0.19 17.92-9.58 20.53a12.43 12.43 0 0 1-1.91 0.36 0.88 0.88 0 0 1 0-0.21 7.83 7.83 0 0 0-0.16-1.23 48.16 48.16 0 0 0-4.53-10.85s12.37-6.89 16.18-8.6z" fill="#263238"/>
     <path d="m576.3 237.9c4.81 5.12 10.21 24.1 7.83 30.1-3.44 8.69-13.35 14.24-21.81 9.13-8.2-5-14.8-29.82-11.75-35.71 4.45-8.67 18.63-11.08 25.73-3.52z" fill="#ad6359"/>
     <path d="m564.5 257c0-0.05 0.11 0 0.12 0.09 0.28 1.3 0.82 2.74 2.1 2.88v0.07c-1.47 0.13-2.17-1.79-2.22-3.04z" fill="#263238"/>
     <path d="m565.3 255.3c2-0.68 3.24 3.44 1.35 4.07s-3.05-3.51-1.35-4.07z" fill="#263238"/>
     <path d="m557.3 259.1s-0.08 0.09-0.06 0.14c0.41 1.26 0.67 2.78-0.36 3.54v0.07c1.38-0.61 1.02-2.62 0.42-3.75z" fill="#263238"/>
     <path d="m555.8 258.1c-2.1 0.44-1.06 4.6 0.88 4.19s0.87-4.56-0.88-4.19z" fill="#263238"/>
     <path d="m566.2 251.5c-0.59 0.12-1.15 0.14-1.75 0.21a2.9 2.9 0 0 1-1.82-0.12 0.91 0.91 0 0 1-0.36-1.05 2.28 2.28 0 0 1 1.93-1.22 3.3 3.3 0 0 1 2.34 0.44 1 1 0 0 1-0.34 1.74z" fill="#263238"/>
     <path d="m553 255.6a16.25 16.25 0 0 0 1.51-0.9c0.58-0.36 1.08-0.58 1.37-1.22a0.89 0.89 0 0 0-0.36-1 2.21 2.21 0 0 0-2.26 0.22 3.25 3.25 0 0 0-1.59 1.77 1 1 0 0 0 1.33 1.13z" fill="#263238"/>
     <path d="m570.1 268.2c-0.22 0.39-0.41 0.89-0.86 1.06a3.42 3.42 0 0 1-1.46 0.08 0.04 0-90 0 0 0 0.08 1.78 1.78 0 0 0 1.82 0.22 1.42 1.42 0 0 0 0.68-1.42 0.09055 0.09055 0 0 0-0.18-0.02z" fill="#263238"/>
     <path d="m567.6 264.8a4.56 4.56 0 0 1-2.33 2.78 5.9 5.9 0 0 1-1.55 0.52 1.11 1.11 0 0 1-0.3 0.05h-0.3a0.35 0.35 0 0 1-0.34-0.21 0.59 0.59 0 0 1 0-0.13v-0.11c-0.31-1-0.65-2.5-0.65-2.5-0.31 0.28-1.9 1.64-2 1.12a68.73 68.73 0 0 1-2.14-13.64c0-0.15 0.22-0.18 0.24 0 1.11 4.12 1.49 8.4 2.54 12.56a8 8 0 0 1 1.87-1.22c0.15 0 0.6 2.95 0.78 3.38a6.29 6.29 0 0 0 4.09-2.7c0.01-0.08 0.14-0.03 0.09 0.1z" fill="#263238"/>
     <path d="m564.2 267.4a5.27 5.27 0 0 0 2.53 1 2.39 2.39 0 0 0 1.43-0.32c0.94-0.56 0.7-1.51 0.28-2.25a5.69 5.69 0 0 0-0.82-1.09 6.94 6.94 0 0 1-3.42 2.66z" fill="#263238"/>
     <path d="m566.7 268.4a2.39 2.39 0 0 0 1.43-0.32c0.94-0.56 0.7-1.51 0.28-2.25a2.49 2.49 0 0 0-1.71 2.57z" fill="#ff98b9"/>
     <path d="m575.8 250.6c-3-2.92-3.88-9.81-6.43-10.51-5.5-1.52-10 8.92-15.33 11.62-5.16 2.62-8.55 0.16-9.72-4.51s1-9.27 6.37-13c5.56-3.9 12.25-4.22 16.18-3.8 0 0-2.36-1.44-2.19-2.34s3.7-0.14 4.91 0.33a8.74 8.74 0 0 1 2.51 1.86 9.41 9.41 0 0 1 2.24-1.43 5.56 5.56 0 0 1 3.76-0.16c0.24 0.27-1.52 1.45-2.81 2.17 0 0 4.1 2 5.44 4.87s3.64 18.29 2.67 19c-1.26 0.77-6.42-2.91-7.6-4.1z" fill="#263238"/>
     <path d="m574.6 230.7c-0.06 0-0.09 0.09 0 0.11a9.85 9.85 0 0 1 4.77 2.56 12.24 12.24 0 0 1 2.94 5.73c1 4.09 0.89 8.32 1 12.49a0.11 0.11 0 0 0 0.22 0c0.14-4.43 0.16-9.17-1.09-13.46-1.07-3.65-3.77-7.09-7.84-7.43z" fill="#263238"/>
     <path d="m568.9 238.6a14.4 14.4 0 0 0-4.54 2.65 20.22 20.22 0 0 0-3 4c-2.14 3.06-4.75 5.91-8.25 7.4v0.07a17.55 17.55 0 0 0 8-6.35 42.26 42.26 0 0 1 3.07-4.29 17.94 17.94 0 0 1 4.9-3.2 0.1664 0.1664 0 0 0-0.18-0.28z" fill="#263238"/>
     <path d="m563 230.4a27.37 27.37 0 0 0-7.73 1.12 21.6 21.6 0 0 0-6.81 3.12c-3.53 2.54-5.83 6.74-4.76 11.13a9.39 9.39 0 0 0 3.77 5.59 0.1221 0.1221 0 0 0 0.14-0.2 9.68 9.68 0 0 1-3.12-11.15c1.78-4.3 6.09-6.72 10.33-8.05a39.34 39.34 0 0 1 8.18-1.53z" fill="#263238"/>
     <path d="m579.6 254s1.32-7.55 4.56-7.34 4.11 9.85 1.61 12.4a3.4 3.4 0 0 1-4.9 0.27z" fill="#ad6359"/>
     <path d="m584.3 249.4a0.04301 0-125.5 0 0 0.05 0.07c-1.72 1.86-1.91 4.35-1.74 6.76a1.88 1.88 0 0 1 2.33-1.66 0.07 0.07 0 0 1 0 0.14 2.11 2.11 0 0 0-1.77 1.64 9.74 9.74 0 0 0-0.21 2.15c0 0.24-0.4 0.3-0.43 0.05v-0.06c-1.34-2.68-1.01-7.48 1.77-9.09z" fill="#263238"/>
     <path d="m570 287.7a17 17 0 0 0 1.19 4.33 12.14 12.14 0 0 0 2.31 3.75 6.07 6.07 0 0 0 3.69 2 6.6 6.6 0 0 0 4-1.16 22.46 22.46 0 0 0 6.3-6.18 32.5 32.5 0 0 0 4.2-7.92 26.51 26.51 0 0 1-1.5 4.28 29.15 29.15 0 0 1-2.22 4 22.66 22.66 0 0 1-2.85 3.57 17.63 17.63 0 0 1-3.54 2.94 7.27 7.27 0 0 1-4.51 1.18 6.37 6.37 0 0 1-4-2.28 14.34 14.34 0 0 1-3.07-8.51z" fill="#263238"/>
     <rect transform="rotate(-1.09 531.5 378.3)" x="490" y="375.2" width="80.39" height="3.6" fill="#c7c7c7"/>
     <polygon points="490 379.6 544.6 378.6 541.8 375 489.9 376" fill="#a6a6a6"/>
     <polygon points="460.1 380.2 452.5 327.1 530.9 325.6 538.4 378.7" fill="#c7c7c7"/>
     <path d="m500.2 352.8a4.67 4.67 0 0 1-4.6 4.85 4.87 4.87 0 0 1-4.94-4.66 4.67 4.67 0 0 1 4.59-4.86 4.87 4.87 0 0 1 4.95 4.67z" fill="#fff"/>
    </g>
    <path d="m-2594 4286 229.5-723.1 163-4.666 2184 727.8z" fill="#484542"/>
   </g>
   <g transform="matrix(-.9666 0 0 .9775 78.39 8.998)">
    <path d="m13.74 151.1c7.643 13.61 15.67 16.94 31.28 14.49 16.15-1.182 31.26-4.937 32.32-25.63 0.653-28.63-5.382-73.22-48.26-65.41-35.29 11.08-27.95 44.99-15.35 76.55z" fill="#b68460"/>
    <path d="m5.356 124.5c-3.802-7.866-10.54-21.16-9.886-29.51 2.863-14.23 7.004-17.14 14.84-25.31 5.332-6.803-29.2 5.966 15.5-12.15 2.396-0.9711 5.045-0.9114 7.818-0.6836-15.62-10.29 11.76 1.797 17.46 3.847-16.83-10.11-20.24-16.11 13.64 3.819 11.72 6.5 16.43 23.91 15.54 38.52l-4.77 9.775c-2.604-5.71-6.115-14.05-7.777-22.43-4.339-3.641-10.25-4.49-12.36-9.775-8.185-0.4467-14.15-0.7822-19.08 2.304-6.905-0.838-13.3 1.357-20.67 4.021-11.86 9.733-8.151 24.61-10.25 37.56z" fill="#5c3f2a"/>
    <path d="m31.11 137.1c-0.2018-4.696 0.9668-10.69 3.577-14.95 3.884-6.331 9.191-5.059 12.59 1.725 1.661 3.318 2.923 6.761 3.71 10.35-3.779-0.0693-7.01 0.3936-10.48 0.9062-3.159 0.4662-5.681 1.042-9.391 1.969z" fill="#1c1c1c"/>
    <path d="m32.7 134.7c2.334 0.2757 14.8-1.213 16.1-2.228 0.8834-0.6045-0.1467-3.714-1.921-3.234l-6.36 1.653-4.836 0.647c-0.3785-0.7668-0.7841-1.482-1.855-0.9344-1.152 1.366-1.385 2.731-1.126 4.097z" fill="#fff"/>
    <ellipse cx="31.11" cy="97.86" rx="2.782" ry="6.038" fill="#1c1c1c"/>
    <ellipse transform="matrix(.9894 -.1451 .1236 .9923 0 0)" cx="31.45" cy="100.7" rx="3.185" ry="5.814" fill="#1c1c1c"/>
    <path d="m25.81 92.54c0.4119-2.351 0.7451-4.736 5.173-5.371 1.711-0.1481 1.62-0.0498 1.717 0.1961-3.023 1.819-5.08 3.576-5.98 5.26-0.6239 1.025-1.042 0.6426-0.91-0.0847z" fill="#302116"/>
    <path d="m26.6 104.3c-0.133 1.064-0.5375 2.185 1.722 3.163 1.854 0.3542 2.343-0.5948 3.047-1.438-1.59 0.0734-3.18-8e-3 -4.77-1.725z" fill="#322217"/>
    <path d="m45.95 104.6c1.177-0.2153 2.077-1.871 3.047-3.163-0.1577 2.292-0.7349 4.053-2.385 4.456-0.9875-0.2233-0.5848-0.8236-0.6625-1.294z" fill="#2f2016"/>
    <path d="m41.18 86.93c-0.5414-0.5357-0.3725-0.9613 0.3975-1.294 2.659 0.0228 5.127 0.9064 7.287 3.162 0.04011 0.6535 0.1706 1.391-1.06 0.8626-1.971-1.938-4.285-2.39-6.625-2.731z" fill="#302116"/>
    <path d="m26.2 159.4-41.67 7.254c-16.32 1.839-18.16 10.56-20.24 17.89l0.7494 27.65 25.86 4.066 2.248-8.538 8.244 8.538 6.745 20.33c2.665 15.22-3.682 22.61-7.12 32.53 0 0 32.84 4.783 49.34 5.911 17.32 1.184 51.09 0.5946 51.09 0.5946-2.109-19.6-7.66-38.45-3.747-59.36l5.621-25.62 5.246-4.066-10.49-26.02-9.369-12.6-14.24 2.44c-13.95 6.866-30.33 9.355-48.27 9.009z" fill="#bec056"/>
    <path d="m-9.092 216.2c-2.208 10.48-9.943 18.13-10.49 27.24l-1.742 28.86c-2.69 12.64-6.601 4.271-11.12-4.994-0.2991 4.729 0.2885 6.288 1.229 14.47-2.343 9.713-12.91 4.672-14.11-12.75 0.875-7.986-1.751-14.35 5.505-22.34l3.252-11.79c1.943-7.043 0.2345-13.82 1.619-22.77z" fill="#d9b26b"/>
    <path d="m108.6 186.6c7.128 16.59 31.12 6.701 25.37-15.07-4.236-14.43-15.78-27.26-18.43-41.25-10.07-12.85-14.92-19.96-27.34-27.71-2.101-1.774-6.417 1.169-2.231 9.076 6.935 10.91 10.14 13.63 8.746 15.29-0.8846 1.056-4.803 1.913-10.13-5.13-0.252-1.205-7.533-6.493-6.146 1.254l10.31 24.9 7.214 9.047z" fill="#d9b26b"/>
    <path d="m6.785 334.2c1.05 7.725 0.6675 15.45 0.3228 23.18 2.592 8.256 8.993 11.71 15.82 14.64 8.605-0.0812 14.87-5.801 20.34-13.42 4.039-15.26 6.78-30.78 7.102-46.76-0.983-8.116-3.409-18.2-11.3-19.52l-4.519 5.692 1.937 30.9-13.23-4.879-19.05 3.253z" fill="#ebddd4"/>
    <path d="m54.24 267c-1.969 35.92 1.425 67.32 6.416 98.38l43.47-2.846c0.1261-28.53-0.2526-57.29-2.669-86.97-0.8721-20.84-40.66-23.86-47.22-8.567z" fill="#234c8a"/>
    <path d="m60.66 365.4c-2.999 7.391-2.928 15.65-1.279 23.99l51.34 0.4066c-0.5623-9.08-1.248-18.95-7.12-27.24-4.605-6.505-14.6-11.24-22.86-10.57-7.839 0.6351-17.92 8.092-20.08 13.42z" fill="#eee2db"/>
    <path d="m3.585 262.6c4.046-17.46 45.42-11.22 43.91 3.666-1.676 13.27-3.513 31.21-5.817 62.65-2.136 17.46-46.31 14.71-45.95 0.0985 1.042-21.14 0.7469-46.59 7.862-66.42z" fill="#234c8a"/>
   </g>
   <path d="m-223.9 254.3-36.15 0.4206 0.1095 124z" fill="#9eb394"/>
   <g transform="matrix(.07743 0 0 .07875 -11.22 -2.594)" fill="#aaac50">
    <path d="m-2909 2676h235.3c20.69 0 37.35 19.06 37.35 42.73v223.6c0 23.67-16.66 42.73-37.35 42.73h-235.3c-20.69 0-37.35-19.06-37.35-42.73v-223.6c0-23.67 16.66-42.73 37.35-42.73z" stroke-linecap="round" stroke-linejoin="round" stroke-width="18.32"/>
    <path d="m-3002 2985h422.2c28.08 0 50.68 19.65 50.68 44.06v518.4c0 24.41-22.61 44.06-50.68 44.06h-422.2c-28.08 0-50.68-19.65-50.68-44.06v-518.4c0-24.41 22.61-44.06 50.68-44.06z" stroke-linecap="round" stroke-linejoin="round" stroke-width="21.13"/>
    <path d="m-2950 3394h71.91c32.55 0 58.75 26.2 58.75 58.75v410.5c0 32.55-26.2 58.75-58.75 58.75h-71.91c-32.55 0-58.75-26.2-58.75-58.75v-410.5c0-32.55 26.2-58.75 58.75-58.75z" stroke-linecap="round" stroke-linejoin="round" stroke-width="18.32"/>
    <path d="m-2701 3407h80.72c33.29 0 60.08 26.8 60.08 60.08v394.9c0 33.29-26.8 60.08-60.08 60.08h-80.72c-33.29 0-60.08-26.8-60.08-60.08v-394.9c0-33.29 26.8-60.08 60.08-60.08z" stroke-linecap="round" stroke-linejoin="round" stroke-width="18.32"/>
    <path d="m-2529 3248 211.3-188.6c94.47-89.85 52.13-127.6-15.66-99.09l-223.1 122z"/>
    <path d="m-3016 3238-161.1-196.6c-54.82-74.96-26.65-112.2-13.82-102.4l221.3 139z"/>
   </g>
   <g transform="matrix(.09014 0 0 .08745 30.31 -54.25)">
    <path d="m-2870 2797c18.13-14.99 35.59-31.37 54.14-45.48 39.88-23.2 79.75-46.39 119.6-69.59 24.65-6.973 47.53-8.736 68.9-4.191 30.72 8.482 41.33 18.92 57.59 28.8 18.36 17.26 39.27 52.29 59.49 91.52 15.74 30.53 26.21 90.03 30.35 126.3-3.882 35.64-17.23 67.4-38.45 95.95-35.85 13.38-75.88 19.24-111.7 32.62-81.37-87.8-158.6-168.1-239.9-255.9z" fill="#6ec845"/>
    <path d="m-2626 3060c-12.27 35.06-35.28 52.5-59.88 78.89l-27.34 15.49c-24.47-10.89-30.77-27.22-31.76-45.15l20.06-65.85c-9.524-10.03-6.236-26.05-6.383-36.09l2.955-22.23c-37.52-23.12-103.9-27.88-108.3-11.1-4.894 18.12-11.09 35.36-8.443 58.57l6.282 75.92c-11.15 19.49-26.84 40.46-64.61 28.98-24.3-30.43-39.6-61.63-49.75-88.52-15.96-31.82-12.35-39.67-12.64-51.03l-12.81 13.52c16.2 14.42 29.37 88.14 42.93 131.1 2.399 17.92-33.85 41.3-43.35 26.89l-55.64-47.64 50.63 68.34c17.92 16.94-3.144 62.28-31.76 58.32-54.34-11.73-78.47-51.02-96.96-99.71-3.567-49.39 1.18-95.04 13.37-137.3 9.524-16.02 21.09-30.66 38.45-41.39 6.122-17.57 14.13-33.01 23.41-47.03 48.54-46.88 91.24-87.23 145-130.7 28.53-13.35 155.6 19.26 194.3 61.08 23.55 32.59 40.89 69.54 51.83 111 7.772 32.36 22.42 68.03 20.35 95.64z" fill="#64c239"/>
    <path d="m-2600 2688c46.58-41.63 87.36-96.98 160.5-98.77 107.5-99.02 149.8-40.62 247.4-13.17l412.6-13.4c73.92 16.71 146.8 37.87 216.3 74.5l85.11 46.56 52.01 186.2-9.457 183.6 3.546 90.46-140.7 137-69.75 127.7c-21.71 36.79-32.76 79.57-36.65 126.4l53.2 94.45 54.38 98.44 47.29 149c2.537 37.76 0.6212 68.01-1.182 98.44-28.47 20.29-58.05 39.32-104 39.91-35.99 1.038-71.09-1.919-100.5-30.6l-4.729-27.94-33.1-73.17-118.2-119.7-137.1-10.64-125.3 18.62c-35.78 14.95-52.35 42.87-73.29 67.85l-37.83 79.82c8.56 46.06 20.72 40.38 10.64 95.78-12.04 32.97-77.23 27.49-115.9 41.24-14.58 5.19-36.95 21.85-72.02 38.49-38.47 14.83-87.83 10.72-74.09-13.61-12.33 8.094-30.91-11.13-19.05-23.26-9.426 3.099-21.93-8.748-6.844-19.92 8.172-7.118 34.2-23.44 48.47-34.25 90.12-48.08 99.15-53.86 75.07-119.1-37.39-110.1-32.4-284.4 60.21-335.9 87.62-27.23 141.3-31.79 228.2-39.26-5.636-51.12-26.22-95.51-47.29-139.7-42.88-76.16-87.63-152.2-127.7-224.8l-95.75-183.6c-25.91 14.35-48.81 35.09-79.2 39.91l-46.66 4.752c29.82-129.8 32.75-248.3-78.78-318.4z" fill="#65c239"/>
    <path d="m-1533 2658c19.28-7.901 99.89 3.693 130.3 7.648 52.79 16.88 93.27 54.53 133.7 92.19 35.54 34.25 63.76 72.58 107 114.8l58.51 111-175.5-58.32-125.4 92.19-27.24 126.8c-21.04-91.35-5.142-182.7 5.911-274-21.81-67.2-75.83-183.2-107.3-212.2z" fill="#65c239"/>
    <path d="m-1431 3144-2.848 168.6 71.89-35.75c36.51-1.59 71.01 8.065 105.3 18.81l85.26 118.5 21.61 77.65c17.09-163.2 87.17-311.3 78.69-423.8-9.419-52.09-20.61-59.62-31.76-84.66-48.45-87.95-159.6-80.62-227.4-37.63-64.56 29.24-98.06 95.45-100.8 198.3z" fill="#6ec845"/>
    <path d="m-1434 3313-75.23 39.51c-28.28 31.11-49.64 66.89-70.16 103.2l-13.43 91.47c8.868 12.94 21.62 19.33 36.78 21.64 10.59-1.248 21.18-1.625 31.76-13.17l22.57-52.68 33.44-42.33 27.58-16.93 12.54 15.05-15.05 29.16-54.33 66.79c-4.3 49.61 4.117 62.5 44.3 79.96l82.75-49.86 31.55-21.46c12.94-2.821 26.82-2.862 3.557 13.94l-108.7 83.72c-10.99 10.38-11.51 25.8-11.7 41.39 5.248 14.74 9.438 29.47 28.42 44.21l102-35.75c34.13-15.09 25.17-8.968 53.35-32.43 2.334 5.841 8.122 17.34-21.59 45.6l-86.93 34.81s-22.65 38.33 5.852 61.14c28.14 3.331 56.28 5.957 84.43 1.881 50.66-28.31 83.23-67.72 109.5-111 20.08-54.63 36.08-111 38.45-173.1 17.46-71.85-61.96-184.8-114.5-241.8-32.82-9.274-60.18-25.72-105.3-18.81z" fill="#64c239"/>
    <path d="m-2190 2468c-4.248 34.87-3.225 71.22-1.24 107.8 7.098 68.86 8.181 142.2 23.7 204.8 14.13 57.96 42.93 122.4 88.66 163.6 44.46 30.56 138.2 49.96 215.2 2.661 65.95-51.23 94.03-137.2 82.75-259.4-5.309-82.85-12.5-166.4-27.19-252.8-38.09-101.7-144.7-110.9-193.9-105.1-132.1 12.73-172.5 86.92-188 138.4z" fill="#4db039"/>
    <path d="m-2034 2854c-37.71-1.984-27.45 13.86-43.15 8.647-34.43-11.44-29.55-51.28-26.01-61.86 12.26-16.07 30.74-22.93 64.04-16.71 10.76 2.008 49.67 17.83 67.76 36 15.74 14.39 21.81 57.67-9.911 55.6-20.16-1.316-23.63-20.14-52.74-21.67z" fill="#0e230a"/>
    <path d="m-2112 2836c-3.641-13.82-1.546-14.07 1.773-11.64 2.563 9.312 4.049 18.62 9.162 27.94 4.489 6.842 8.877 13.74 15.66 19.29 1.118 4.849-0.8323 5.67-4.433 4.324-7.112-5.321-12.09-10.8-15.07-17.46-3.477-7.765-4.996-14.49-7.093-22.45z" fill="#071005"/>
    <path d="m-2111 2618c-0.4036 15.51 5.006 30.74 17.97 45.62-6.83 17.24-16.56 18.91-28.83 20.83-6.436 1.462-8.621 7.895 0 5.977 11.34 1.47 23.22-2.899 35.94-16.46 3.142-9.618 3.28-19.57 2.508-29.63 3.741-0.308 7.477-0.6471 10.45-6.585 1.644-12.09-2.108-12.8-6.687-11.76-2.458 0.9974-4.166 2.838-5.852 4.703-12.71-12.82-25.94-28.64-35.97-38.73l-18.78-21c-5.654-4.138-8.243-5.89-2.702 8.186z" fill="#0e230a"/>
    <path d="m-2050 2630c-3.634-6.859-7.635 1.226-5.434 5.644 4.172 5.489 7.687 11.1 15.05 15.99 1.786 11.88 2.872 23.73 15.46 36.22 12.36 11.89 25.28 23.21 46.39 25.87 4.822-0.2505 8.264-0.8891 2.09-4.233-26.48-7.992-35.73-21.53-47.23-34.33 5.345-4.162 7.07-9.681 9.195-15.05 1.56-11.19 2.309-21.87 0-30.57l36.36-29.63c1.53-5.296-3.319-2.696-7.105-1.411l-41.38 24.46c-4.18 2.822-6.966 6.585-8.36 11.29-6.156 1.384-11.6-1.957-15.05-4.233z" fill="#0e230a"/>
    <path d="m-1729 3800c3.096-68.49-63.07-68.4-89.16-5.955-7.283 55.53-28.25 118.6-15.63 166.4 3.4 12.88 25.85 23.99 35.41 13.36 4.754-5.287 11.11 19.57 25.02-4.258 32.63 26.87 11.69-80.66 31.33-91.79 8.682-32.51 9.767-82.48 13.03-77.79z" fill="#65c239"/>
    <path d="m-2124 3510c-2.529-26.93-9.732-48.61-16.57-70.69l481.6 1.383c-19.21 42.6-20.47 96.1-20.47 96.1 53.28 80.21 64.35 119.7 108.7 191.4l-196.2 155.6c-44.16-43.48-87.21-86.12-118.2-119.7-77.76 0.3168-132.3-12.1-139.5-11.05-23.68 3.439-103.2 16.64-123 19.04-23.77 19.28-27.76 7.26-73.29 67.85l-131.3-290.7c70.79-20.23 142-39.87 228.2-39.26z" fill="#40652f"/>
   </g>
  </g>
 </g>
 <style type="text/css">.custom-controls {
height: 64px;
fill: #fff;
}

.control-icon {
opacity: 0;
animation: icon-fade-in-out 4s ease-in-out infinite;
animation-fill-mode: forwards;
}

.stop {
animation-delay: .3s;
}

.play {
animation-delay: .5s;
}

.gamepad {
animation-delay: .7s;
padding: 0 0 0 20px;
}

@keyframes icon-fade-in-out {
0% {
opacity: 0;
}

10% {
opacity: 1;
}

80% {
opacity: 1;
}

90% {
opacity: 0;
}

100% {
opacity: 0;
}
}</style>
 <g transform="matrix(.2766 0 0 .2807 212.1 12.07)">
  <path d="m199.9 21.53v42.36h43.23v-42.36zm48.4 0 16.89 20.92-16.89 21.43h20.77l6.614-8.414 6.848 8.414h20.95l-17.41-21.55 16.36-20.81h-20.77l-6.093 7.79-6.384-7.79zm-247 9.48e-4v42.36h19.15v-15.69c5.164 0 7.601 4.434 8.414 15.69h19.85c-0.8704-8.13-3.714-15.12-8.355-20.3 3.191-2.161 4.932-5.459 4.932-9.382 0-6.311-4.816-12.68-15.73-12.68zm106 0v42.36h30.17c10.1 0 14.8-5.173 14.8-11.71 0-3.639-1.334-6.879-6.789-9.722 4.352-2.445 5.628-5.63 5.628-9.098 0-4.889-2.785-11.83-16.77-11.83zm50.84 0v42.36h35.92v-10.63h-16.77v-31.73zm-31.69 8.528h1.161c3.888 0 5.049 1.762 5.049 4.093 0 3.013-1.567 4.15-5.745 4.15h-0.4641zm-106 0.1699h1.161c3.597 0 4.526 2.388 4.526 4.208 0 2.729-1.682 3.979-5.164 3.979h-0.5222zm196.8 8.344h8.439v8.267h-8.439zm-90.86 6.837h1.334c4.004 0 5.338 1.989 5.338 4.776 0 3.184-1.683 4.378-6.093 4.378h-0.5794z" fill="#e2231a" stroke-width="1.856"/>
  <path d="m60.84 16.94-10.84 41.02 42.13 10.56 10.84-41.02zm12.59 20.75 8.224 2.06-2.117 8.008-8.224-2.061z" fill="url(#linearGradient9617)" stroke-width="1.862"/>
 </g>
</svg>
