<svg width="200" height="200" version="1.1" viewBox="1 0 33 42" xmlns="http://www.w3.org/2000/svg">
 <g transform="matrix(.21 0 0 .21 -4.06 .01355)">
  <path d="m106 18.4c-46.3 0-83.8 37.5-83.8 83.8s37.5 83.8 83.8 83.8 83.8-37.5 83.8-83.8-37.5-83.8-83.8-83.8zm-59.3 99.4c-1.7 0-3-1.4-3-3 0-1.7 1.4-3 3-3 1.7 0 3 1.4 3 3 0 1.7-1.3 3-3 3zm123.5-48.3c-2.7 0-5-2.2-5-5 0-2.7 2.2-5 5-5 2.7 0 5 2.2 5 5s-2.2 5-5 5z" fill="#d03f27"/>
  <circle cx="167.8" cy="148.8" r="7.8" fill="#e56250"/>
  <circle cx="33.58" cy="13.9" r="7.8" fill="#e56250"/>
  <circle cx="17.18" cy="26.5" r="4.8" fill="#ab2817"/>
  <circle cx="48.98" cy="16" r="2.1" fill="#e56250"/>
  <circle cx="20.1" cy="165.7" r="4.6" fill="#e56250"/>
  <circle cx="147.3" cy="188" r="5.2" fill="#ab2817"/>
  <circle cx="190.1" cy="59.6" r="4.2" fill="#e56250"/>
  <rect transform="matrix(.2839 -.9588 .9588 .2839 -17.58 180.8)" x="73.9" y="63.8" width="76.8" height="76.8" fill="#fff"/>
  <rect transform="matrix(.2839 -.9588 .9588 .2839 -17.5 180.9)" x="104.9" y="94.7" width="14.9" height="14.9" fill="#d03f27"/>
  <g fill="#79c8cd">
   <circle cx="57.8" cy="38.3" r=".6" enable-background="new    " opacity=".28"/>
   <circle cx="51.9" cy="48.2" r="2" enable-background="new    " opacity=".28"/>
   <circle cx="48.8" cy="68.6" r="1.1" enable-background="new    " opacity=".28"/>
  </g>
  <circle cx="67" cy="53.7" r="31.2" fill="#4c4294"/>
  <path d="m98.2 53.7c0-7.4-2.6-14.3-7-19.6-0.1 0-17.8 3.9-22 17.2-3.7 11.7-6.9 23.3-24.2 24.6 5.6 5.6 13.4 9 22 9 17.2 0 31.2-14 31.2-31.2z" fill="#824494"/>
  <path d="m98.2 47c2.5 0.4 5.1 1 7.5 1.9 1.2 0.4 2.4 0.9 3.6 1.6 0.6 0.4 1.1 0.8 1.6 1.3s0.8 1.3 0.8 2.1c-0.1 0.8-0.5 1.5-0.9 2-0.5 0.5-1 1-1.6 1.3-1.1 0.7-2.3 1.3-3.6 1.8-2.4 1-5 1.6-7.5 2.2-10.1 2.2-20.5 2.9-30.8 2.9-10.3-0.1-20.7-0.7-30.8-2.9-2.5-0.6-5.1-1.2-7.5-2.2-1.2-0.5-2.4-1-3.6-1.7-0.6-0.4-1.1-0.7-1.6-1.3-0.5-0.5-1-1.1-1.1-1.9-0.2-0.8 0.1-1.6 0.5-2.2s1-1 1.5-1.4c1.1-0.8 2.3-1.3 3.5-1.7 2.4-0.9 5-1.5 7.5-1.9-2.5 0.7-4.9 1.4-7.3 2.4-1.2 0.5-2.3 1.1-3.3 1.8-1.1 0.9-2 1.9-1.7 2.9s1.3 1.8 2.4 2.4 2.2 1.1 3.4 1.5c2.4 0.8 4.9 1.4 7.4 1.9 5 0.9 10.1 1.5 15.2 1.9s10.2 0.5 15.3 0.5 10.2-0.2 15.3-0.5c5.1-0.4 10.2-1 15.2-1.9 2.5-0.5 5-1.1 7.4-1.9 1.2-0.4 2.4-0.9 3.4-1.5s2.1-1.4 2.2-2.4-0.8-2-1.8-2.7-2.2-1.3-3.3-1.8c-2.4-1.1-4.9-1.9-7.3-2.5z" fill="#79c8cd"/>
  <path d="m84.3 26.9c2.1-1.5 4.3-2.9 6.6-4 1.2-0.6 2.4-1.1 3.7-1.4 0.7-0.1 1.3-0.2 2-0.2 0.7 0.1 1.5 0.3 2 0.9s0.7 1.4 0.8 2.1c0 0.7 0 1.4-0.2 2.1-0.3 1.3-0.7 2.6-1.3 3.8-1 2.4-2.4 4.7-3.7 6.9-5.6 8.7-12.5 16.5-19.7 23.9-7.3 7.3-15.1 14.1-23.8 19.8-2.2 1.4-4.4 2.7-6.8 3.8-1.2 0.5-2.4 1-3.7 1.3-0.7 0.1-1.3 0.3-2 0.3s-1.5-0.1-2.1-0.5c-0.7-0.4-1.1-1.2-1.2-1.9s-0.1-1.4 0.1-2.1c0.3-1.3 0.7-2.5 1.3-3.7 1.1-2.4 2.5-4.5 4-6.6-1.3 2.2-2.5 4.5-3.5 6.9-0.5 1.2-0.9 2.4-1 3.6-0.2 1.2 0 2.5 0.9 3s2.2 0.3 3.4 0 2.3-0.8 3.5-1.4c2.3-1.1 4.4-2.5 6.5-3.9 3.9-3.1 7.9-6.2 11.8-9.6 3.9-3.3 7.6-6.8 11.2-10.5 3.6-3.6 7.1-7.4 10.4-11.2 3.3-3.9 6.5-7.9 9.4-12.1 1.4-2.1 2.8-4.3 3.9-6.5 0.5-1.1 1-2.3 1.3-3.5s0.4-2.5-0.2-3.3-2-0.9-3.2-0.7-2.4 0.6-3.6 1.1c-2.3 1.1-4.6 2.3-6.8 3.6z" fill="#79c8cd"/>
  <g fill="#79c8cd">
   <circle cx="72.6" cy="34.2" r="1.4" enable-background="new    " opacity=".28"/>
   <circle cx="64.4" cy="28.8" r=".9" enable-background="new    " opacity=".28"/>
   <circle cx="71.3" cy="49.1" r="1.3" enable-background="new    " opacity=".28"/>
   <circle cx="71.9" cy="76.9" r=".7" enable-background="new    " opacity=".28"/>
  </g>
  <g fill="#79c8cd">
   <circle cx="84.3" cy="69.7" r="1.1" enable-background="new    " opacity=".28"/>
   <circle cx="94.4" cy="49.4" r=".3" enable-background="new    " opacity=".28"/>
   <circle cx="46.7" cy="37.7" r="1.1" enable-background="new    " opacity=".28"/>
   <circle cx="41.8" cy="50.7" r=".6" enable-background="new    " opacity=".28"/>
   <circle cx="140.3" cy="128.3" r=".6" enable-background="new    " opacity=".28"/>
  </g>
  <g fill="#fff">
   <circle cx="138.1" cy="152" r="1.5" enable-background="new    " opacity=".28"/>
   <circle cx="142.7" cy="126.8" r=".8" enable-background="new    " opacity=".28"/>
   <circle cx="128.5" cy="135" r="1.3" enable-background="new    " opacity=".28"/>
   <circle cx="121.4" cy="152.4" r=".4" enable-background="new    " opacity=".28"/>
  </g>
  <g transform="translate(.6873 -5.269)">
   <circle cx="148.3" cy="153.4" r="35.8" fill="#59b24a"/>
   <path d="m112.6 153.4c0 8.5 3 16.3 8 22.5 0.1 0 20.4-4.5 25.2-19.7 4.2-13.4 8-26.7 27.8-28.2-6.5-6.4-15.4-10.4-25.2-10.4-19.8 0-35.8 16-35.8 35.8z" fill="#f2e140"/>
   <path d="m179.3 134c2.4-1.6 4.8-3.1 7.4-4.3 1.3-0.6 2.7-1.1 4.1-1.4 0.7-0.1 1.4-0.2 2.2-0.2 0.7 0.1 1.5 0.4 2 1s0.7 1.4 0.7 2.1-0.1 1.5-0.2 2.2c-0.3 1.4-0.8 2.8-1.4 4.1-1.2 2.6-2.6 5.1-4.2 7.5-3.1 4.8-6.7 9.4-10.3 13.7-3.7 4.4-7.6 8.6-11.6 12.7-4.1 4-8.3 7.9-12.6 11.7-4.4 3.7-8.9 7.3-13.7 10.4-2.4 1.6-4.9 3-7.5 4.2-1.3 0.6-2.7 1.1-4.1 1.5-0.7 0.2-1.4 0.3-2.2 0.3-0.7 0-1.5-0.1-2.2-0.5s-1.1-1.2-1.2-1.9-0.1-1.5 0.1-2.2c0.3-1.4 0.8-2.8 1.4-4.1 1.2-2.6 2.7-5.1 4.2-7.5-1.5 2.4-2.9 4.9-4 7.6-0.5 1.3-1 2.7-1.2 4.1-0.1 0.7-0.1 1.4 0 2.1s0.5 1.3 1 1.6c1.2 0.6 2.7 0.4 4 0.1 1.4-0.4 2.7-0.9 3.9-1.5 2.6-1.2 5-2.7 7.4-4.3 9.4-6.4 18-14 26.1-22.1s15.7-16.7 22.1-26.1c1.6-2.4 3.1-4.8 4.3-7.4 0.6-1.3 1.1-2.6 1.5-4 0.3-1.3 0.5-2.9-0.3-3.9-0.4-0.5-1-0.8-1.7-0.9s-1.4 0-2.1 0.1c-1.4 0.3-2.7 0.7-4 1.3-3 1.1-5.5 2.5-7.9 4z" fill="#f2e140"/>
   <g fill="#fff">
    <circle cx="158.9" cy="171" r=".7" enable-background="new    " opacity=".28"/>
    <circle cx="165.6" cy="148.3" r="2.3" enable-background="new    " opacity=".28"/>
    <circle cx="141.9" cy="175.7" r="1.6" enable-background="new    " opacity=".28"/>
    <circle cx="151.3" cy="181.8" r="1" enable-background="new    " opacity=".28"/>
    <circle cx="171.6" cy="171.7" r="1.2" enable-background="new    " opacity=".28"/>
    <circle cx="177.2" cy="156.8" r=".6" enable-background="new    " opacity=".28"/>
   </g>
  </g>
  <g fill="#fff">
   <circle cx="57.1" cy="153.9" r="7.1" enable-background="new    " opacity=".35"/>
   <circle cx="140.3" cy="38.2" r="5.3" enable-background="new    " opacity=".35"/>
   <circle cx="173.4" cy="99" r="1.8" enable-background="new    " opacity=".35"/>
   <circle cx="94.8" cy="153.5" r="3" enable-background="new    " opacity=".35"/>
  </g>
 </g>
</svg>
