<svg width="200" height="200" version="1.1" viewBox="1 0 33 42" xmlns="http://www.w3.org/2000/svg">
 <g transform="matrix(.21 0 0 .21 -2.947 .02406)">
  <path d="m98.7 18.1c-47.3 0-85.7 38.3-85.7 85.7 0 47.3 38.3 85.7 85.7 85.7 47.3 0 85.7-38.3 85.7-85.7s-38.4-85.7-85.7-85.7zm-60.6 101.6c-1.7 0-3.1-1.4-3.1-3.1s1.4-3.1 3.1-3.1 3.1 1.4 3.1 3.1-1.4 3.1-3.1 3.1zm126.3-49.3c-2.8 0-5.1-2.3-5.1-5.1s2.3-5.1 5.1-5.1 5.1 2.3 5.1 5.1c-0.1 2.8-2.3 5.1-5.1 5.1z" fill="#d03f27"/>
  <path d="m35 151.4a7.9 7.9 0 0 1-7.9 7.9 7.9 7.9 0 0 1-7.9-7.9 7.9 7.9 0 0 1 7.9-7.9 7.9 7.9 0 0 1 7.9 7.9z" fill="#e56250"/>
  <path d="m174.4 13.63a7.9 7.9 0 0 1-7.9 7.9 7.9 7.9 0 0 1-7.9-7.9 7.9 7.9 0 0 1 7.9-7.9 7.9 7.9 0 0 1 7.9 7.9z" fill="#e56250"/>
  <path d="m188.2 26.43a4.9 4.9 0 0 1-4.9 4.9 4.9 4.9 0 0 1-4.9-4.9 4.9 4.9 0 0 1 4.9-4.9 4.9 4.9 0 0 1 4.9 4.9z" fill="#ab2817"/>
  <path d="m152.9 15.83a2.1 2.1 0 0 1-2.1 2.1 2.1 2.1 0 0 1-2.1-2.1 2.1 2.1 0 0 1 2.1-2.1 2.1 2.1 0 0 1 2.1 2.1z" fill="#e56250"/>
  <path d="m180 170.2a4.7 4.7 0 0 1-4.7 4.7 4.7 4.7 0 0 1-4.7-4.7 4.7 4.7 0 0 1 4.7-4.7 4.7 4.7 0 0 1 4.7 4.7z" fill="#e56250"/>
  <path d="m51.57 189.7a5.3 5.3 0 0 1-5.3 5.3 5.3 5.3 0 0 1-5.3-5.3 5.3 5.3 0 0 1 5.3-5.3 5.3 5.3 0 0 1 5.3 5.3z" fill="#ab2817"/>
  <path d="m11.35 56.31a4.3 4.3 0 0 1-4.3 4.3 4.3 4.3 0 0 1-4.3-4.3 4.3 4.3 0 0 1 4.3-4.3 4.3 4.3 0 0 1 4.3 4.3z" fill="#e56250"/>
  <path d="m27.9 46.5h145.7v81.4h-145.7z" fill="#4b4b4b"/>
  <path d="m35 50.4h131.6v73.6h-131.6z" fill="#d9eef6"/>
  <g fill="#d03f27">
   <path d="m43.3 102.8v15.3h7.2v-5.4s3.5-0.1 3.5 5.4h6.9s0-4.9-3-7.1c0 0-0.3-0.5 1.1-1.1 1.5-0.6 3.3-6.2-2.6-7.2z"/>
   <path d="m85 102.8v15.3h12.2s3.7-0.7 3.8-3-1.5-3.5-2.4-3.8-0.4-1.5 0.8-1.7 2.4-3.4 0.4-5.2-4.9-1.7-4.9-1.7z"/>
   <path d="m117 114.2v4h-13.1v-15.4h6.2v11.4z"/>
   <path d="m120 102.8h15.5v15.3h-15.5z"/>
   <path d="m138.2 102.8h8s2 6.3 4.7 0h7.4l-6.4 7.7 6.4 7.7h-7.6s-1.9-4.4-4.4 0h-8.2l6.4-7.7z"/>
   <path d="m65.2 102.8h15.5v15.3h-15.5z"/>
  </g>
  <path transform="matrix(.2839 -.9588 .9588 .2839 -3.983 151.4)" d="m84.8 63.8h29.1v29.1h-29.1z" fill="#d03f27"/>
  <path transform="matrix(.2839 -.9588 .9588 .2839 -3.948 151.3)" d="m96.5 75.5h5.6v5.6h-5.6z" fill="#d9eef6"/>
  <path d="m70.9 108.7h4v4h-4z" fill="#c2c1c1"/>
  <path d="m150 50.4h-24.1l-73.7 73.7h24.1z" fill="#e5e9ea" opacity=".38"/>
  <path d="m43.2 141.3h2.2v-3.3h-2.2v-2.2h-3.3v2.2h-2.2v3.3h2.2v2.2h3.3zm-1.1 1.1h-1.1v-2.2h-2.2v-1.1h2.2v-2.2h1.1v2.2h2.2v1.1h-2.2z" fill="#373236"/>
  <path d="m174.9 161.1-1.9-7.5c-1.8-7.3-7.9-12.8-15.4-13.9l-10.1-1.4v-8.1c4.9-2.7 8-7.9 8.1-13.5l1.3-1.3c1.4-1.4 2-3.2 1.9-5.1-0.2-2.6-2.1-4.9-4.6-5.7l-0.3-0.1v-8.5c1.1-0.6 2.3-1.3 3.3-2.2 0.4-0.4 0.8-0.6 1.2-1.6 0.5-1 0.7-2 0.5-4.9-0.1-1.6-0.1-3.1-0.1-4.7v-3.4c0-0.3-0.1-0.5-0.3-0.7s-0.5-0.2-0.7-0.1l-3.8 1.3c-3.8 1.3-7.8 1.6-11.7 1l-7.9-1.2c-4.6-0.7-9.3 1.1-12.3 4.6-2.4 2.9-3.5 6.7-3 10.4l0.8 5.8v4.2l-0.3 0.1c-2.5 0.8-4.4 3.1-4.6 5.7-0.2 1.9 0.5 3.8 1.9 5.1l1.3 1.3c0.1 5.6 3.2 10.8 8.1 13.5v8.1l-10.1 1.4c-7.5 1.1-13.6 6.6-15.4 13.9l-0.1 0.4c-2.7-5.5-7.9-9.4-14.1-10.2l-10.1-1.4v-8.1c4.9-2.7 8-7.9 8.1-13.5l1.3-1.3c1.4-1.4 2.1-3.4 1.8-5.5-0.3-2.5-2.2-4.6-4.6-5.4l-0.2-0.1v-8.5c0.2-5.4-1.2-9.4-3.2-12.1-2.1-2.9-5.6-4.5-9.2-4.4l-7.2 0.1c-3.8 0.2-8.7 1.5-10.7 3.3-2.3 2.1-3.2 5-3.6 8.5-0.1 1.2-0.2 2.5-0.2 3.7v9.5l-0.2 0.1c-2.4 0.8-4.3 2.8-4.6 5.4-0.3 2.1 0.4 4.1 1.8 5.5l1.3 1.3c0.1 5.6 3.2 10.8 8.1 13.5v8.1l-10.1 1.4c-7.5 1.1-14.7 6.6-16.6 13.9l-0.7 3.4c-1.7 6.7 3.4 13.2 10.3 13.2h55.2c3.1 0 5.9-1.4 7.8-3.4 1.9 2.1 4.7 3.4 7.8 3.4h55.2c7.4-0.1 12.4-6.6 10.8-13.3z" fill="#373236"/>
  <path d="m27.9 101.9c-3.3 1.9-6.5 4-9.4 6.5-1.4 1.2-2.8 2.6-4 4.1s-2.2 3.1-2.7 4.9c-0.6 1.8-0.5 3.7 0.2 5.3 0.3 0.8 0.9 1.4 1.7 1.7s1.7 0.5 2.7 0.5c1.9 0.1 3.8-0.1 5.7-0.1 1.9-0.1 3.9-0.2 5.9 0.3 1 0.3 2 0.7 2.6 1.6 0.7 0.9 0.8 2 0.7 3s-0.3 1.9-0.4 2.9c-0.1 0.9-0.2 1.9-0.3 2.8-0.3 3.8-0.1 7.6 0.7 11.4 0.4 1.9 1 3.7 1.8 5.4 0.4 0.8 0.9 1.6 1.6 2.4 0.6 0.7 1.4 1.3 2.3 1.4s1.7-0.6 2.1-1.5 0.6-1.8 0.7-2.7c0.2-1.9 0-3.8-0.3-5.7 0.3 1.9 0.5 3.8 0.4 5.7-0.1 1-0.2 1.9-0.6 2.8-0.2 0.4-0.5 0.9-0.9 1.2s-0.9 0.5-1.4 0.4c-1-0.1-1.8-0.8-2.5-1.5s-1.2-1.5-1.7-2.4c-0.9-1.7-1.5-3.6-2-5.4-0.9-3.8-1.1-7.7-0.8-11.5 0.1-1 0.1-1.9 0.3-2.9 0.1-1 0.3-1.9 0.3-2.8s-0.2-1.8-0.7-2.5-1.3-1.1-2.2-1.3c-1.8-0.4-3.7-0.3-5.6-0.2s-3.8 0.3-5.8 0.1c-1-0.1-2-0.2-3-0.6-0.5-0.2-0.9-0.5-1.3-0.9s-0.7-0.9-0.9-1.4c-0.8-1.9-0.8-4-0.1-5.9 0.6-1.9 1.7-3.6 3-5 1.3-1.5 2.7-2.8 4.2-4 3-2.4 6.3-4.4 9.7-6.1z" fill="#373236"/>
  <path d="m173.7 88.9c2.5 0.7 4.9 1.6 7.2 2.7s4.5 2.5 6.5 4.1 3.8 3.6 5.1 5.9 2 4.9 2 7.5c0 1.3-0.1 2.6-0.4 3.9s-0.7 2.5-1.2 3.7c-0.6 1.2-1.3 2.3-2.2 3.3s-2 1.8-3.2 2.4c-2.3 1.3-4.9 1.9-6.9 3.2-1 0.6-1.8 1.5-2.2 2.7-0.4 1.1-0.5 2.4-0.4 3.6s0.3 2.5 0.6 3.7c0.3 1.3 0.5 2.5 0.6 3.8 0.2 2.6-0.2 5.3-1.4 7.6-1.2 2.4-3 4.3-5.1 5.9-2.1 1.5-4.4 2.7-6.8 3.6-4.8 1.9-9.9 2.8-14.9 3.5-2.5 0.3-5.1 0.6-7.6 0.8s-5.1 0.2-7.6 0.6c1.3-0.2 2.5-0.3 3.8-0.4l3.8-0.3c2.5-0.2 5.1-0.5 7.6-0.9 5-0.8 10-1.8 14.8-3.7 2.3-0.9 4.6-2.1 6.6-3.6s3.7-3.4 4.8-5.7c1.1-2.2 1.5-4.8 1.3-7.3-0.1-1.2-0.3-2.5-0.6-3.7-0.3-1.3-0.6-2.5-0.7-3.8s0-2.7 0.4-4c0.5-1.3 1.4-2.4 2.6-3.1 2.3-1.4 4.8-2 6.9-3.3 2.2-1.2 4-3 5-5.2s1.6-4.8 1.6-7.2c0-2.5-0.6-5-1.8-7.2s-2.9-4.1-4.8-5.8c-4-3.3-8.6-5.7-13.4-7.3z" fill="#373236"/>
  <g fill="#373236">
   <path d="m67.6 139.6c0-4-3.3-7.2-7.2-7.1-1.9 0-3.8 0.8-5.1 2.2h-8.5c-2.7-2.9-7.3-3-10.2-0.2-1.4 1.3-2.2 3.2-2.2 5.1-0.7 4.4-1.1 8.9-1.1 13.4 0 2.7 1.1 4.4 3.2 4.8 0.4 0.1 0.8 0.1 1.2 0.1 2 0 3.7-1.2 4.2-3.1 0.4-1.2 1.2-2.9 1.7-3.9 2.2 1 4.9 0 5.9-2.2 0.1-0.2 0.2-0.5 0.3-0.7h2.5c0.6 2.4 3 3.8 5.4 3.2 0.2-0.1 0.5-0.1 0.7-0.3 0.5 1 1.3 2.7 1.7 3.9 0.5 1.9 2.3 3.2 4.2 3.1 0.4 0 0.8 0 1.2-0.1 2.1-0.4 3.2-2.1 3.2-4.8-0.1-4.5-0.4-9-1.1-13.4zm-26.7 14.9c-0.5 1.8-2.3 2.8-4.1 2.3h-0.1c-1.9-0.4-2.3-2.3-2.3-3.7 0-3.4 0.3-6.9 0.7-10.3 1.1 2.4 3.4 3.9 6 4.2 0 1.3 0.6 2.6 1.7 3.4-0.7 1.1-1.5 2.8-1.9 4.1zm4.5-4.3c-1.8 0-3.3-1.5-3.3-3.3v-0.5-0.6h-0.6c-3.4 0-6.1-2.7-6.1-6.1s2.7-6.1 6.1-6.1 6.1 2.7 6.1 6.1c0 1.2-0.4 2.4-1 3.4l-0.4 0.5 0.6 0.3c1.7 0.7 2.5 2.7 1.7 4.4-0.5 1.1-1.7 1.9-3.1 1.9zm4.5-3.3c0-1.5-0.8-2.9-2-3.7 1.3-2.3 1.2-5.1-0.2-7.4h6.6c-1.4 2.2-1.5 5.1-0.2 7.4-1.2 0.8-2 2.2-2 3.7zm3.3 0c0-1.3 0.8-2.5 1.9-3l0.6-0.3-0.4-0.5c-1.8-2.8-1.1-6.6 1.7-8.4s6.6-1.1 8.4 1.7 1.1 6.6-1.7 8.4c-1 0.7-2.2 1-3.4 1h-0.7l0.1 0.6v0.5c0 1.8-1.5 3.3-3.3 3.3-1.7 0-3.2-1.5-3.2-3.3zm12 9.9c-1.8 0.5-3.6-0.4-4.2-2.2v-0.1c-0.5-1.3-1.2-3-1.8-4.1 1-0.8 1.7-2.1 1.7-3.4 2.6-0.2 4.9-1.8 6-4.1 0.4 3.4 0.7 6.8 0.7 10.3 0 1.3-0.4 3.1-2.4 3.6z"/>
   <path d="m168.8 134.6c0-4-3.3-7.2-7.2-7.1-1.9 0-3.8 0.8-5.1 2.2h-8.5c-2.7-2.9-7.3-3-10.2-0.2-1.4 1.3-2.2 3.2-2.2 5.1-0.7 4.4-1.1 8.9-1.1 13.4 0 2.7 1.1 4.4 3.2 4.8 0.4 0.1 0.8 0.1 1.2 0.1 2 0 3.7-1.2 4.2-3.1 0.4-1.2 1.2-2.9 1.7-3.9 2.2 1 4.9 0 5.9-2.2 0.1-0.2 0.2-0.5 0.3-0.7h2.5c0.6 2.4 3 3.8 5.4 3.2 0.2-0.1 0.5-0.1 0.7-0.3 0.5 1 1.3 2.7 1.7 3.9 0.5 1.9 2.3 3.2 4.2 3.1 0.4 0 0.8 0 1.2-0.1 2.1-0.4 3.2-2.1 3.2-4.8 0-4.5-0.4-8.9-1.1-13.4zm-26.7 14.9c-0.5 1.8-2.3 2.8-4.1 2.3h-0.1c-1.9-0.4-2.3-2.3-2.3-3.7 0-3.4 0.3-6.9 0.7-10.3 1.1 2.4 3.4 3.9 6 4.2 0 1.3 0.6 2.6 1.7 3.4-0.7 1.1-1.5 2.8-1.9 4.1zm4.5-4.3c-1.8 0-3.3-1.5-3.3-3.3v-0.5-0.6h-0.6c-3.4 0-6.1-2.7-6.1-6.1s2.7-6.1 6.1-6.1 6.1 2.7 6.1 6.1c0 1.2-0.4 2.4-1 3.4l-0.4 0.5 0.6 0.3c1.7 0.7 2.5 2.7 1.7 4.4-0.5 1.2-1.7 1.9-3.1 1.9zm4.5-3.3c0-1.5-0.8-2.9-2-3.7 1.3-2.3 1.2-5.1-0.2-7.4h6.6c-1.4 2.2-1.5 5.1-0.2 7.4-1.2 0.8-2 2.2-2 3.7zm3.3 0c0-1.3 0.8-2.5 1.9-3l0.6-0.3-0.4-0.5c-1.8-2.8-1.1-6.6 1.7-8.4s6.6-1.1 8.4 1.7 1.1 6.6-1.7 8.4c-1 0.7-2.2 1-3.4 1h-0.7l0.1 0.6v0.5c0 1.8-1.5 3.3-3.3 3.3s-3.2-1.5-3.2-3.3zm12 9.9c-1.8 0.5-3.6-0.4-4.2-2.2v-0.1c-0.5-1.3-1.2-3-1.8-4.1 1-0.8 1.7-2.1 1.7-3.4 2.6-0.2 4.9-1.8 6-4.1 0.4 3.4 0.7 6.8 0.7 10.3 0 1.3-0.4 3.2-2.4 3.6z"/>
   <path d="m161.6 133c0.9 0 1.7-0.7 1.7-1.7 0-0.9-0.7-1.7-1.7-1.7s-1.7 0.7-1.7 1.7 0.8 1.7 1.7 1.7zm0-2.2c0.3 0 0.6 0.2 0.6 0.6 0 0.3-0.2 0.6-0.6 0.6-0.3 0-0.6-0.2-0.6-0.6 0-0.3 0.3-0.6 0.6-0.6z"/>
   <path d="m161.6 139.7c0.9 0 1.7-0.7 1.7-1.7s-0.7-1.7-1.7-1.7-1.7 0.7-1.7 1.7 0.8 1.7 1.7 1.7zm0-2.2c0.3 0 0.6 0.2 0.6 0.6s-0.2 0.6-0.6 0.6c-0.3 0-0.6-0.2-0.6-0.6s0.3-0.6 0.6-0.6z"/>
   <path d="m158.3 136.3c0.9 0 1.7-0.7 1.7-1.7 0-0.9-0.7-1.7-1.7-1.7-0.9 0-1.7 0.7-1.7 1.7s0.7 1.7 1.7 1.7zm0-2.2c0.3 0 0.6 0.2 0.6 0.6 0 0.3-0.2 0.6-0.6 0.6-0.3 0-0.6-0.2-0.6-0.6 0-0.3 0.3-0.6 0.6-0.6z"/>
   <path d="m164.9 136.3c0.9 0 1.7-0.7 1.7-1.7 0-0.9-0.7-1.7-1.7-1.7s-1.7 0.7-1.7 1.7c0.1 1 0.8 1.7 1.7 1.7zm0-2.2c0.3 0 0.6 0.2 0.6 0.6 0 0.3-0.2 0.6-0.6 0.6-0.3 0-0.6-0.2-0.6-0.6 0.1-0.3 0.3-0.6 0.6-0.6z"/>
  </g>
 </g>
</svg>
