<svg width="200" height="200" version="1.1" viewBox="1 0 33 42" xmlns="http://www.w3.org/2000/svg">
 <g transform="matrix(.21 0 0 .21 -4.39 .07063)">
  <path d="m104.3 14.8c-47.3 0-85.7 38.4-85.7 85.7s38.4 85.7 85.7 85.7 85.7-38.4 85.7-85.7c-0.1-47.3-38.4-85.7-85.7-85.7zm-60.7 101.8c-1.7 0-3.1-1.4-3.1-3.1s1.4-3.1 3.1-3.1 3.1 1.4 3.1 3.1-1.4 3.1-3.1 3.1zm126.3-49.4c-2.8 0-5.1-2.3-5.1-5.1s2.3-5.1 5.1-5.1 5.1 2.3 5.1 5.1-2.3 5.1-5.1 5.1z" fill="#d03f27"/>
  <path d="m56.5 29.4a7.9 7.9 0 0 1-7.9 7.9 7.9 7.9 0 0 1-7.9-7.9 7.9 7.9 0 0 1 7.9-7.9 7.9 7.9 0 0 1 7.9 7.9z" fill="#e56250"/>
  <path d="m197.7 168.2a7.9 7.9 0 0 1-7.9 7.9 7.9 7.9 0 0 1-7.9-7.9 7.9 7.9 0 0 1 7.9-7.9 7.9 7.9 0 0 1 7.9 7.9z" fill="#e56250"/>
  <path d="m181.9 185a4.9 4.9 0 0 1-4.9 4.9 4.9 4.9 0 0 1-4.9-4.9 4.9 4.9 0 0 1 4.9-4.9 4.9 4.9 0 0 1 4.9 4.9z" fill="#ab2817"/>
  <path d="m189.7 152.5a2.1 2.1 0 0 1-2.1 2.1 2.1 2.1 0 0 1-2.1-2.1 2.1 2.1 0 0 1 2.1-2.1 2.1 2.1 0 0 1 2.1 2.1z" fill="#e56250"/>
  <path d="m36 180.4a4.7 4.7 0 0 1-4.7 4.7 4.7 4.7 0 0 1-4.7-4.7 4.7 4.7 0 0 1 4.7-4.7 4.7 4.7 0 0 1 4.7 4.7z" fill="#e56250"/>
  <path d="m22.05 43.86a5.3 5.3 0 0 1-5.3 5.3 5.3 5.3 0 0 1-5.3-5.3 5.3 5.3 0 0 1 5.3-5.3 5.3 5.3 0 0 1 5.3 5.3z" fill="#ab2817"/>
  <path d="m143.5 8.891a4.3 4.3 0 0 1-4.3 4.3 4.3 4.3 0 0 1-4.3-4.3 4.3 4.3 0 0 1 4.3-4.3 4.3 4.3 0 0 1 4.3 4.3z" fill="#e56250"/>
  <g stroke="#fff" stroke-miterlimit="10" stroke-width="2">
   <path d="m30.5 41.8h66.9v66.9h-66.9z" fill="#6874b6"/>
   <path d="m103.9 104.1h66.9v66.9h-66.9z" fill="#6ac4cd"/>
   <path d="m111 18.6h41.4v41.4h-41.4z" fill="#72c0a0"/>
   <path d="m41.6 138.3h41.4v41.4h-41.4z" fill="#64b65e"/>
   <path d="m143.4 73.1h17.9v17.9h-17.9z" fill="#7f3b3c"/>
   <path d="m65.1 10.8h17.9v17.9h-17.9z" fill="#b3b55e"/>
   <path d="m9.5 123.2h17.9v17.9h-17.9z" fill="#428e96"/>
   <path d="m165.3 19.8h17.9v17.9h-17.9z" fill="#9f60a3"/>
  </g>
  <path d="m74 14.7c-2.8 0-5.1 2.3-5.1 5.1s2.3 5.1 5.1 5.1 5.1-2.3 5.1-5.1-2.3-5.1-5.1-5.1zm-0.7 0.4h0.3 0.4c1.7 0 3.2 0.9 4 2.3 0.1 0.1 0.2 0.4 0.2 0.4-1.4-0.9-3.2-1.4-4.9-1.1v-1.6zm-2.4 1.2s0.2-0.2 0.3-0.2c0.5-0.3 0.9-0.6 1.5-0.7 0.1 0 0.3-0.1 0.2-0.1-0.1 1.4 0.1 2.9 0.9 4.2-0.4 0.7-0.9 1.3-1.5 1.7-1.1-1.5-1.6-3.2-1.4-4.9zm-0.9 6s-0.2-0.3-0.2-0.5c-0.3-0.6-0.5-1.4-0.5-2.1 0-1.1 0.3-2 0.9-2.8 0.1-0.2 0.2-0.3 0.2-0.3 0 1.6 0.5 3.3 1.5 4.7-0.5 0.5-1.2 0.8-1.9 1zm1.7 1.6c-0.5-0.3-0.9-0.6-1.2-1-0.1-0.1-0.2-0.2-0.1-0.2 1.6-0.5 2.9-1.6 3.8-3.1 0.8 0 1.6 0.2 2.3 0.4-0.8 2-2.5 3.4-4.5 4 0 0.1-0.2 0-0.3-0.1zm6.8-2.6s0 0.1-0.1 0.2c-0.7 1.8-2.4 3-4.4 3-0.5 0-1-0.1-1.4-0.2h-0.1c1.9-0.7 3.4-2.1 4.3-4.1 0.6 0.3 1.2 0.6 1.7 1.1zm0.1-0.4c-1.2-1-2.8-1.6-4.5-1.7-0.4-0.7-0.7-1.4-0.8-2.2 1.9-0.2 3.7 0.3 5.2 1.4 0-0.1 0 0.1 0.1 0.2 0.1 0.4 0.1 0.7 0.1 1.1v0.7c0 0.3-0.1 0.4-0.1 0.5z" fill="#fff" stroke="#fff" stroke-miterlimit="10" stroke-width=".25"/>
  <g fill="#fff">
   <path d="m86.2 51.6c-3.2-0.1-5.7 2.7-7.9 5.1-0.4 0.4-0.8 0.9-1.2 1.3-7.1 7.4-11.7 12.6-15.4 16.7-5.7 6.4-9.5 10.6-17.3 17.4-0.5 0.4-1.3 0.5-2.2 0.5-0.5 0-1 0-1.5 0.1-0.7 0.1-1.2 0.4-1.5 0.7-0.4 0.4-0.5 1.1-0.3 1.7 0.2 0.5 0.6 1.2 0.9 1.5 0.4 0.5 0.8 0.9 1.1 1.3s0.7 0.8 1.1 1.3c0.4 0.4 1 1.1 1.7 1.4 0.3 0.2 0.8 0.3 1.2 0.3s0.9-0.1 1.3-0.4c0.7-0.6 0.8-1.5 0.8-2.2v-0.5c0-0.9 0-1.8 0.8-2.4 13.7-11.1 27.3-21.1 39.9-30.3 2.3-1.7 4.6-3.5 5.1-6.1 0.3-1.7-0.1-3.4-1.3-4.8-1.2-1.5-3.2-2.5-5.3-2.6zm-39 43.1c-1.2 1-1.2 2.2-1.2 3.2v0.5c0 0.6 0 1.2-0.4 1.5-0.3 0.3-0.9 0.2-1.3 0s-0.9-0.6-1.4-1.2c-0.4-0.5-0.8-0.9-1.1-1.3s-0.7-0.8-1.1-1.3c-0.2-0.3-0.6-0.9-0.7-1.2s-0.1-0.6 0.1-0.7c0.1-0.1 0.3-0.3 0.9-0.4 0.4-0.1 0.8-0.1 1.3-0.1 1 0 2.1-0.1 2.8-0.8 3.6-3.2 6.4-5.8 8.9-8.3 0.7 1 1.4 1.9 2.2 2.9-3 2.3-6 4.7-9 7.2zm9.8-7.9c-0.7-1-1.5-2-2.2-3 0.3-0.3 0.5-0.5 0.7-0.8 0.9 1 1.7 1.9 2.6 2.9-0.3 0.3-0.7 0.6-1.1 0.9zm34.9-28c-0.5 2.3-2.5 3.9-4.7 5.5-9 6.5-18.5 13.5-28.2 21-0.9-1-1.8-2-2.7-3 2-2.2 4-4.4 6.3-6.9 3.7-4.1 8.3-9.3 15.4-16.7 0.4-0.4 0.8-0.8 1.2-1.3 2.1-2.3 4.3-4.7 7-4.7h0.1c1.8 0 3.5 0.9 4.6 2.2 0.9 1.2 1.3 2.6 1 3.9z"/>
   <path d="m61.7 56.8a5.2 5.2 0 0 1-5.2 5.2 5.2 5.2 0 0 1-5.2-5.2 5.2 5.2 0 0 1 5.2-5.2 5.2 5.2 0 0 1 5.2 5.2z"/>
   <path d="m145 47.6-7.2 1.3h-0.4l-5.2-1.4h-0.4l-5.8 1.4h-0.4l-6.7-1.3c-0.4-0.1-0.7-0.4-0.7-0.8v-15.6c0-0.5 0.5-0.9 1-0.8l6.2 1.2h0.3l5.9-1.4h0.4l5.9 1.4h0.3l6.2-1.2c0.5-0.1 1 0.3 1 0.8v15.6c0.3 0.4 0 0.7-0.4 0.8z"/>
  </g>
  <path d="m141.8 41.9-3.4 3.4c-0.2 0.2-0.2 0.7 0 0.9s0.6 0.2 0.9 0l3.4-3.4c0.2-0.2 0.2-0.7 0-0.9-0.3-0.2-0.7-0.2-0.9 0z" fill="#72c0a0"/>
  <path d="m138.4 42.8 3.4 3.4c0.2 0.2 0.7 0.2 0.9 0s0.2-0.6 0-0.9l-3.4-3.4c-0.2-0.2-0.7-0.2-0.9 0-0.2 0.3-0.3 0.6 0 0.9z" fill="#72c0a0"/>
  <path d="m135 40.1 0.6 0.3h0.1c0.1 0 0.1 0.1 0.2 0.1h0.2c0.1 0 0.2-0.1 0.2-0.1 0.1 0 0.1-0.1 0.2-0.2s0.1-0.3 0.1-0.5-0.1-0.3-0.3-0.4l-0.6-0.3h-0.1c-0.1 0-0.1-0.1-0.2-0.1h-0.2c-0.1 0-0.2 0.1-0.2 0.1-0.1 0-0.1 0.1-0.2 0.2s-0.1 0.3-0.1 0.5 0.1 0.3 0.3 0.4z" fill="#72c0a0"/>
  <path d="m132.1 36.9c0.1 0.2 0.2 0.4 0.2 0.6v0.1c0 0.1 0.1 0.2 0.1 0.2 0 0.1 0.1 0.1 0.2 0.2 0.1 0 0.1 0.1 0.2 0.1h0.2c0.2 0 0.3-0.1 0.4-0.3 0 0 0-0.1 0.1-0.1v-0.3c-0.1-0.2-0.2-0.4-0.2-0.6v-0.1c0-0.1-0.1-0.2-0.1-0.2 0-0.1-0.1-0.1-0.2-0.2-0.1 0-0.1-0.1-0.2-0.1h-0.2c-0.2 0-0.3 0.1-0.4 0.3 0 0 0 0.1-0.1 0.1v0.3z" fill="#72c0a0"/>
  <path d="m130.2 34.7 0.6 0.3h0.1c0.1 0 0.1 0.1 0.2 0.1h0.2c0.1 0 0.2-0.1 0.2-0.1 0.1 0 0.1-0.1 0.2-0.2s0.1-0.3 0.1-0.5c0-0.1-0.1-0.3-0.3-0.4l-0.6-0.3h-0.1c-0.1 0-0.1-0.1-0.2-0.1h-0.2c-0.1 0-0.2 0.1-0.2 0.1-0.1 0-0.1 0.1-0.2 0.2s-0.1 0.3-0.1 0.5c0.1 0.2 0.2 0.3 0.3 0.4z" fill="#72c0a0"/>
  <path d="m128 36c0.1-0.2 0.2-0.4 0.4-0.5 0 0 0-0.1 0.1-0.1 0-0.1 0.1-0.1 0.1-0.2v-0.2c0-0.1-0.1-0.2-0.1-0.2 0-0.1-0.1-0.1-0.2-0.2 0 0-0.1 0-0.1-0.1h-0.3s-0.1 0-0.1 0.1c-0.1 0.1-0.2 0.1-0.2 0.2-0.1 0.2-0.2 0.4-0.4 0.5 0 0 0 0.1-0.1 0.1 0 0.1-0.1 0.1-0.1 0.2v0.2c0 0.1 0.1 0.2 0.1 0.2 0 0.1 0.1 0.1 0.2 0.2 0 0 0.1 0 0.1 0.1h0.3s0.1 0 0.1-0.1c0.1-0.1 0.2-0.1 0.2-0.2z" fill="#72c0a0"/>
  <path d="m126.5 39.1c0.1-0.2 0.1-0.4 0.2-0.6v-0.1c0-0.2 0-0.3-0.1-0.5 0-0.1-0.1-0.1-0.2-0.2s-0.1-0.1-0.2-0.1c-0.2 0-0.3 0-0.5 0.1-0.1 0.1-0.2 0.2-0.3 0.4s-0.1 0.4-0.2 0.6v0.1c0 0.2 0 0.3 0.1 0.5 0 0.1 0.1 0.1 0.2 0.2s0.1 0.1 0.2 0.1c0.2 0 0.3 0 0.5-0.1s0.3-0.2 0.3-0.4z" fill="#72c0a0"/>
  <path d="m125.6 42.5c0.1-0.2 0.1-0.4 0.2-0.6v-0.1-0.2c0-0.1 0-0.2-0.1-0.2 0-0.1-0.1-0.1-0.2-0.2s-0.1-0.1-0.2-0.1c-0.2 0-0.3 0-0.5 0.1l-0.1 0.1c-0.1 0.1-0.1 0.2-0.2 0.3-0.1 0.2-0.1 0.4-0.2 0.6v0.1 0.2c0 0.1 0 0.2 0.1 0.2 0 0.1 0.1 0.1 0.2 0.2s0.1 0.1 0.2 0.1c0.2 0 0.3 0 0.5-0.1l0.1-0.1c0.1-0.1 0.1-0.2 0.2-0.3z" fill="#72c0a0"/>
  <path d="m123.7 45.9c0.2-0.1 0.3-0.3 0.5-0.4l0.1-0.1c0.1-0.1 0.1-0.1 0.1-0.2s0.1-0.2 0.1-0.2c0-0.1 0-0.2-0.1-0.2 0-0.1-0.1-0.1-0.1-0.2l-0.1-0.1c-0.1-0.1-0.2-0.1-0.3-0.1h-0.2c-0.1 0-0.2 0.1-0.3 0.2-0.2 0.1-0.3 0.3-0.5 0.4l-0.1 0.1c-0.1 0.1-0.1 0.1-0.1 0.2s-0.1 0.2-0.1 0.2c0 0.1 0 0.2 0.1 0.2 0 0.1 0.1 0.1 0.1 0.2l0.1 0.1c0.1 0.1 0.2 0.1 0.3 0.1h0.2c0.1 0 0.2-0.1 0.3-0.2z" fill="#72c0a0"/>
  <g fill="#fff">
   <path d="m152.4 76.3-5.3 4.7h1.1v5.7c0 0.2 0.2 0.3 0.3 0.3h2.5c0.2 0 0.3-0.2 0.3-0.3v-2.9c0-0.2 0.2-0.3 0.3-0.3h1.5c0.2 0 0.3 0.2 0.3 0.3v2.9c0 0.2 0.2 0.3 0.3 0.3h2.4c0.2 0 0.3-0.2 0.3-0.3v-5.7h1.1z"/>
   <path d="m13.8 126.2-0.8-0.3-0.7 1.6c-0.1 0.1 0 0.3 0.2 0.4l3.8 1.6v0.1l-3.3-1.4-0.4 1 3.5 1.5c0.2 0.1 0.2 0.4 0.1 0.5-0.3 0.2-0.6 0.5-0.6 0.8-0.1 0.5 0.3 0.9 0.7 1.2 0.3 0.3 1 0.5 1.4 0.7 0.1 0 0.2 0.2 0.2 0.3l-0.4 2.3c0 0.1 0 0.3 0.2 0.3l3 1.3c0.2 0.1 0.4 0 0.4-0.2l0.4-5 1.3 0.6 0.4-0.9 0.5-0.2 0.4-0.8 0.3 0.1 0.4-1-1-0.4-0.1 0.3zm3.5 4.9c0.1 0 0.2 0.1 0.2 0.2 0.1 0.2 0.1 0.4 0.1 0.7-0.1 0.3-0.6 0.5-0.6 0.5s0.5 0.2 0.8 0.4c0.1 0 0.2 0.1 0.2 0.2 0 0.2-0.4 0.3-0.4 0.3s-0.9-0.2-1.3-0.5c-0.3-0.2-0.7-0.6-0.6-1 0.1-0.5 0.7-0.9 1.2-0.9 0.2 0.1 0.3 0.1 0.4 0.1z"/>
   <path d="m179.1 24.9-0.7-0.3v4.7l1.3-3.1c0.2-0.5 0-1.1-0.6-1.3m-10.2 1.9 2.6 6.3c0.2 0.4 0.5 0.7 1 0.7 0.1 0 0.3 0 0.4-0.1l3.9-1.6c0.4-0.2 0.6-0.6 0.6-0.9 0-0.1 0-0.3-0.1-0.4l-2.6-6.3c-0.2-0.4-0.5-0.7-1-0.7-0.1 0-0.3 0-0.4 0.1l-3.9 1.6c-0.5 0.2-0.7 0.8-0.5 1.3m8.5-2c0-0.6-0.5-1-1-1h-0.8l1.8 4.4"/>
   <path d="m61.7 170.1c3 0 5.8-1.2 7.9-3.3 0.4-0.4 0.4-1 0-1.4l-6.4-6.4 6.4-6.4c0.4-0.4 0.4-1 0-1.4-4.3-4.3-11.4-4.3-15.7 0s-4.3 11.4 0 15.7c2 2.1 4.8 3.2 7.8 3.2zm0-20.2c2.1 0 4.1 0.7 5.7 2l-6.4 6.4c-0.4 0.4-0.4 1 0 1.4l6.4 6.4c-3.9 3.1-9.7 2.5-12.8-1.4s-2.5-9.7 1.4-12.8c1.6-1.3 3.6-2 5.7-2z"/>
   <path d="m72.8 159a2 2 0 0 1-2 2 2 2 0 0 1-2-2 2 2 0 0 1 2-2 2 2 0 0 1 2 2z"/>
   <path d="m61.7 154a2 2 0 0 1-2 2 2 2 0 0 1-2-2 2 2 0 0 1 2-2 2 2 0 0 1 2 2z"/>
  </g>
  <path d="m127.2 142c0.1 2.7 1.3 5 3.7 6.2s5.3 1.3 8 1.1c2.3-0.2 4.5-0.7 6.3-2.2 1.6-1.3 2.3-3.4 2.3-5.4 0-3.2-1.5-6.2-3-8.9-0.6-1-2.1-1.3-2.9-0.4-0.6 0.7-1.3 1.4-2.1 1.8-0.1 0-0.5 0.3-0.4 0.2l-0.2 0.1c-0.3 0.1-0.3 0.2-0.1 0 0 0-0.7 0 0 0-0.1 0-0.3-0.1-0.4-0.1 0.3 0.2 0 0 0 0 0 0.1 0.3 0.2 0 0 0 0-0.3-0.4-0.2-0.2 0.2 0.2-0.1-0.1-0.1-0.2-0.1-0.1-0.2-0.3-0.2-0.4 0 0-0.2-0.5-0.1-0.1-0.1-0.2-0.1-0.3-0.2-0.5-0.5-1.5-0.6-2.4-0.6-3.9v-1.9-0.5c-0.1 0.5 0 0 0-0.1 0-0.2 0.1-0.5 0.2-0.7 0.6-2-2.4-3.3-3.4-1.4-3.1 5.4-6.5 11-6.6 17.5 0 2.4 3.7 2.4 3.8 0 0.1-5.7 3.3-10.8 6.1-15.6-1.1-0.5-2.3-1-3.4-1.4-0.9 3.2-0.6 7.3 0.8 10.3 0.8 1.6 2.2 2.9 4 3 2.3 0.1 4.2-1.7 5.7-3.3-1-0.1-2-0.3-2.9-0.4 1.2 2.2 2.5 4.7 2.5 7.2 0 1.5-0.7 2.5-2.1 3.1-1.9 0.8-4.6 0.8-6.7 0.5-2.2-0.3-3.9-1.1-3.9-3.5-0.2-2.3-3.9-2.3-3.9 0.1z" fill="#fff"/>
  <path d="m137.3 149.4c3.8 0 7.6-1.1 10.5-3.7s4.3-6.3 4.9-10.1c0.6-4.2 0-8-2-11.8-1.8-3.4-4.4-6.5-7.2-9.2-1.6-1.6-3.4-3.1-5.2-4.5-0.5-0.4-1.4-0.4-1.9 0-4.5 3.4-8.7 7.6-11.6 12.3-2.1 3.5-3.3 7.2-3 11.2s1.4 8.1 4.2 11.1c2.9 3.3 7.1 4.6 11.3 4.7 2.4 0 2.4-3.7 0-3.8-3 0-6.1-0.8-8.3-3-2.3-2.2-3.3-5.5-3.5-8.6-0.3-3.5 0.6-6.5 2.4-9.6 1.7-2.8 3.9-5.3 6.3-7.6 1-1 2-1.9 3.1-2.7 0.3-0.3 0.6-0.5 0.9-0.7 0.4-0.4-0.3 0.2 0.1 0h-1.9c0.3 0.3-0.3-0.2-0.1-0.1 0.3 0.2 0.5 0.4 0.8 0.7 0.8 0.7 1.7 1.4 2.5 2.2 2.3 2.2 4.6 4.5 6.4 7.2 1.9 2.7 3.3 5.8 3.2 9.1-0.1 3.2-0.7 6.7-2.8 9.3-2.2 2.8-5.6 3.9-9.1 3.9-2.4-0.1-2.4 3.7 0 3.7z" fill="#fff"/>
  <path d="m116.6 163.2 14.4-3.9c7.6-2 15.2-4.1 22.8-6.1 1.8-0.5 3.5-0.9 5.3-1.4 2.3-0.6 1.3-4.2-1-3.6l-14.4 3.9c-7.6 2-15.2 4.1-22.8 6.1-1.8 0.5-3.5 0.9-5.3 1.4-2.4 0.6-1.4 4.3 1 3.6z" fill="#fff"/>
  <path d="m115.6 151.8c6.2 1.7 12.4 3.3 18.6 5 0.9 0.2 1.8 0.5 2.7 0.7 2.3 0.6 3.3-3 1-3.6-6.2-1.7-12.4-3.3-18.6-5-0.9-0.2-1.8-0.5-2.7-0.7-2.4-0.6-3.4 3-1 3.6z" fill="#fff"/>
  <path d="m159.1 159.6c-3.1-0.8-6.2-1.7-9.3-2.5-0.4-0.1-0.9-0.2-1.3-0.4-0.9-0.3-2.1 0.3-2.3 1.3s0.3 2 1.3 2.3c3.1 0.8 6.2 1.7 9.3 2.5 0.4 0.1 0.9 0.2 1.3 0.4 0.9 0.3 2.1-0.3 2.3-1.3s-0.3-2-1.3-2.3z" fill="#fff"/>
 </g>
</svg>
