<svg width="139.7" height="156.1" version="1.1" viewBox="0 0 140 156" xmlns="http://www.w3.org/2000/svg">
 <rect x="-.503" y="-.595" width="141" height="158" rx="0" ry="0" fill="#fff" style="paint-order:stroke fill markers"/>
 <rect x="23.36" y="15.92" width="94.57" height="101" rx="5.26" ry="5.545" clip-rule="evenodd" fill="#e3e3e3" fill-rule="evenodd" image-rendering="optimizeQuality" shape-rendering="geometricPrecision" style="paint-order:stroke fill markers"/>
 <path d="m48.83 28.45-15.36 59.46 59.72 15.31 15.36-59.46zm17.84 30.09 11.66 2.987-2.999 11.62-11.66-2.988z" fill="#797979" stroke-width="2.668"/>
 <g transform="matrix(1.025 0 0 1.036 -27.53 -14.84)" aria-label="UltraISO-Install.exe">
  <path d="m108.3 147.3h-1.552v-1.851h1.552z"/>
  <path d="m117.1 143.8h-5.345q0 0.6689 0.2013 1.169 0.2013 0.4936 0.552 0.8118 0.3377 0.3117 0.7988 0.4676 0.4676 0.1559 1.026 0.1559 0.7403 0 1.487-0.2922 0.7533-0.2987 1.072-0.5845h0.0649v1.331q-0.6169 0.2598-1.26 0.4351t-1.351 0.1753q-1.805 0-2.818-0.9741-1.013-0.9806-1.013-2.779 0-1.779 0.9676-2.825 0.9741-1.046 2.559-1.046 1.468 0 2.26 0.8572 0.7988 0.8572 0.7988 2.435zm-1.188-0.9352q-6e-3 -0.9611-0.4871-1.487-0.4741-0.526-1.448-0.526-0.9806 0-1.565 0.578-0.578 0.578-0.6559 1.435z"/>
  <path d="m125 147.3h-1.539l-2.059-2.786-2.072 2.786h-1.422l2.831-3.617-2.805-3.637h1.539l2.046 2.741 2.052-2.741h1.429l-2.851 3.572z"/>
  <path d="m132.3 143.8h-5.345q0 0.6689 0.2013 1.169 0.2013 0.4936 0.552 0.8118 0.3377 0.3117 0.7988 0.4676 0.4676 0.1559 1.026 0.1559 0.7403 0 1.487-0.2922 0.7533-0.2987 1.072-0.5845h0.0649v1.331q-0.6169 0.2598-1.26 0.4351t-1.351 0.1753q-1.805 0-2.818-0.9741-1.013-0.9806-1.013-2.779 0-1.779 0.9676-2.825 0.9741-1.046 2.559-1.046 1.468 0 2.26 0.8572 0.7988 0.8572 0.7988 2.435zm-1.188-0.9352q-6e-3 -0.9611-0.4871-1.487-0.4741-0.526-1.448-0.526-0.9806 0-1.565 0.578-0.578 0.578-0.6559 1.435z"/>
 </g>
 <g transform="matrix(.9828 0 0 .994 1.823 -1.014)" stroke-width=".3521" aria-label="Roblox">
  <path d="m40.21 139.6h-1.814l-3.516-3.966h-1.97v3.966h-1.398v-9.978h2.944q0.9527 0 1.588 0.1206 0.6354 0.1138 1.143 0.4153 0.5719 0.3416 0.8894 0.8645 0.3247 0.5158 0.3247 1.313 0 1.078-0.5719 1.809-0.5719 0.7235-1.574 1.092zm-3.269-7.168q0-0.4287-0.1624-0.757-0.1553-0.335-0.5225-0.5627-0.3036-0.1943-0.7201-0.268-0.4165-0.0804-0.9813-0.0804h-1.645v3.765h1.412q0.6636 0 1.158-0.1072 0.4942-0.1138 0.8401-0.4153 0.3177-0.2813 0.466-0.6431 0.1553-0.3684 0.1553-0.9312z"/>
  <path d="m47.83 135.9q0 1.829-0.9883 2.887-0.9883 1.059-2.648 1.059-1.673 0-2.661-1.059-0.9813-1.059-0.9813-2.887 0-1.829 0.9813-2.887 0.9883-1.065 2.661-1.065 1.659 0 2.648 1.065 0.9883 1.059 0.9883 2.887zm-1.37 0q0-1.453-0.6001-2.157-0.6001-0.7101-1.666-0.7101-1.08 0-1.68 0.7101-0.593 0.7034-0.593 2.157 0 1.407 0.6001 2.137 0.6001 0.7235 1.673 0.7235 1.059 0 1.659-0.7168 0.6072-0.7235 0.6072-2.144z"/>
  <path d="m56.83 135.9q0 0.9377-0.2824 1.688-0.2753 0.7503-0.7484 1.259-0.5012 0.5292-1.101 0.7972-0.6001 0.2612-1.32 0.2612-0.6707 0-1.172-0.1541-0.5012-0.1474-0.9883-0.4019l-0.08472 0.3484h-1.242v-10.42h1.327v3.725q0.5578-0.4355 1.186-0.7101 0.6283-0.2813 1.412-0.2813 1.398 0 2.203 1.018 0.8119 1.018 0.8119 2.874zm-1.37 0.0334q0-1.34-0.466-2.03-0.466-0.6967-1.504-0.6967-0.5789 0-1.172 0.2412-0.593 0.2344-1.101 0.6096v4.287q0.5648 0.2412 0.9675 0.3349 0.4095 0.0937 0.925 0.0937 1.101 0 1.723-0.6833 0.6283-0.69 0.6283-2.157z"/>
  <path d="m60.23 139.6h-1.327v-10.42h1.327z"/>
  <path d="m69.58 135.9q0 1.829-0.9883 2.887-0.9883 1.059-2.648 1.059-1.673 0-2.661-1.059-0.9813-1.059-0.9813-2.887 0-1.829 0.9813-2.887 0.9883-1.065 2.661-1.065 1.659 0 2.648 1.065 0.9883 1.059 0.9883 2.887zm-1.37 0q0-1.453-0.6001-2.157-0.6001-0.7101-1.666-0.7101-1.08 0-1.68 0.7101-0.593 0.7034-0.593 2.157 0 1.407 0.6001 2.137 0.6001 0.7235 1.673 0.7235 1.059 0 1.659-0.7168 0.6072-0.7235 0.6072-2.144z"/>
  <path d="m78.32 139.6h-1.673l-2.238-2.874-2.252 2.874h-1.547l3.078-3.731-3.05-3.752h1.673l2.224 2.827 2.231-2.827h1.553l-3.099 3.684z"/>
 </g>
</svg>
