<svg version="1.1" viewBox="0 0 304.3 89.04" xmlns="http://www.w3.org/2000/svg">
 <path d="m1.924 11.88 9.765 6.22v32.91l-9.992 6.351 23.54-0.1139v-15.16c1.616 0 5.201 0.1325 6.807 1.305 2.938 2.145 5.861 12.04 5.532 20.21l18.15-0.398c-0.6587-10.3-3.978-21.55-9.46-25.57 6.758-6.381 5.755-12.18 5.562-14.79-0.3244-4.403-5.46-10.97-15.12-10.97l-22.84 0.0017zm23.22 10.52 8.063-0.09721c3.907-0.0471 5.171 3.456 5.171 5.215 0 2.638-1.648 5.023-5.696 5.054l-7.444 0.05695z" fill="#e2231a" stroke-width="1.717"/>
 <path d="m84.96 13.28v9.094c5.047 1.189 8.981 5.066 10.17 10.03l8.236 0.03516v-19.08zm18.41 23.31-8.096-0.06697c-0.4732 5.814-4.541 10.69-10.31 12.07v7.123h18.41zm-24.02 12.49c-6.213-1.039-10.87-6.335-11.36-12.5l-7.853-0.07544v19.22l19.34-0.01367zm-19.22-16.87 8.115 0.02466c1.324-5.189 5.687-9.297 11.06-10.2l0.1371-8.747-19.3 0.07031zm164.6-18.76-7.562 0.1113-0.0923 5.123 7.749 0.0017-0.0937 11.88h3.393v8.268h-3.393v17.05h18.41v-42.36zm-5.523 0.0059-19.3 0.07227v42.36l19.34-0.01563 6.812-0.06254-0.139-4.487-6.541-0.01219-0.1346-12.47-3.61-0.0221v-8.268l3.602 0.0221zm49.99 0.0625-20.88 0.0098 16.89 20.92-16.89 21.43h20.77l6.613-8.414 6.848 8.414h20.95l-17.41-21.55 16.36-20.81h-20.77l-6.094 7.791zm-159.7 0.01168v42.36h27.92c10.1 0 14.8-5.172 14.8-11.71 0-3.639-1.334-6.88-6.789-9.723 4.352-2.445 5.627-5.63 5.627-9.098 0-4.889-2.785-11.83-16.77-11.83zm48.59 0v42.36h35.92v-10.63h-16.77v-31.73zm-31.69 8.527h1.16c3.888 0 5.049 1.763 5.049 4.094 0 3.013-1.566 4.15-5.744 4.15h-0.4648zm-0.0606 15.35h1.334c4.004 0 5.338 1.988 5.338 4.775 0 3.184-1.682 4.379-6.092 4.379h-0.5801z" fill="#e2231a"/>
</svg>
