<svg version="1.1" viewBox="0 0 182.4 53.66" xmlns="http://www.w3.org/2000/svg">
 <path d="m22.3 25.81c-3.447 2.541-9.001 17.31-10.78 7.347l0.0486-7.532-9.838 1.89 9.946-9.597-6.248-7.041 10.27 0.6299-3.106-5.632 1.723 0.6114-0.5027-3.909 8.42 5.114 0.2334-4.317 4.793 2.409 0.9874-2.909 6.822 14.12c-4.227 2.977-7.415 7.356-12.76 8.82z" fill="#574820"/>
 <path d="m25.89 24.53-14.42 0.4447-4.829-4.873 9.012 0.07411-5.063-6.151 5.817-0.3706-3.824-7.782 9.641 1.816-2.729-5.04 8.438 6.077z" fill="#6b5c2c"/>
 <path d="m40.79 31.07h0.6643l0.2313-13.32c-0.2923-3.428-4-6.894-8.091-9.349l-5.283-5.144 1.93 4.192-3.961-1.729-0.1269 4.14-13.1-4.009 5.916 4.323 3.097 5.764c0.2471 0.1912 0.6093 0.2339 0.9468 0.3083 0.3983 0.1606 0.1811 0.5681-0.2822 0.3897-1.088-0.2938-1.05 0.06494-0.6646 0.5072l2.133 2.096c0.4431 0.3593 0.2284 0.8735-0.457 0.6813l-6.398-1.467 7.261 6.236-2.304 1.116 4.18 3.119 6.344-2.533 5.195 5.462z" fill="#a6944d"/>
 <path d="m41.15 31.07-0.2513 14.53c-0.7401 3.017-2.659 4.764-5.601 5.41-5.332 1.685-15 0.6449-16.3 0.3706-3.711-0.6762-5.885-2.389-7.109-4.743l-0.07181-13.56c0.1163-0.5157 1.36-0.8653 2.801-1.186 0.9156-0.7555 0.9745-2.824 1.364-4.484 0.7669-2.353 5.368-1.443 6.319-1.593 1.644 0.2549 2.665 2.302 3.806 2.483 1.246-0.01999 2.024-1.622 3.626-2.372 1.975-0.4742 4.129-0.4762 6.104 0.03706 1.149 0.4018 1.097 2.869 1.652 4.41 0.4638 0.8578 2.284 0.748 3.662 0.7041z" fill="#dcb897"/>
 <path d="m66.21 26.12c-3.432 2.504-8.96 17.05-10.74 7.239l0.0484-7.422-9.794 1.862 9.901-9.457-6.22-6.937 10.22 0.6207-3.092-5.55 1.716 0.6024-0.5004-3.852 8.382 5.039 0.2323-4.254 4.772 2.373 0.983-2.866 6.791 13.91c-4.208 2.933-7.382 7.248-12.71 8.69z" fill="#5b1017"/>
 <path d="m69.79 24.86-14.35 0.4381-4.808-4.801 8.972 0.07302-5.04-6.061 5.791-0.3651-3.807-7.667 9.598 1.789-2.717-4.966 8.4 5.988z" fill="#7d2a26"/>
 <path d="m84.62 31.31h0.6613l0.2303-13.13c-0.291-3.378-3.982-6.793-8.055-9.212l-5.259-5.068 1.921 4.131-3.943-1.704-0.1264 4.079-13.04-3.95 5.889 4.26 3.084 5.68c0.246 0.1884 0.6066 0.2304 0.9426 0.3038 0.3965 0.1582 0.1803 0.5597-0.281 0.384-1.083-0.2895-1.046 0.06396-0.6616 0.4998l2.123 2.065c0.4411 0.3541 0.2274 0.8607-0.455 0.6713l-6.369-1.446 7.229 6.145-2.293 1.1 4.162 3.073 6.316-2.496 5.172 5.382z" fill="#a0473e"/>
 <path d="m84.98 31.31-0.2502 14.31c-0.7368 2.973-2.647 4.694-5.576 5.331-5.308 1.66-14.93 0.6355-16.23 0.3651-3.694-0.6663-5.859-2.354-7.078-4.673l-0.0715-13.36c0.1158-0.5082 1.354-0.8526 2.788-1.168 0.9115-0.7444 0.9702-2.782 1.358-4.418 0.7635-2.319 5.344-1.421 6.291-1.57 1.637 0.2512 2.653 2.268 3.789 2.446 1.241-0.01967 2.015-1.598 3.61-2.337 1.966-0.4672 4.111-0.4692 6.077 0.03649 1.144 0.3959 1.092 2.827 1.644 4.345 0.4617 0.8452 2.273 0.737 3.646 0.6937z" fill="#eaba79"/>
 <path d="m24.07 30.19c-1.713-0.2555-2.281 0.08169-3.047 0.9433-0.5174 0.328-0.8268 0.2984-0.7363-0.4192 1.025-2.026 2.598-1.933 4.291-1.336 0.7211 0.5652 0.09865 1.154-0.5078 0.8123z"/>
 <path d="m28.76 30.24c1.23-0.3079 2.154 0.1079 2.92 0.9695 0.5174 0.328 0.8268 0.2984 0.7363-0.4192-1.025-2.026-3.182-2.117-4.164-1.363-0.7211 0.5652-0.09865 1.154 0.5078 0.8123z"/>
 <path d="m25.04 35.34a1.244 2.398 0 0 1-1.244 2.398 1.244 2.398 0 0 1-1.244-2.398 1.244 2.398 0 0 1 1.244-2.398 1.244 2.398 0 0 1 1.244 2.398z" stroke-linecap="round" stroke-linejoin="round" stroke-width=".7246"/>
 <path d="m30.52 35.34a1.32 2.581 0 0 1-1.32 2.581 1.32 2.581 0 0 1-1.32-2.581 1.32 2.581 0 0 1 1.32-2.581 1.32 2.581 0 0 1 1.32 2.581z" stroke-linecap="round" stroke-linejoin="round" stroke-width=".7246"/>
 <path d="m160.3 25.81c-3.746 2.541-9.779 17.31-11.72 7.347l0.0528-7.532-10.69 1.89 10.81-9.597-6.788-7.041 11.16 0.6299-3.375-5.632 1.873 0.6114-0.5462-3.909 9.148 5.114 0.2536-4.317 5.208 2.409 1.073-2.909 7.412 14.12c-4.593 2.977-8.057 7.356-13.87 8.82z" fill="#141414"/>
 <path d="m163 24.53-14.42 0.4447-4.829-4.873 9.012 0.07411-5.063-6.151 5.817-0.3706-3.824-7.782 9.641 1.816-2.729-5.04 8.438 6.077z" fill="#191818"/>
 <path d="m177.9 31.07h0.6642l0.2313-13.32c-0.2923-3.428-4-6.894-8.091-9.349l-5.283-5.144 1.93 4.192-3.961-1.729-0.1269 4.14-13.1-4.009 5.916 4.323 3.097 5.764c0.2471 0.1912 0.6093 0.2339 0.9468 0.3083 0.3983 0.1606 0.1811 0.5681-0.2822 0.3897-1.088-0.2938-1.05 0.06494-0.6646 0.5072l2.133 2.096c0.443 0.3593 0.2284 0.8735-0.457 0.6813l-6.398-1.467 7.261 6.236-2.304 1.116 4.18 3.119 6.344-2.533 5.195 5.462z" fill="#2d2a28"/>
 <path d="m178.2 31.07-0.2513 14.53c-0.7401 3.017-2.659 4.764-5.601 5.41-5.332 1.685-15 0.6449-16.3 0.3706-3.711-0.6762-5.885-2.389-7.109-4.743l-0.0718-13.56c0.1163-0.5157 1.36-0.8653 2.801-1.186 0.9156-0.7555 0.9746-2.824 1.364-4.484 0.7669-2.353 5.368-1.443 6.319-1.593 1.644 0.2549 2.665 2.302 3.806 2.483 1.246-0.01999 2.024-1.622 3.626-2.372 1.975-0.4742 4.129-0.4762 6.104 0.03706 1.149 0.4018 1.097 2.869 1.652 4.41 0.4638 0.8578 2.284 0.748 3.662 0.7041z" fill="#755e4f"/>
 <path d="m162.3 31.6c-1.651-0.5213-2.265-0.2775-3.157 0.4532-0.5624 0.2427-0.8634 0.1649-0.6613-0.5296 1.33-1.84 2.87-1.501 4.447-0.646 0.6234 0.6714-0.0837 1.155-0.629 0.7225z"/>
 <path d="m165 33.34c0.9294-0.4411 1.73-0.2496 2.475 0.3267 0.4634 0.1841 0.7048 0.1118 0.5188-0.4538-1.137-1.477-2.866-1.212-3.527-0.4497-0.4835 0.5693 0.1049 0.9475 0.5328 0.5768z"/>
 <path d="m162.2 35.2a1.483 2.536 0 0 1-1.483 2.536 1.483 2.536 0 0 1-1.483-2.536 1.483 2.536 0 0 1 1.483-2.536 1.483 2.536 0 0 1 1.483 2.536z" stroke-linecap="round" stroke-linejoin="round" stroke-width=".8137"/>
 <path d="m167.5 36.06a1.249 1.869 0 0 1-1.249 1.869 1.249 1.869 0 0 1-1.249-1.869 1.249 1.869 0 0 1 1.249-1.869 1.249 1.869 0 0 1 1.249 1.869z" stroke-linecap="round" stroke-linejoin="round" stroke-width=".5997"/>
 <path d="m29.26 44.59a2.46 3.224 0 0 1-2.46 3.224 2.46 3.224 0 0 1-2.46-3.224 2.46 3.224 0 0 1 2.46-3.224 2.46 3.224 0 0 1 2.46 3.224z" stroke-linecap="round" stroke-linejoin="round" stroke-width=".6879"/>
 <path d="m71.99 31.88s-0.4158 0.7761 0.5585 0.6435c0.7648-0.3641 2.032-0.1954 2.98 1.146 0.6368 0.616 0.9882-0.2375 0.3932-0.9493-0.7636-1.136-2.408-2.043-3.932-0.8398zm-7.546 4.609s-0.4158 0.7761 0.5585 0.6435c0.7648-0.3641 2.229-0.8708 3.177 0.4701 0.6368 0.616 0.9882-0.2375 0.3932-0.9493-0.7636-1.136-2.605-1.367-4.129-0.1643zm7.39 0.7275c-0.09352 0.2703-0.02257 0.6118 0.5585 0.6435 0.6496-0.2915 0.8012-1.53 3.463-0.8626 0.8756 0.4026 1.178-0.5967 0.3932-0.9493-1.754-0.7242-3.954-0.1624-4.415 1.168z" fill="#13110a"/>
 <path d="m68.67 34.39a1.323 1.826 1.891 0 1-1.385 1.777 1.323 1.826 1.891 0 1-1.258-1.872 1.323 1.826 1.891 0 1 1.385-1.777 1.323 1.826 1.891 0 1 1.258 1.872z" fill="#13110a" stroke-linecap="round" stroke-linejoin="round" stroke-width=".7176"/>
 <path d="m74.81 34.15a1.935 1.359 83.9 0 1-1.135 2.08 1.935 1.359 83.9 0 1-1.564-1.765 1.935 1.359 83.9 0 1 1.135-2.08 1.935 1.359 83.9 0 1 1.564 1.765z" fill="#13110a" stroke-linecap="round" stroke-linejoin="round" stroke-width=".7176"/>
 <path d="m64.38 33.21c-0.1539 0.3034 0.0778 1.172 0.7149 0.5477 0.2554-0.533 1.84-1.743 3.074-1.424 1.102 0.2326 1.167-0.5296 0.3932-0.9493-2.043-0.2795-3.454 0.4679-4.182 1.826z" fill="#13110a"/>
 <path d="m63.23 41.06c5.314 0.28 9.234 0.4865 14.3-0.03651l0.07149 2.446c-1.517 0.7307-12.3 0.7449-14.41-0.07302z" fill="#fefefd" stroke="#000" stroke-linecap="round" stroke-linejoin="round" stroke-width=".3588px"/>
 <path d="m63.2 43.4 0.03576 2.373c2.123 3.031 14.45 2.127 14.41-0.3286l-0.03576-1.972c-1.674 0.9437-12.32 0.775-14.41-0.07302z" fill="#fefefd" stroke="#000" stroke-linecap="round" stroke-linejoin="round" stroke-width=".3588px"/>
 <path d="m97.85 29.51c0.4138 6.747-1.143 14.71 4.141 19.02 4.743 3.868 13.65 4.58 19.02 1.468 5.59-3.238 6.609-8.305 6.895-16.99 0.2644-18.11-26.93-26.54-30.06-3.496z" fill="#e9ba79"/>
 <path d="m104.3 18.02c-4.415 5.425-6.472 12.15-6.375 17.88 0.0382 2.261-0.1089 4.342 0.5071 6.156 0.22 0.6474-0.2105 1.299-0.3132 1.877-0.4594-4.681-2.993-8.256-4.121-12.16-1.054-5.555-1.882-11.17 4.988-18.79 2.785-1.811 4.763-3.795 13.45-4.351 1.471-1.544 2.196-3.009 7.536-4.796 3.824-1.093 9.917 1.398 12.09 7.268 1.412 3.497 2.694 6.425 0.5302 19.1-0.4805 2.814-6e-3 5.868-0.4217 8.588-0.151 2.802-0.2927 5.603-0.2432 8.405-2.017-1.409-2.486-3.17-2.901-4.944-0.6284 0.9736-0.9995 2.141-1.078 3.294-0.6423-0.9305-0.4714-2.739-0.549-4.184-0.4799 0.218-0.8922 0.7444-1.301 1.286-0.0223-1.081 0.4255-2.216 0.9759-3.362-0.4663-0.9771-1.026-1.879-0.8675-3.362 0.1393-0.7619 0.7665-1.479 1.627-2.175-1.956-2.349-2.421-4.031-2.386-5.735-1.523 0.2889-3.062 0.7926-4.446-0.89 1.091-0.89 2.066-1.78 1.735-2.67-2.345 2.085-4.639 4.11-8.811 4.722 2.109-2.346 2.702-4.757 3.018-7.223-2.507 2.397-4.799 4.746-6.206 8.236-0.7593-3.645-0.8479-7.552-0.9058-11.47-2.057 2.497-3.951 4.792-6.474 7.544 0.1504-2.546 0.4875-5.318 0.9442-8.236z" fill="#584720"/>
 <path d="m108.7 9.718c-6.942 7.03-10.51 17.07-10.87 24.35-1.514-5.221-1.661-9.866-0.1331-15.09 2.546-6.307 7.05-8.268 11-9.264z" fill="#695c2c"/>
 <path d="m112.4 8.627c-2.13-0.4105-5.496 5.743-4.993 10.04 0.5052 0.8796 1.081 1.55 2.391 0.04518 3.117-3.986 4.646-9.502 2.602-10.09z" fill="#695c2c"/>
 <path d="m115.2 9.438c0.0567 3.263 0.2018 6.667-2.085 9.401-1.996 2.385-1.832 6.21-1.825 8.779l6.364-8.461c1.608-4.801-0.743-7.054-2.454-9.719z" fill="#695c2c"/>
 <path d="m118.4 9.693c2.628 2.552 4.884 5.788 5.48 9.089 0.2395 3.388-2.437 4.784-4.313 6.244 0.4251-2.915 2.096-5.171 1.733-8.386-0.3343-1.789-1.804-4.779-2.9-6.947z" fill="#695c2c"/>
 <path d="m123.3 12.66c0.6476 3.264 2.499 6.069 2.223 9.814-5e-3 1.502-0.8994 2.964-1.843 4.4 2.132-0.01649 4.25-2.417 4.31-3.98 0.1014-5.558-2.684-7.457-4.69-10.23z" fill="#695c2c"/>
 <path d="m114.5 8.896c-1.755 0.4256-0.9285-0.9156 0.0192-1.748 1.909-1.378 4.608-1.981 7.335-2.148 3.46 0.04574 5.43 2 7.249 4.452 3.698 5.151 2.936 10.25 2.764 15.4-0.3845 2.766-0.5588 20.25-0.5751 20.49-0.0303 0.4346-1.784-3.466-1.802-4.37 0.5211-5.513 0.1803-10.38 0-15.8-0.0391-3.454-0.8628-6.765-1.917-10.03-1.304-3.181-3.872-6.083-6.326-6.922-2.409-0.637-5.625-0.03217-6.748 0.6817z" fill="#695c2c"/>
 <path d="m107.8 29.82c0.465-1.394 2.441-0.8736 2.507 0.38 0.0517 0.9786 0.0211 2.31-0.3103 2.975-0.4546 0.9123-2.345 0.7435-2.443-0.3069-0.066-0.7116-0.0985-1.515 0.0523-2.106-1.041 0.2375-1.461-0.04397-1.847-0.3257 0.5986 0.04078 1.198 0.0876 1.758-0.1228-0.8156-0.05591-1.447-0.2245-1.621-0.7764 0.704 0.1576 1.191 0.3176 1.904 0.2826z" fill="#080706"/>
 <path d="m116.5 29.95c-0.3461-1.293-2.201-0.9179-2.336 0.2203-0.106 0.8885-0.1569 2.102 0.1093 2.724 0.3653 0.8535 2.12 0.7946 2.273-0.157 0.1033-0.6446 0.181-1.375 0.0771-1.92 0.7853 0.2949 1.247 0.03377 1.724-0.204-0.5548 0.0073-1.111 0.01966-1.615-0.2 0.7023-0.03223 1.375-0.08788 1.542-0.6257-0.6591 0.1082-1.118 0.2295-1.773 0.1619z" fill="#080706"/>
 <path d="m106.5 39.61c1.457 0.8002 2.395 1.757 4.846 1.647 3.846-0.02421 6.193-2.554 8.496-4.444-0.3224 0.6185-4.028 4.591-6.902 5.596-1.023 0.3573-2.271 0.3895-3.286 0.01446-1.363-0.5033-2.819-2.105-3.153-2.813z"/>
 <path d="m156.1 42.4c0.7488-0.909 3.322 0.5059 7.114 0.5791 2.003-0.09036 4.369-0.3563 6.658-0.5848 0.785-0.03656 1.195 1.821-0.4539 2.924-3.162 2.247-8.937 2.596-11.86 0.6214-0.924-0.8152-2.445-1.86-1.459-3.54z" fill="#fff" stroke="#000" stroke-linecap="round" stroke-linejoin="round" stroke-width=".3693px"/>
</svg>
